<ttFont>
    <TTGlyph name=".notdef" xMin="0" yMin="0" xMax="502" yMax="701">
      <contour>
        <pt x="251" y="302" on="1"/>
        <pt x="247" y="302" on="1"/>
        <pt x="147" y="93" on="1"/>
        <pt x="87" y="93" on="1"/>
        <pt x="221" y="353" on="1"/>
        <pt x="87" y="608" on="1"/>
        <pt x="147" y="608" on="1"/>
        <pt x="252" y="402" on="1"/>
        <pt x="256" y="402" on="1"/>
        <pt x="356" y="608" on="1"/>
        <pt x="416" y="608" on="1"/>
        <pt x="281" y="347" on="1"/>
        <pt x="416" y="93" on="1"/>
        <pt x="356" y="93" on="1"/>
      </contour>
      <contour>
        <pt x="51" y="652" on="1"/>
        <pt x="51" y="49" on="1"/>
        <pt x="451" y="49" on="1"/>
        <pt x="451" y="652" on="1"/>
      </contour>
      <contour>
        <pt x="0" y="0" on="1"/>
        <pt x="0" y="701" on="1"/>
        <pt x="502" y="701" on="1"/>
        <pt x="502" y="0" on="1"/>
      </contour>
    </TTGlyph>
    <TTGlyph name="A" xMin="5" yMin="0" xMax="479" yMax="636">
      <contour>
        <pt x="335" y="0" on="1"/>
        <pt x="313" y="115" on="1"/>
        <pt x="168" y="115" on="1"/>
        <pt x="146" y="0" on="1"/>
        <pt x="5" y="0" on="1"/>
        <pt x="149" y="636" on="1"/>
        <pt x="331" y="636" on="1"/>
        <pt x="479" y="0" on="1"/>
      </contour>
      <contour>
        <pt x="188" y="219" on="1"/>
        <pt x="292" y="219" on="1"/>
        <pt x="240" y="488" on="1"/>
      </contour>
    </TTGlyph>
    <TTGlyph name="AE" xMin="4" yMin="0" xMax="678" yMax="636">
      <contour>
        <pt x="474" y="105" on="1"/>
        <pt x="678" y="105" on="1"/>
        <pt x="678" y="0" on="1"/>
        <pt x="338" y="0" on="1"/>
        <pt x="338" y="128" on="1"/>
        <pt x="192" y="128" on="1"/>
        <pt x="145" y="0" on="1"/>
        <pt x="4" y="0" on="1"/>
        <pt x="251" y="636" on="1"/>
        <pt x="670" y="636" on="1"/>
        <pt x="670" y="531" on="1"/>
        <pt x="474" y="531" on="1"/>
        <pt x="474" y="376" on="1"/>
        <pt x="641" y="376" on="1"/>
        <pt x="641" y="271" on="1"/>
        <pt x="474" y="271" on="1"/>
      </contour>
      <contour>
        <pt x="338" y="230" on="1"/>
        <pt x="338" y="527" on="1"/>
        <pt x="229" y="230" on="1"/>
      </contour>
    </TTGlyph>
    <TTGlyph name="Aacute" xMin="5" yMin="0" xMax="479" yMax="811">
      <contour>
        <pt x="335" y="0" on="1"/>
        <pt x="313" y="115" on="1"/>
        <pt x="168" y="115" on="1"/>
        <pt x="146" y="0" on="1"/>
        <pt x="5" y="0" on="1"/>
        <pt x="149" y="636" on="1"/>
        <pt x="331" y="636" on="1"/>
        <pt x="479" y="0" on="1"/>
      </contour>
      <contour>
        <pt x="188" y="219" on="1"/>
        <pt x="292" y="219" on="1"/>
        <pt x="240" y="488" on="1"/>
      </contour>
      <contour>
        <pt x="421" y="811" on="1"/>
        <pt x="298" y="668" on="1"/>
        <pt x="186" y="668" on="1"/>
        <pt x="277" y="811" on="1"/>
      </contour>
    </TTGlyph>
    <TTGlyph name="Abreve" xMin="5" yMin="0" xMax="479" yMax="811">
      <contour>
        <pt x="335" y="0" on="1"/>
        <pt x="313" y="115" on="1"/>
        <pt x="168" y="115" on="1"/>
        <pt x="146" y="0" on="1"/>
        <pt x="5" y="0" on="1"/>
        <pt x="149" y="636" on="1"/>
        <pt x="331" y="636" on="1"/>
        <pt x="479" y="0" on="1"/>
      </contour>
      <contour>
        <pt x="188" y="219" on="1"/>
        <pt x="292" y="219" on="1"/>
        <pt x="240" y="488" on="1"/>
      </contour>
      <contour>
        <pt x="290" y="668" on="1"/>
        <pt x="190" y="668" on="1"/>
        <pt x="63" y="668" on="0"/>
        <pt x="63" y="779" on="1"/>
        <pt x="63" y="811" on="1"/>
        <pt x="188" y="811" on="1"/>
        <pt x="188" y="776" on="1"/>
        <pt x="188" y="763" on="0"/>
        <pt x="200" y="752" on="0"/>
        <pt x="215" y="752" on="1"/>
        <pt x="265" y="752" on="1"/>
        <pt x="280" y="752" on="0"/>
        <pt x="292" y="763" on="0"/>
        <pt x="292" y="776" on="1"/>
        <pt x="292" y="811" on="1"/>
        <pt x="417" y="811" on="1"/>
        <pt x="417" y="779" on="1"/>
        <pt x="417" y="668" on="0"/>
      </contour>
    </TTGlyph>
    <TTGlyph name="Acircumflex" xMin="5" yMin="0" xMax="479" yMax="811">
      <contour>
        <pt x="335" y="0" on="1"/>
        <pt x="313" y="115" on="1"/>
        <pt x="168" y="115" on="1"/>
        <pt x="146" y="0" on="1"/>
        <pt x="5" y="0" on="1"/>
        <pt x="149" y="636" on="1"/>
        <pt x="331" y="636" on="1"/>
        <pt x="479" y="0" on="1"/>
      </contour>
      <contour>
        <pt x="188" y="219" on="1"/>
        <pt x="292" y="219" on="1"/>
        <pt x="240" y="488" on="1"/>
      </contour>
      <contour>
        <pt x="240" y="742" on="1"/>
        <pt x="187" y="668" on="1"/>
        <pt x="54" y="668" on="1"/>
        <pt x="173" y="811" on="1"/>
        <pt x="307" y="811" on="1"/>
        <pt x="425" y="668" on="1"/>
        <pt x="293" y="668" on="1"/>
      </contour>
    </TTGlyph>
    <TTGlyph name="Adieresis" xMin="5" yMin="0" xMax="479" yMax="785">
      <contour>
        <pt x="335" y="0" on="1"/>
        <pt x="313" y="115" on="1"/>
        <pt x="168" y="115" on="1"/>
        <pt x="146" y="0" on="1"/>
        <pt x="5" y="0" on="1"/>
        <pt x="149" y="636" on="1"/>
        <pt x="331" y="636" on="1"/>
        <pt x="479" y="0" on="1"/>
      </contour>
      <contour>
        <pt x="188" y="219" on="1"/>
        <pt x="292" y="219" on="1"/>
        <pt x="240" y="488" on="1"/>
      </contour>
      <contour>
        <pt x="196" y="785" on="1"/>
        <pt x="196" y="669" on="1"/>
        <pt x="63" y="669" on="1"/>
        <pt x="63" y="785" on="1"/>
      </contour>
      <contour>
        <pt x="417" y="785" on="1"/>
        <pt x="417" y="669" on="1"/>
        <pt x="284" y="669" on="1"/>
        <pt x="284" y="785" on="1"/>
      </contour>
    </TTGlyph>
    <TTGlyph name="Agrave" xMin="5" yMin="0" xMax="479" yMax="811">
      <contour>
        <pt x="335" y="0" on="1"/>
        <pt x="313" y="115" on="1"/>
        <pt x="168" y="115" on="1"/>
        <pt x="146" y="0" on="1"/>
        <pt x="5" y="0" on="1"/>
        <pt x="149" y="636" on="1"/>
        <pt x="331" y="636" on="1"/>
        <pt x="479" y="0" on="1"/>
      </contour>
      <contour>
        <pt x="188" y="219" on="1"/>
        <pt x="292" y="219" on="1"/>
        <pt x="240" y="488" on="1"/>
      </contour>
      <contour>
        <pt x="289" y="668" on="1"/>
        <pt x="177" y="668" on="1"/>
        <pt x="55" y="811" on="1"/>
        <pt x="198" y="811" on="1"/>
      </contour>
    </TTGlyph>
    <TTGlyph name="Amacron" xMin="5" yMin="0" xMax="479" yMax="760">
      <contour>
        <pt x="335" y="0" on="1"/>
        <pt x="313" y="115" on="1"/>
        <pt x="168" y="115" on="1"/>
        <pt x="146" y="0" on="1"/>
        <pt x="5" y="0" on="1"/>
        <pt x="149" y="636" on="1"/>
        <pt x="331" y="636" on="1"/>
        <pt x="479" y="0" on="1"/>
      </contour>
      <contour>
        <pt x="188" y="219" on="1"/>
        <pt x="292" y="219" on="1"/>
        <pt x="240" y="488" on="1"/>
      </contour>
      <contour>
        <pt x="411" y="760" on="1"/>
        <pt x="411" y="669" on="1"/>
        <pt x="68" y="669" on="1"/>
        <pt x="68" y="760" on="1"/>
      </contour>
    </TTGlyph>
    <TTGlyph name="Aogonek" xMin="5" yMin="-255" xMax="498" yMax="636">
      <contour>
        <pt x="411" y="-171" on="1"/>
        <pt x="498" y="-171" on="1"/>
        <pt x="498" y="-255" on="1"/>
        <pt x="390" y="-255" on="1"/>
        <pt x="333" y="-255" on="0"/>
        <pt x="285" y="-206" on="0"/>
        <pt x="285" y="-158" on="1"/>
        <pt x="285" y="-116" on="1"/>
        <pt x="285" y="-68" on="0"/>
        <pt x="333" y="-19" on="0"/>
        <pt x="390" y="-19" on="1"/>
        <pt x="396" y="-19" on="1"/>
        <pt x="396" y="0" on="1"/>
        <pt x="335" y="0" on="1"/>
        <pt x="313" y="115" on="1"/>
        <pt x="168" y="115" on="1"/>
        <pt x="146" y="0" on="1"/>
        <pt x="5" y="0" on="1"/>
        <pt x="149" y="636" on="1"/>
        <pt x="331" y="636" on="1"/>
        <pt x="476" y="14" on="1"/>
        <pt x="480" y="14" on="1"/>
        <pt x="480" y="-103" on="1"/>
        <pt x="411" y="-103" on="1"/>
        <pt x="397" y="-103" on="0"/>
        <pt x="386" y="-113" on="0"/>
        <pt x="386" y="-125" on="1"/>
        <pt x="386" y="-150" on="1"/>
        <pt x="386" y="-162" on="0"/>
        <pt x="397" y="-171" on="0"/>
      </contour>
      <contour>
        <pt x="188" y="219" on="1"/>
        <pt x="292" y="219" on="1"/>
        <pt x="240" y="488" on="1"/>
      </contour>
    </TTGlyph>
    <TTGlyph name="Aring" xMin="5" yMin="0" xMax="479" yMax="848">
      <contour>
        <pt x="335" y="0" on="1"/>
        <pt x="313" y="115" on="1"/>
        <pt x="168" y="115" on="1"/>
        <pt x="146" y="0" on="1"/>
        <pt x="5" y="0" on="1"/>
        <pt x="149" y="636" on="1"/>
        <pt x="331" y="636" on="1"/>
        <pt x="479" y="0" on="1"/>
      </contour>
      <contour>
        <pt x="188" y="219" on="1"/>
        <pt x="292" y="219" on="1"/>
        <pt x="240" y="488" on="1"/>
      </contour>
      <contour>
        <pt x="279" y="668" on="1"/>
        <pt x="201" y="668" on="1"/>
        <pt x="110" y="668" on="0"/>
        <pt x="110" y="750" on="1"/>
        <pt x="110" y="766" on="1"/>
        <pt x="110" y="848" on="0"/>
        <pt x="201" y="848" on="1"/>
        <pt x="279" y="848" on="1"/>
        <pt x="370" y="848" on="0"/>
        <pt x="370" y="766" on="1"/>
        <pt x="370" y="750" on="1"/>
        <pt x="370" y="668" on="0"/>
      </contour>
      <contour>
        <pt x="200" y="763" on="1"/>
        <pt x="200" y="752" on="1"/>
        <pt x="200" y="740" on="0"/>
        <pt x="209" y="731" on="0"/>
        <pt x="222" y="731" on="1"/>
        <pt x="258" y="731" on="1"/>
        <pt x="271" y="731" on="0"/>
        <pt x="281" y="740" on="0"/>
        <pt x="281" y="752" on="1"/>
        <pt x="281" y="763" on="1"/>
        <pt x="281" y="775" on="0"/>
        <pt x="271" y="785" on="0"/>
        <pt x="258" y="785" on="1"/>
        <pt x="222" y="785" on="1"/>
        <pt x="209" y="785" on="0"/>
        <pt x="200" y="775" on="0"/>
      </contour>
    </TTGlyph>
    <TTGlyph name="Atilde" xMin="5" yMin="0" xMax="479" yMax="801">
      <contour>
        <pt x="335" y="0" on="1"/>
        <pt x="313" y="115" on="1"/>
        <pt x="168" y="115" on="1"/>
        <pt x="146" y="0" on="1"/>
        <pt x="5" y="0" on="1"/>
        <pt x="149" y="636" on="1"/>
        <pt x="331" y="636" on="1"/>
        <pt x="479" y="0" on="1"/>
      </contour>
      <contour>
        <pt x="188" y="219" on="1"/>
        <pt x="292" y="219" on="1"/>
        <pt x="240" y="488" on="1"/>
      </contour>
      <contour>
        <pt x="170" y="694" on="1"/>
        <pt x="170" y="669" on="1"/>
        <pt x="57" y="669" on="1"/>
        <pt x="57" y="711" on="1"/>
        <pt x="57" y="755" on="0"/>
        <pt x="98" y="801" on="0"/>
        <pt x="148" y="801" on="1"/>
        <pt x="163" y="801" on="1"/>
        <pt x="193" y="801" on="0"/>
        <pt x="268" y="754" on="0"/>
        <pt x="275" y="754" on="1"/>
        <pt x="294" y="754" on="0"/>
        <pt x="294" y="776" on="1"/>
        <pt x="294" y="801" on="1"/>
        <pt x="407" y="801" on="1"/>
        <pt x="407" y="754" on="1"/>
        <pt x="407" y="711" on="0"/>
        <pt x="366" y="669" on="0"/>
        <pt x="315" y="669" on="1"/>
        <pt x="301" y="669" on="1"/>
        <pt x="271" y="669" on="0"/>
        <pt x="195" y="716" on="0"/>
        <pt x="187" y="716" on="1"/>
        <pt x="170" y="716" on="0"/>
      </contour>
    </TTGlyph>
    <TTGlyph name="B" xMin="45" yMin="0" xMax="436" yMax="636">
      <contour>
        <pt x="295" y="394" on="1"/>
        <pt x="295" y="513" on="1"/>
        <pt x="295" y="538" on="0"/>
        <pt x="268" y="538" on="1"/>
        <pt x="186" y="538" on="1"/>
        <pt x="186" y="369" on="1"/>
        <pt x="268" y="369" on="1"/>
        <pt x="295" y="369" on="0"/>
      </contour>
      <contour>
        <pt x="295" y="123" on="1"/>
        <pt x="295" y="247" on="1"/>
        <pt x="295" y="260" on="0"/>
        <pt x="283" y="271" on="0"/>
        <pt x="268" y="271" on="1"/>
        <pt x="186" y="271" on="1"/>
        <pt x="186" y="98" on="1"/>
        <pt x="268" y="98" on="1"/>
        <pt x="295" y="98" on="0"/>
      </contour>
      <contour>
        <pt x="45" y="636" on="1"/>
        <pt x="309" y="636" on="1"/>
        <pt x="436" y="636" on="0"/>
        <pt x="436" y="526" on="1"/>
        <pt x="436" y="414" on="1"/>
        <pt x="436" y="340" on="0"/>
        <pt x="391" y="321" on="1"/>
        <pt x="436" y="304" on="0"/>
        <pt x="436" y="235" on="1"/>
        <pt x="436" y="111" on="1"/>
        <pt x="436" y="0" on="0"/>
        <pt x="309" y="0" on="1"/>
        <pt x="45" y="0" on="1"/>
      </contour>
    </TTGlyph>
    <TTGlyph name="C" xMin="40" yMin="0" xMax="421" yMax="636">
      <contour>
        <pt x="421" y="413" on="1"/>
        <pt x="277" y="413" on="1"/>
        <pt x="277" y="513" on="1"/>
        <pt x="277" y="538" on="0"/>
        <pt x="251" y="538" on="1"/>
        <pt x="210" y="538" on="1"/>
        <pt x="183" y="538" on="0"/>
        <pt x="183" y="513" on="1"/>
        <pt x="183" y="123" on="1"/>
        <pt x="183" y="109" on="0"/>
        <pt x="195" y="98" on="0"/>
        <pt x="210" y="98" on="1"/>
        <pt x="251" y="98" on="1"/>
        <pt x="265" y="98" on="0"/>
        <pt x="277" y="109" on="0"/>
        <pt x="277" y="123" on="1"/>
        <pt x="277" y="220" on="1"/>
        <pt x="421" y="220" on="1"/>
        <pt x="421" y="110" on="1"/>
        <pt x="421" y="0" on="0"/>
        <pt x="294" y="0" on="1"/>
        <pt x="166" y="0" on="1"/>
        <pt x="40" y="0" on="0"/>
        <pt x="40" y="110" on="1"/>
        <pt x="40" y="526" on="1"/>
        <pt x="40" y="636" on="0"/>
        <pt x="166" y="636" on="1"/>
        <pt x="294" y="636" on="1"/>
        <pt x="421" y="636" on="0"/>
        <pt x="421" y="526" on="1"/>
      </contour>
    </TTGlyph>
    <TTGlyph name="Cacute" xMin="40" yMin="0" xMax="421" yMax="811">
      <contour>
        <pt x="421" y="413" on="1"/>
        <pt x="277" y="413" on="1"/>
        <pt x="277" y="513" on="1"/>
        <pt x="277" y="538" on="0"/>
        <pt x="251" y="538" on="1"/>
        <pt x="210" y="538" on="1"/>
        <pt x="183" y="538" on="0"/>
        <pt x="183" y="513" on="1"/>
        <pt x="183" y="123" on="1"/>
        <pt x="183" y="109" on="0"/>
        <pt x="195" y="98" on="0"/>
        <pt x="210" y="98" on="1"/>
        <pt x="251" y="98" on="1"/>
        <pt x="265" y="98" on="0"/>
        <pt x="277" y="109" on="0"/>
        <pt x="277" y="123" on="1"/>
        <pt x="277" y="220" on="1"/>
        <pt x="421" y="220" on="1"/>
        <pt x="421" y="110" on="1"/>
        <pt x="421" y="0" on="0"/>
        <pt x="294" y="0" on="1"/>
        <pt x="166" y="0" on="1"/>
        <pt x="40" y="0" on="0"/>
        <pt x="40" y="110" on="1"/>
        <pt x="40" y="526" on="1"/>
        <pt x="40" y="636" on="0"/>
        <pt x="166" y="636" on="1"/>
        <pt x="294" y="636" on="1"/>
        <pt x="421" y="636" on="0"/>
        <pt x="421" y="526" on="1"/>
      </contour>
      <contour>
        <pt x="407" y="811" on="1"/>
        <pt x="284" y="668" on="1"/>
        <pt x="172" y="668" on="1"/>
        <pt x="263" y="811" on="1"/>
      </contour>
    </TTGlyph>
    <TTGlyph name="Ccaron" xMin="40" yMin="0" xMax="421" yMax="811">
      <contour>
        <pt x="421" y="413" on="1"/>
        <pt x="277" y="413" on="1"/>
        <pt x="277" y="513" on="1"/>
        <pt x="277" y="538" on="0"/>
        <pt x="251" y="538" on="1"/>
        <pt x="210" y="538" on="1"/>
        <pt x="183" y="538" on="0"/>
        <pt x="183" y="513" on="1"/>
        <pt x="183" y="123" on="1"/>
        <pt x="183" y="109" on="0"/>
        <pt x="195" y="98" on="0"/>
        <pt x="210" y="98" on="1"/>
        <pt x="251" y="98" on="1"/>
        <pt x="265" y="98" on="0"/>
        <pt x="277" y="109" on="0"/>
        <pt x="277" y="123" on="1"/>
        <pt x="277" y="220" on="1"/>
        <pt x="421" y="220" on="1"/>
        <pt x="421" y="110" on="1"/>
        <pt x="421" y="0" on="0"/>
        <pt x="294" y="0" on="1"/>
        <pt x="166" y="0" on="1"/>
        <pt x="40" y="0" on="0"/>
        <pt x="40" y="110" on="1"/>
        <pt x="40" y="526" on="1"/>
        <pt x="40" y="636" on="0"/>
        <pt x="166" y="636" on="1"/>
        <pt x="294" y="636" on="1"/>
        <pt x="421" y="636" on="0"/>
        <pt x="421" y="526" on="1"/>
      </contour>
      <contour>
        <pt x="296" y="668" on="1"/>
        <pt x="162" y="668" on="1"/>
        <pt x="43" y="811" on="1"/>
        <pt x="176" y="811" on="1"/>
        <pt x="229" y="738" on="1"/>
        <pt x="282" y="811" on="1"/>
        <pt x="414" y="811" on="1"/>
      </contour>
    </TTGlyph>
    <TTGlyph name="Ccedilla" xMin="40" yMin="-232" xMax="421" yMax="636">
      <contour>
        <pt x="421" y="413" on="1"/>
        <pt x="277" y="413" on="1"/>
        <pt x="277" y="513" on="1"/>
        <pt x="277" y="538" on="0"/>
        <pt x="251" y="538" on="1"/>
        <pt x="210" y="538" on="1"/>
        <pt x="183" y="538" on="0"/>
        <pt x="183" y="513" on="1"/>
        <pt x="183" y="123" on="1"/>
        <pt x="183" y="109" on="0"/>
        <pt x="195" y="98" on="0"/>
        <pt x="210" y="98" on="1"/>
        <pt x="251" y="98" on="1"/>
        <pt x="265" y="98" on="0"/>
        <pt x="277" y="109" on="0"/>
        <pt x="277" y="123" on="1"/>
        <pt x="277" y="220" on="1"/>
        <pt x="421" y="220" on="1"/>
        <pt x="421" y="110" on="1"/>
        <pt x="421" y="0" on="0"/>
        <pt x="294" y="0" on="1"/>
        <pt x="166" y="0" on="1"/>
        <pt x="40" y="0" on="0"/>
        <pt x="40" y="110" on="1"/>
        <pt x="40" y="526" on="1"/>
        <pt x="40" y="636" on="0"/>
        <pt x="166" y="636" on="1"/>
        <pt x="294" y="636" on="1"/>
        <pt x="421" y="636" on="0"/>
        <pt x="421" y="526" on="1"/>
      </contour>
      <contour>
        <pt x="164" y="-108" on="1"/>
        <pt x="164" y="-48" on="1"/>
        <pt x="295" y="-48" on="1"/>
        <pt x="295" y="-119" on="1"/>
        <pt x="295" y="-232" on="0"/>
        <pt x="166" y="-232" on="1"/>
        <pt x="88" y="-232" on="1"/>
        <pt x="88" y="-135" on="1"/>
        <pt x="136" y="-135" on="1"/>
        <pt x="164" y="-135" on="0"/>
      </contour>
    </TTGlyph>
    <TTGlyph name="D" xMin="52" yMin="0" xMax="444" yMax="636">
      <contour>
        <pt x="52" y="636" on="1"/>
        <pt x="317" y="636" on="1"/>
        <pt x="444" y="636" on="0"/>
        <pt x="444" y="526" on="1"/>
        <pt x="444" y="111" on="1"/>
        <pt x="444" y="0" on="0"/>
        <pt x="317" y="0" on="1"/>
        <pt x="52" y="0" on="1"/>
      </contour>
      <contour>
        <pt x="301" y="123" on="1"/>
        <pt x="301" y="513" on="1"/>
        <pt x="301" y="538" on="0"/>
        <pt x="274" y="538" on="1"/>
        <pt x="195" y="538" on="1"/>
        <pt x="195" y="98" on="1"/>
        <pt x="274" y="98" on="1"/>
        <pt x="301" y="98" on="0"/>
      </contour>
    </TTGlyph>
    <TTGlyph name="Dcaron" xMin="52" yMin="0" xMax="444" yMax="811">
      <contour>
        <pt x="52" y="636" on="1"/>
        <pt x="317" y="636" on="1"/>
        <pt x="444" y="636" on="0"/>
        <pt x="444" y="526" on="1"/>
        <pt x="444" y="111" on="1"/>
        <pt x="444" y="0" on="0"/>
        <pt x="317" y="0" on="1"/>
        <pt x="52" y="0" on="1"/>
      </contour>
      <contour>
        <pt x="301" y="123" on="1"/>
        <pt x="301" y="513" on="1"/>
        <pt x="301" y="538" on="0"/>
        <pt x="274" y="538" on="1"/>
        <pt x="195" y="538" on="1"/>
        <pt x="195" y="98" on="1"/>
        <pt x="274" y="98" on="1"/>
        <pt x="301" y="98" on="0"/>
      </contour>
      <contour>
        <pt x="305" y="668" on="1"/>
        <pt x="171" y="668" on="1"/>
        <pt x="52" y="811" on="1"/>
        <pt x="185" y="811" on="1"/>
        <pt x="238" y="738" on="1"/>
        <pt x="291" y="811" on="1"/>
        <pt x="423" y="811" on="1"/>
      </contour>
    </TTGlyph>
    <TTGlyph name="Dcroat" xMin="-2" yMin="0" xMax="444" yMax="636">
      <contour>
        <pt x="52" y="636" on="1"/>
        <pt x="317" y="636" on="1"/>
        <pt x="444" y="636" on="0"/>
        <pt x="444" y="526" on="1"/>
        <pt x="444" y="111" on="1"/>
        <pt x="444" y="0" on="0"/>
        <pt x="317" y="0" on="1"/>
        <pt x="52" y="0" on="1"/>
        <pt x="52" y="273" on="1"/>
        <pt x="-2" y="273" on="1"/>
        <pt x="-2" y="371" on="1"/>
        <pt x="52" y="371" on="1"/>
      </contour>
      <contour>
        <pt x="301" y="130" on="1"/>
        <pt x="301" y="506" on="1"/>
        <pt x="301" y="531" on="0"/>
        <pt x="274" y="531" on="1"/>
        <pt x="195" y="531" on="1"/>
        <pt x="195" y="371" on="1"/>
        <pt x="257" y="371" on="1"/>
        <pt x="257" y="273" on="1"/>
        <pt x="195" y="273" on="1"/>
        <pt x="195" y="105" on="1"/>
        <pt x="274" y="105" on="1"/>
        <pt x="301" y="105" on="0"/>
      </contour>
    </TTGlyph>
    <TTGlyph name="E" xMin="45" yMin="0" xMax="392" yMax="636">
      <contour>
        <pt x="188" y="105" on="1"/>
        <pt x="392" y="105" on="1"/>
        <pt x="392" y="0" on="1"/>
        <pt x="45" y="0" on="1"/>
        <pt x="45" y="636" on="1"/>
        <pt x="384" y="636" on="1"/>
        <pt x="384" y="531" on="1"/>
        <pt x="188" y="531" on="1"/>
        <pt x="188" y="376" on="1"/>
        <pt x="355" y="376" on="1"/>
        <pt x="355" y="271" on="1"/>
        <pt x="188" y="271" on="1"/>
      </contour>
    </TTGlyph>
    <TTGlyph name="Eacute" xMin="45" yMin="0" xMax="392" yMax="811">
      <contour>
        <pt x="188" y="271" on="1"/>
        <pt x="188" y="105" on="1"/>
        <pt x="392" y="105" on="1"/>
        <pt x="392" y="0" on="1"/>
        <pt x="45" y="0" on="1"/>
        <pt x="45" y="636" on="1"/>
        <pt x="384" y="636" on="1"/>
        <pt x="384" y="531" on="1"/>
        <pt x="188" y="531" on="1"/>
        <pt x="188" y="376" on="1"/>
        <pt x="355" y="376" on="1"/>
        <pt x="355" y="271" on="1"/>
      </contour>
      <contour>
        <pt x="392" y="811" on="1"/>
        <pt x="269" y="668" on="1"/>
        <pt x="157" y="668" on="1"/>
        <pt x="248" y="811" on="1"/>
      </contour>
    </TTGlyph>
    <TTGlyph name="Ecaron" xMin="32" yMin="0" xMax="403" yMax="811">
      <contour>
        <pt x="188" y="271" on="1"/>
        <pt x="188" y="105" on="1"/>
        <pt x="392" y="105" on="1"/>
        <pt x="392" y="0" on="1"/>
        <pt x="45" y="0" on="1"/>
        <pt x="45" y="636" on="1"/>
        <pt x="384" y="636" on="1"/>
        <pt x="384" y="531" on="1"/>
        <pt x="188" y="531" on="1"/>
        <pt x="188" y="376" on="1"/>
        <pt x="355" y="376" on="1"/>
        <pt x="355" y="271" on="1"/>
      </contour>
      <contour>
        <pt x="285" y="668" on="1"/>
        <pt x="151" y="668" on="1"/>
        <pt x="32" y="811" on="1"/>
        <pt x="165" y="811" on="1"/>
        <pt x="218" y="738" on="1"/>
        <pt x="271" y="811" on="1"/>
        <pt x="403" y="811" on="1"/>
      </contour>
    </TTGlyph>
    <TTGlyph name="Ecircumflex" xMin="31" yMin="0" xMax="402" yMax="811">
      <contour>
        <pt x="188" y="271" on="1"/>
        <pt x="188" y="105" on="1"/>
        <pt x="392" y="105" on="1"/>
        <pt x="392" y="0" on="1"/>
        <pt x="45" y="0" on="1"/>
        <pt x="45" y="636" on="1"/>
        <pt x="384" y="636" on="1"/>
        <pt x="384" y="531" on="1"/>
        <pt x="188" y="531" on="1"/>
        <pt x="188" y="376" on="1"/>
        <pt x="355" y="376" on="1"/>
        <pt x="355" y="271" on="1"/>
      </contour>
      <contour>
        <pt x="217" y="742" on="1"/>
        <pt x="164" y="668" on="1"/>
        <pt x="31" y="668" on="1"/>
        <pt x="150" y="811" on="1"/>
        <pt x="284" y="811" on="1"/>
        <pt x="402" y="668" on="1"/>
        <pt x="270" y="668" on="1"/>
      </contour>
    </TTGlyph>
    <TTGlyph name="Edieresis" xMin="37" yMin="0" xMax="392" yMax="785">
      <contour>
        <pt x="188" y="105" on="1"/>
        <pt x="392" y="105" on="1"/>
        <pt x="392" y="0" on="1"/>
        <pt x="45" y="0" on="1"/>
        <pt x="45" y="636" on="1"/>
        <pt x="384" y="636" on="1"/>
        <pt x="384" y="531" on="1"/>
        <pt x="188" y="531" on="1"/>
        <pt x="188" y="376" on="1"/>
        <pt x="355" y="376" on="1"/>
        <pt x="355" y="271" on="1"/>
        <pt x="188" y="271" on="1"/>
      </contour>
      <contour>
        <pt x="170" y="785" on="1"/>
        <pt x="170" y="669" on="1"/>
        <pt x="37" y="669" on="1"/>
        <pt x="37" y="785" on="1"/>
      </contour>
      <contour>
        <pt x="391" y="785" on="1"/>
        <pt x="391" y="669" on="1"/>
        <pt x="258" y="669" on="1"/>
        <pt x="258" y="785" on="1"/>
      </contour>
    </TTGlyph>
    <TTGlyph name="Edotaccent" xMin="45" yMin="0" xMax="392" yMax="785">
      <contour>
        <pt x="188" y="105" on="1"/>
        <pt x="392" y="105" on="1"/>
        <pt x="392" y="0" on="1"/>
        <pt x="45" y="0" on="1"/>
        <pt x="45" y="636" on="1"/>
        <pt x="384" y="636" on="1"/>
        <pt x="384" y="531" on="1"/>
        <pt x="188" y="531" on="1"/>
        <pt x="188" y="376" on="1"/>
        <pt x="355" y="376" on="1"/>
        <pt x="355" y="271" on="1"/>
        <pt x="188" y="271" on="1"/>
      </contour>
      <contour>
        <pt x="292" y="785" on="1"/>
        <pt x="292" y="668" on="1"/>
        <pt x="151" y="668" on="1"/>
        <pt x="151" y="785" on="1"/>
      </contour>
    </TTGlyph>
    <TTGlyph name="Egrave" xMin="38" yMin="0" xMax="392" yMax="811">
      <contour>
        <pt x="188" y="105" on="1"/>
        <pt x="392" y="105" on="1"/>
        <pt x="392" y="0" on="1"/>
        <pt x="45" y="0" on="1"/>
        <pt x="45" y="636" on="1"/>
        <pt x="384" y="636" on="1"/>
        <pt x="384" y="531" on="1"/>
        <pt x="188" y="531" on="1"/>
        <pt x="188" y="376" on="1"/>
        <pt x="355" y="376" on="1"/>
        <pt x="355" y="271" on="1"/>
        <pt x="188" y="271" on="1"/>
      </contour>
      <contour>
        <pt x="272" y="668" on="1"/>
        <pt x="160" y="668" on="1"/>
        <pt x="38" y="811" on="1"/>
        <pt x="181" y="811" on="1"/>
      </contour>
    </TTGlyph>
    <TTGlyph name="Emacron" xMin="41" yMin="0" xMax="392" yMax="765">
      <contour>
        <pt x="188" y="105" on="1"/>
        <pt x="392" y="105" on="1"/>
        <pt x="392" y="0" on="1"/>
        <pt x="45" y="0" on="1"/>
        <pt x="45" y="636" on="1"/>
        <pt x="384" y="636" on="1"/>
        <pt x="384" y="531" on="1"/>
        <pt x="188" y="531" on="1"/>
        <pt x="188" y="376" on="1"/>
        <pt x="355" y="376" on="1"/>
        <pt x="355" y="271" on="1"/>
        <pt x="188" y="271" on="1"/>
      </contour>
      <contour>
        <pt x="384" y="765" on="1"/>
        <pt x="384" y="674" on="1"/>
        <pt x="41" y="674" on="1"/>
        <pt x="41" y="765" on="1"/>
      </contour>
    </TTGlyph>
    <TTGlyph name="Eogonek" xMin="45" yMin="-255" xMax="411" yMax="636">
      <contour>
        <pt x="324" y="-171" on="1"/>
        <pt x="411" y="-171" on="1"/>
        <pt x="411" y="-255" on="1"/>
        <pt x="303" y="-255" on="1"/>
        <pt x="246" y="-255" on="0"/>
        <pt x="198" y="-206" on="0"/>
        <pt x="198" y="-158" on="1"/>
        <pt x="198" y="-116" on="1"/>
        <pt x="198" y="-68" on="0"/>
        <pt x="246" y="-19" on="0"/>
        <pt x="303" y="-19" on="1"/>
        <pt x="309" y="-19" on="1"/>
        <pt x="309" y="0" on="1"/>
        <pt x="45" y="0" on="1"/>
        <pt x="45" y="636" on="1"/>
        <pt x="384" y="636" on="1"/>
        <pt x="384" y="531" on="1"/>
        <pt x="188" y="531" on="1"/>
        <pt x="188" y="376" on="1"/>
        <pt x="355" y="376" on="1"/>
        <pt x="355" y="271" on="1"/>
        <pt x="188" y="271" on="1"/>
        <pt x="188" y="105" on="1"/>
        <pt x="392" y="105" on="1"/>
        <pt x="392" y="14" on="1"/>
        <pt x="393" y="14" on="1"/>
        <pt x="393" y="-103" on="1"/>
        <pt x="324" y="-103" on="1"/>
        <pt x="310" y="-103" on="0"/>
        <pt x="299" y="-113" on="0"/>
        <pt x="299" y="-125" on="1"/>
        <pt x="299" y="-150" on="1"/>
        <pt x="299" y="-162" on="0"/>
        <pt x="310" y="-171" on="0"/>
      </contour>
    </TTGlyph>
    <TTGlyph name="Eth" xMin="-2" yMin="0" xMax="444" yMax="636">
      <contour>
        <pt x="52" y="636" on="1"/>
        <pt x="317" y="636" on="1"/>
        <pt x="444" y="636" on="0"/>
        <pt x="444" y="526" on="1"/>
        <pt x="444" y="111" on="1"/>
        <pt x="444" y="0" on="0"/>
        <pt x="317" y="0" on="1"/>
        <pt x="52" y="0" on="1"/>
        <pt x="52" y="273" on="1"/>
        <pt x="-2" y="273" on="1"/>
        <pt x="-2" y="371" on="1"/>
        <pt x="52" y="371" on="1"/>
      </contour>
      <contour>
        <pt x="301" y="123" on="1"/>
        <pt x="301" y="513" on="1"/>
        <pt x="301" y="538" on="0"/>
        <pt x="274" y="538" on="1"/>
        <pt x="195" y="538" on="1"/>
        <pt x="195" y="371" on="1"/>
        <pt x="257" y="371" on="1"/>
        <pt x="257" y="273" on="1"/>
        <pt x="195" y="273" on="1"/>
        <pt x="195" y="98" on="1"/>
        <pt x="274" y="98" on="1"/>
        <pt x="301" y="98" on="0"/>
      </contour>
    </TTGlyph>
    <TTGlyph name="Euro" xMin="18" yMin="0" xMax="442" yMax="636">
      <contour>
        <pt x="442" y="413" on="1"/>
        <pt x="299" y="413" on="1"/>
        <pt x="299" y="513" on="1"/>
        <pt x="299" y="538" on="0"/>
        <pt x="272" y="538" on="1"/>
        <pt x="231" y="538" on="1"/>
        <pt x="204" y="538" on="0"/>
        <pt x="204" y="513" on="1"/>
        <pt x="204" y="423" on="1"/>
        <pt x="274" y="423" on="1"/>
        <pt x="274" y="338" on="1"/>
        <pt x="204" y="338" on="1"/>
        <pt x="204" y="298" on="1"/>
        <pt x="274" y="298" on="1"/>
        <pt x="274" y="214" on="1"/>
        <pt x="204" y="214" on="1"/>
        <pt x="204" y="123" on="1"/>
        <pt x="204" y="109" on="0"/>
        <pt x="216" y="98" on="0"/>
        <pt x="231" y="98" on="1"/>
        <pt x="272" y="98" on="1"/>
        <pt x="287" y="98" on="0"/>
        <pt x="299" y="109" on="0"/>
        <pt x="299" y="123" on="1"/>
        <pt x="299" y="220" on="1"/>
        <pt x="442" y="220" on="1"/>
        <pt x="442" y="110" on="1"/>
        <pt x="442" y="0" on="0"/>
        <pt x="316" y="0" on="1"/>
        <pt x="188" y="0" on="1"/>
        <pt x="61" y="0" on="0"/>
        <pt x="61" y="110" on="1"/>
        <pt x="61" y="214" on="1"/>
        <pt x="18" y="214" on="1"/>
        <pt x="18" y="298" on="1"/>
        <pt x="61" y="298" on="1"/>
        <pt x="61" y="338" on="1"/>
        <pt x="18" y="338" on="1"/>
        <pt x="18" y="423" on="1"/>
        <pt x="61" y="423" on="1"/>
        <pt x="61" y="526" on="1"/>
        <pt x="61" y="636" on="0"/>
        <pt x="188" y="636" on="1"/>
        <pt x="316" y="636" on="1"/>
        <pt x="442" y="636" on="0"/>
        <pt x="442" y="526" on="1"/>
      </contour>
    </TTGlyph>
    <TTGlyph name="F" xMin="45" yMin="0" xMax="387" yMax="636">
      <contour>
        <pt x="387" y="531" on="1"/>
        <pt x="188" y="531" on="1"/>
        <pt x="188" y="356" on="1"/>
        <pt x="355" y="356" on="1"/>
        <pt x="355" y="257" on="1"/>
        <pt x="188" y="257" on="1"/>
        <pt x="188" y="0" on="1"/>
        <pt x="45" y="0" on="1"/>
        <pt x="45" y="636" on="1"/>
        <pt x="387" y="636" on="1"/>
      </contour>
    </TTGlyph>
    <TTGlyph name="G" xMin="40" yMin="0" xMax="421" yMax="636">
      <contour>
        <pt x="421" y="430" on="1"/>
        <pt x="278" y="430" on="1"/>
        <pt x="278" y="513" on="1"/>
        <pt x="278" y="538" on="0"/>
        <pt x="251" y="538" on="1"/>
        <pt x="210" y="538" on="1"/>
        <pt x="183" y="538" on="0"/>
        <pt x="183" y="513" on="1"/>
        <pt x="183" y="123" on="1"/>
        <pt x="183" y="109" on="0"/>
        <pt x="195" y="98" on="0"/>
        <pt x="210" y="98" on="1"/>
        <pt x="251" y="98" on="1"/>
        <pt x="266" y="98" on="0"/>
        <pt x="278" y="109" on="0"/>
        <pt x="278" y="123" on="1"/>
        <pt x="278" y="247" on="1"/>
        <pt x="228" y="247" on="1"/>
        <pt x="228" y="342" on="1"/>
        <pt x="421" y="342" on="1"/>
        <pt x="421" y="110" on="1"/>
        <pt x="421" y="0" on="0"/>
        <pt x="295" y="0" on="1"/>
        <pt x="166" y="0" on="1"/>
        <pt x="40" y="0" on="0"/>
        <pt x="40" y="110" on="1"/>
        <pt x="40" y="526" on="1"/>
        <pt x="40" y="636" on="0"/>
        <pt x="166" y="636" on="1"/>
        <pt x="295" y="636" on="1"/>
        <pt x="421" y="636" on="0"/>
        <pt x="421" y="526" on="1"/>
      </contour>
    </TTGlyph>
    <TTGlyph name="Gbreve" xMin="40" yMin="0" xMax="421" yMax="811">
      <contour>
        <pt x="421" y="430" on="1"/>
        <pt x="278" y="430" on="1"/>
        <pt x="278" y="513" on="1"/>
        <pt x="278" y="538" on="0"/>
        <pt x="251" y="538" on="1"/>
        <pt x="210" y="538" on="1"/>
        <pt x="183" y="538" on="0"/>
        <pt x="183" y="513" on="1"/>
        <pt x="183" y="123" on="1"/>
        <pt x="183" y="109" on="0"/>
        <pt x="195" y="98" on="0"/>
        <pt x="210" y="98" on="1"/>
        <pt x="251" y="98" on="1"/>
        <pt x="266" y="98" on="0"/>
        <pt x="278" y="109" on="0"/>
        <pt x="278" y="123" on="1"/>
        <pt x="278" y="247" on="1"/>
        <pt x="228" y="247" on="1"/>
        <pt x="228" y="342" on="1"/>
        <pt x="421" y="342" on="1"/>
        <pt x="421" y="110" on="1"/>
        <pt x="421" y="0" on="0"/>
        <pt x="295" y="0" on="1"/>
        <pt x="166" y="0" on="1"/>
        <pt x="40" y="0" on="0"/>
        <pt x="40" y="110" on="1"/>
        <pt x="40" y="526" on="1"/>
        <pt x="40" y="636" on="0"/>
        <pt x="166" y="636" on="1"/>
        <pt x="295" y="636" on="1"/>
        <pt x="421" y="636" on="0"/>
        <pt x="421" y="526" on="1"/>
      </contour>
      <contour>
        <pt x="280" y="668" on="1"/>
        <pt x="180" y="668" on="1"/>
        <pt x="53" y="668" on="0"/>
        <pt x="53" y="779" on="1"/>
        <pt x="53" y="811" on="1"/>
        <pt x="178" y="811" on="1"/>
        <pt x="178" y="776" on="1"/>
        <pt x="178" y="763" on="0"/>
        <pt x="190" y="752" on="0"/>
        <pt x="205" y="752" on="1"/>
        <pt x="255" y="752" on="1"/>
        <pt x="270" y="752" on="0"/>
        <pt x="282" y="763" on="0"/>
        <pt x="282" y="776" on="1"/>
        <pt x="282" y="811" on="1"/>
        <pt x="407" y="811" on="1"/>
        <pt x="407" y="779" on="1"/>
        <pt x="407" y="668" on="0"/>
      </contour>
    </TTGlyph>
    <TTGlyph name="H" xMin="45" yMin="0" xMax="455" yMax="636">
      <contour>
        <pt x="314" y="636" on="1"/>
        <pt x="455" y="636" on="1"/>
        <pt x="455" y="0" on="1"/>
        <pt x="314" y="0" on="1"/>
        <pt x="314" y="262" on="1"/>
        <pt x="186" y="262" on="1"/>
        <pt x="186" y="0" on="1"/>
        <pt x="45" y="0" on="1"/>
        <pt x="45" y="636" on="1"/>
        <pt x="186" y="636" on="1"/>
        <pt x="186" y="367" on="1"/>
        <pt x="314" y="367" on="1"/>
      </contour>
    </TTGlyph>
    <TTGlyph name="I" xMin="48" yMin="0" xMax="190" yMax="636">
      <contour>
        <pt x="48" y="636" on="1"/>
        <pt x="190" y="636" on="1"/>
        <pt x="190" y="0" on="1"/>
        <pt x="48" y="0" on="1"/>
      </contour>
    </TTGlyph>
    <TTGlyph name="Iacute" xMin="48" yMin="0" xMax="296" yMax="811">
      <contour>
        <pt x="61" y="668" on="1"/>
        <pt x="152" y="811" on="1"/>
        <pt x="296" y="811" on="1"/>
        <pt x="173" y="668" on="1"/>
      </contour>
      <contour>
        <pt x="48" y="636" on="1"/>
        <pt x="190" y="636" on="1"/>
        <pt x="190" y="0" on="1"/>
        <pt x="48" y="0" on="1"/>
      </contour>
    </TTGlyph>
    <TTGlyph name="Icircumflex" xMin="-67" yMin="0" xMax="304" yMax="811">
      <contour>
        <pt x="-67" y="668" on="1"/>
        <pt x="52" y="811" on="1"/>
        <pt x="186" y="811" on="1"/>
        <pt x="304" y="668" on="1"/>
        <pt x="172" y="668" on="1"/>
        <pt x="119" y="742" on="1"/>
        <pt x="66" y="668" on="1"/>
      </contour>
      <contour>
        <pt x="48" y="636" on="1"/>
        <pt x="190" y="636" on="1"/>
        <pt x="190" y="0" on="1"/>
        <pt x="48" y="0" on="1"/>
      </contour>
    </TTGlyph>
    <TTGlyph name="Idieresis" xMin="-58" yMin="0" xMax="296" yMax="785">
      <contour>
        <pt x="48" y="636" on="1"/>
        <pt x="190" y="636" on="1"/>
        <pt x="190" y="0" on="1"/>
        <pt x="48" y="0" on="1"/>
      </contour>
      <contour>
        <pt x="163" y="669" on="1"/>
        <pt x="163" y="785" on="1"/>
        <pt x="296" y="785" on="1"/>
        <pt x="296" y="669" on="1"/>
      </contour>
      <contour>
        <pt x="-58" y="669" on="1"/>
        <pt x="-58" y="785" on="1"/>
        <pt x="75" y="785" on="1"/>
        <pt x="75" y="669" on="1"/>
      </contour>
    </TTGlyph>
    <TTGlyph name="Idotaccent" xMin="48" yMin="0" xMax="190" yMax="790">
      <contour>
        <pt x="49" y="673" on="1"/>
        <pt x="49" y="790" on="1"/>
        <pt x="190" y="790" on="1"/>
        <pt x="190" y="673" on="1"/>
      </contour>
      <contour>
        <pt x="48" y="636" on="1"/>
        <pt x="190" y="636" on="1"/>
        <pt x="190" y="0" on="1"/>
        <pt x="48" y="0" on="1"/>
      </contour>
    </TTGlyph>
    <TTGlyph name="Igrave" xMin="-60" yMin="0" xMax="190" yMax="811">
      <contour>
        <pt x="83" y="811" on="1"/>
        <pt x="174" y="668" on="1"/>
        <pt x="62" y="668" on="1"/>
        <pt x="-60" y="811" on="1"/>
      </contour>
      <contour>
        <pt x="48" y="636" on="1"/>
        <pt x="190" y="636" on="1"/>
        <pt x="190" y="0" on="1"/>
        <pt x="48" y="0" on="1"/>
      </contour>
    </TTGlyph>
    <TTGlyph name="Imacron" xMin="-52" yMin="0" xMax="291" yMax="765">
      <contour>
        <pt x="-52" y="674" on="1"/>
        <pt x="-52" y="765" on="1"/>
        <pt x="291" y="765" on="1"/>
        <pt x="291" y="674" on="1"/>
      </contour>
      <contour>
        <pt x="48" y="636" on="1"/>
        <pt x="190" y="636" on="1"/>
        <pt x="190" y="0" on="1"/>
        <pt x="48" y="0" on="1"/>
      </contour>
    </TTGlyph>
    <TTGlyph name="Iogonek" xMin="-4" yMin="-255" xMax="209" yMax="636">
      <contour>
        <pt x="122" y="-171" on="1"/>
        <pt x="209" y="-171" on="1"/>
        <pt x="209" y="-255" on="1"/>
        <pt x="101" y="-255" on="1"/>
        <pt x="44" y="-255" on="0"/>
        <pt x="-4" y="-206" on="0"/>
        <pt x="-4" y="-158" on="1"/>
        <pt x="-4" y="-116" on="1"/>
        <pt x="-4" y="-68" on="0"/>
        <pt x="44" y="-19" on="0"/>
        <pt x="101" y="-19" on="1"/>
        <pt x="107" y="-19" on="1"/>
        <pt x="107" y="0" on="1"/>
        <pt x="48" y="0" on="1"/>
        <pt x="48" y="636" on="1"/>
        <pt x="190" y="636" on="1"/>
        <pt x="190" y="14" on="1"/>
        <pt x="191" y="14" on="1"/>
        <pt x="191" y="-103" on="1"/>
        <pt x="122" y="-103" on="1"/>
        <pt x="108" y="-103" on="0"/>
        <pt x="97" y="-113" on="0"/>
        <pt x="97" y="-125" on="1"/>
        <pt x="97" y="-150" on="1"/>
        <pt x="97" y="-162" on="0"/>
        <pt x="108" y="-171" on="0"/>
      </contour>
    </TTGlyph>
    <TTGlyph name="J" xMin="12" yMin="0" xMax="369" yMax="636">
      <contour>
        <pt x="12" y="238" on="1"/>
        <pt x="155" y="238" on="1"/>
        <pt x="155" y="130" on="1"/>
        <pt x="155" y="105" on="0"/>
        <pt x="182" y="105" on="1"/>
        <pt x="199" y="105" on="1"/>
        <pt x="226" y="105" on="0"/>
        <pt x="226" y="130" on="1"/>
        <pt x="226" y="636" on="1"/>
        <pt x="369" y="636" on="1"/>
        <pt x="369" y="111" on="1"/>
        <pt x="369" y="0" on="0"/>
        <pt x="243" y="0" on="1"/>
        <pt x="138" y="0" on="1"/>
        <pt x="12" y="0" on="0"/>
        <pt x="12" y="111" on="1"/>
      </contour>
    </TTGlyph>
    <TTGlyph name="K" xMin="45" yMin="0" xMax="467" yMax="636">
      <contour>
        <pt x="467" y="636" on="1"/>
        <pt x="339" y="322" on="1"/>
        <pt x="467" y="0" on="1"/>
        <pt x="313" y="0" on="1"/>
        <pt x="190" y="322" on="1"/>
        <pt x="313" y="636" on="1"/>
      </contour>
      <contour>
        <pt x="45" y="0" on="1"/>
        <pt x="45" y="636" on="1"/>
        <pt x="187" y="636" on="1"/>
        <pt x="187" y="0" on="1"/>
      </contour>
    </TTGlyph>
    <TTGlyph name="L" xMin="45" yMin="0" xMax="370" yMax="636">
      <contour>
        <pt x="187" y="105" on="1"/>
        <pt x="370" y="105" on="1"/>
        <pt x="370" y="0" on="1"/>
        <pt x="45" y="0" on="1"/>
        <pt x="45" y="636" on="1"/>
        <pt x="187" y="636" on="1"/>
      </contour>
    </TTGlyph>
    <TTGlyph name="Lacute" xMin="45" yMin="0" xMax="370" yMax="811">
      <contour>
        <pt x="187" y="105" on="1"/>
        <pt x="370" y="105" on="1"/>
        <pt x="370" y="0" on="1"/>
        <pt x="45" y="0" on="1"/>
        <pt x="45" y="636" on="1"/>
        <pt x="187" y="636" on="1"/>
      </contour>
      <contour>
        <pt x="298" y="811" on="1"/>
        <pt x="175" y="668" on="1"/>
        <pt x="63" y="668" on="1"/>
        <pt x="154" y="811" on="1"/>
      </contour>
    </TTGlyph>
    <TTGlyph name="Lcaron" xMin="-71" yMin="0" xMax="370" yMax="813">
      <contour>
        <pt x="187" y="105" on="1"/>
        <pt x="370" y="105" on="1"/>
        <pt x="370" y="0" on="1"/>
        <pt x="45" y="0" on="1"/>
        <pt x="45" y="636" on="1"/>
        <pt x="187" y="636" on="1"/>
      </contour>
      <contour>
        <pt x="182" y="670" on="1"/>
        <pt x="48" y="670" on="1"/>
        <pt x="-71" y="813" on="1"/>
        <pt x="62" y="813" on="1"/>
        <pt x="115" y="740" on="1"/>
        <pt x="168" y="813" on="1"/>
        <pt x="300" y="813" on="1"/>
      </contour>
    </TTGlyph>
    <TTGlyph name="Lslash" xMin="-33" yMin="0" xMax="377" yMax="636">
      <contour>
        <pt x="194" y="105" on="1"/>
        <pt x="377" y="105" on="1"/>
        <pt x="377" y="0" on="1"/>
        <pt x="52" y="0" on="1"/>
        <pt x="52" y="243" on="1"/>
        <pt x="-33" y="203" on="1"/>
        <pt x="-33" y="301" on="1"/>
        <pt x="52" y="341" on="1"/>
        <pt x="52" y="636" on="1"/>
        <pt x="194" y="636" on="1"/>
        <pt x="194" y="409" on="1"/>
        <pt x="301" y="460" on="1"/>
        <pt x="301" y="362" on="1"/>
        <pt x="194" y="311" on="1"/>
      </contour>
    </TTGlyph>
    <TTGlyph name="M" xMin="45" yMin="0" xMax="567" yMax="636">
      <contour>
        <pt x="171" y="0" on="1"/>
        <pt x="45" y="0" on="1"/>
        <pt x="45" y="636" on="1"/>
        <pt x="201" y="636" on="1"/>
        <pt x="306" y="276" on="1"/>
        <pt x="411" y="636" on="1"/>
        <pt x="567" y="636" on="1"/>
        <pt x="567" y="0" on="1"/>
        <pt x="441" y="0" on="1"/>
        <pt x="441" y="427" on="1"/>
        <pt x="359" y="138" on="1"/>
        <pt x="253" y="138" on="1"/>
        <pt x="171" y="426" on="1"/>
      </contour>
    </TTGlyph>
    <TTGlyph name="N" xMin="45" yMin="0" xMax="442" yMax="636">
      <contour>
        <pt x="311" y="636" on="1"/>
        <pt x="442" y="636" on="1"/>
        <pt x="442" y="0" on="1"/>
        <pt x="314" y="0" on="1"/>
        <pt x="175" y="381" on="1"/>
        <pt x="175" y="0" on="1"/>
        <pt x="45" y="0" on="1"/>
        <pt x="45" y="636" on="1"/>
        <pt x="174" y="636" on="1"/>
        <pt x="311" y="256" on="1"/>
      </contour>
    </TTGlyph>
    <TTGlyph name="Nacute" xMin="45" yMin="0" xMax="442" yMax="811">
      <contour>
        <pt x="311" y="636" on="1"/>
        <pt x="442" y="636" on="1"/>
        <pt x="442" y="0" on="1"/>
        <pt x="314" y="0" on="1"/>
        <pt x="175" y="381" on="1"/>
        <pt x="175" y="0" on="1"/>
        <pt x="45" y="0" on="1"/>
        <pt x="45" y="636" on="1"/>
        <pt x="174" y="636" on="1"/>
        <pt x="311" y="256" on="1"/>
      </contour>
      <contour>
        <pt x="180" y="668" on="1"/>
        <pt x="271" y="811" on="1"/>
        <pt x="415" y="811" on="1"/>
        <pt x="292" y="668" on="1"/>
      </contour>
    </TTGlyph>
    <TTGlyph name="Ncaron" xMin="45" yMin="0" xMax="442" yMax="811">
      <contour>
        <pt x="311" y="636" on="1"/>
        <pt x="442" y="636" on="1"/>
        <pt x="442" y="0" on="1"/>
        <pt x="314" y="0" on="1"/>
        <pt x="175" y="381" on="1"/>
        <pt x="175" y="0" on="1"/>
        <pt x="45" y="0" on="1"/>
        <pt x="45" y="636" on="1"/>
        <pt x="174" y="636" on="1"/>
        <pt x="311" y="256" on="1"/>
      </contour>
      <contour>
        <pt x="176" y="668" on="1"/>
        <pt x="57" y="811" on="1"/>
        <pt x="190" y="811" on="1"/>
        <pt x="243" y="738" on="1"/>
        <pt x="296" y="811" on="1"/>
        <pt x="428" y="811" on="1"/>
        <pt x="310" y="668" on="1"/>
      </contour>
    </TTGlyph>
    <TTGlyph name="Ntilde" xMin="45" yMin="0" xMax="442" yMax="801">
      <contour>
        <pt x="314" y="669" on="1"/>
        <pt x="284" y="669" on="0"/>
        <pt x="208" y="716" on="0"/>
        <pt x="200" y="716" on="1"/>
        <pt x="183" y="716" on="0"/>
        <pt x="183" y="694" on="1"/>
        <pt x="183" y="669" on="1"/>
        <pt x="70" y="669" on="1"/>
        <pt x="70" y="711" on="1"/>
        <pt x="70" y="755" on="0"/>
        <pt x="111" y="801" on="0"/>
        <pt x="161" y="801" on="1"/>
        <pt x="176" y="801" on="1"/>
        <pt x="206" y="801" on="0"/>
        <pt x="281" y="754" on="0"/>
        <pt x="288" y="754" on="1"/>
        <pt x="307" y="754" on="0"/>
        <pt x="307" y="776" on="1"/>
        <pt x="307" y="801" on="1"/>
        <pt x="420" y="801" on="1"/>
        <pt x="420" y="754" on="1"/>
        <pt x="420" y="711" on="0"/>
        <pt x="379" y="669" on="0"/>
        <pt x="328" y="669" on="1"/>
      </contour>
      <contour>
        <pt x="311" y="636" on="1"/>
        <pt x="442" y="636" on="1"/>
        <pt x="442" y="0" on="1"/>
        <pt x="314" y="0" on="1"/>
        <pt x="175" y="381" on="1"/>
        <pt x="175" y="0" on="1"/>
        <pt x="45" y="0" on="1"/>
        <pt x="45" y="636" on="1"/>
        <pt x="174" y="636" on="1"/>
        <pt x="311" y="256" on="1"/>
      </contour>
    </TTGlyph>
    <TTGlyph name="O" xMin="41" yMin="0" xMax="428" yMax="636">
      <contour>
        <pt x="168" y="636" on="1"/>
        <pt x="302" y="636" on="1"/>
        <pt x="428" y="636" on="0"/>
        <pt x="428" y="526" on="1"/>
        <pt x="428" y="111" on="1"/>
        <pt x="428" y="0" on="0"/>
        <pt x="302" y="0" on="1"/>
        <pt x="168" y="0" on="1"/>
        <pt x="41" y="0" on="0"/>
        <pt x="41" y="111" on="1"/>
        <pt x="41" y="526" on="1"/>
        <pt x="41" y="636" on="0"/>
      </contour>
      <contour>
        <pt x="285" y="130" on="1"/>
        <pt x="285" y="506" on="1"/>
        <pt x="285" y="531" on="0"/>
        <pt x="259" y="531" on="1"/>
        <pt x="211" y="531" on="1"/>
        <pt x="184" y="531" on="0"/>
        <pt x="184" y="506" on="1"/>
        <pt x="184" y="130" on="1"/>
        <pt x="184" y="105" on="0"/>
        <pt x="211" y="105" on="1"/>
        <pt x="259" y="105" on="1"/>
        <pt x="285" y="105" on="0"/>
      </contour>
    </TTGlyph>
    <TTGlyph name="OE" xMin="61" yMin="0" xMax="642" yMax="636">
      <contour>
        <pt x="437" y="98" on="1"/>
        <pt x="642" y="98" on="1"/>
        <pt x="642" y="0" on="1"/>
        <pt x="332" y="0" on="1"/>
        <pt x="332" y="19" on="1"/>
        <pt x="307" y="0" on="0"/>
        <pt x="265" y="0" on="1"/>
        <pt x="187" y="0" on="1"/>
        <pt x="61" y="0" on="0"/>
        <pt x="61" y="111" on="1"/>
        <pt x="61" y="526" on="1"/>
        <pt x="61" y="636" on="0"/>
        <pt x="187" y="636" on="1"/>
        <pt x="265" y="636" on="1"/>
        <pt x="307" y="636" on="0"/>
        <pt x="332" y="616" on="1"/>
        <pt x="332" y="636" on="1"/>
        <pt x="633" y="636" on="1"/>
        <pt x="633" y="538" on="1"/>
        <pt x="437" y="538" on="1"/>
        <pt x="437" y="373" on="1"/>
        <pt x="604" y="373" on="1"/>
        <pt x="604" y="274" on="1"/>
        <pt x="437" y="274" on="1"/>
      </contour>
      <contour>
        <pt x="305" y="123" on="1"/>
        <pt x="305" y="513" on="1"/>
        <pt x="305" y="538" on="0"/>
        <pt x="278" y="538" on="1"/>
        <pt x="230" y="538" on="1"/>
        <pt x="203" y="538" on="0"/>
        <pt x="203" y="513" on="1"/>
        <pt x="203" y="123" on="1"/>
        <pt x="203" y="98" on="0"/>
        <pt x="230" y="98" on="1"/>
        <pt x="278" y="98" on="1"/>
        <pt x="305" y="98" on="0"/>
      </contour>
    </TTGlyph>
    <TTGlyph name="Oacute" xMin="41" yMin="0" xMax="428" yMax="811">
      <contour>
        <pt x="168" y="636" on="1"/>
        <pt x="302" y="636" on="1"/>
        <pt x="428" y="636" on="0"/>
        <pt x="428" y="526" on="1"/>
        <pt x="428" y="111" on="1"/>
        <pt x="428" y="0" on="0"/>
        <pt x="302" y="0" on="1"/>
        <pt x="168" y="0" on="1"/>
        <pt x="41" y="0" on="0"/>
        <pt x="41" y="111" on="1"/>
        <pt x="41" y="526" on="1"/>
        <pt x="41" y="636" on="0"/>
      </contour>
      <contour>
        <pt x="285" y="130" on="1"/>
        <pt x="285" y="506" on="1"/>
        <pt x="285" y="531" on="0"/>
        <pt x="259" y="531" on="1"/>
        <pt x="211" y="531" on="1"/>
        <pt x="184" y="531" on="0"/>
        <pt x="184" y="506" on="1"/>
        <pt x="184" y="130" on="1"/>
        <pt x="184" y="105" on="0"/>
        <pt x="211" y="105" on="1"/>
        <pt x="259" y="105" on="1"/>
        <pt x="285" y="105" on="0"/>
      </contour>
      <contour>
        <pt x="414" y="811" on="1"/>
        <pt x="291" y="668" on="1"/>
        <pt x="179" y="668" on="1"/>
        <pt x="270" y="811" on="1"/>
      </contour>
    </TTGlyph>
    <TTGlyph name="Ocircumflex" xMin="41" yMin="0" xMax="428" yMax="811">
      <contour>
        <pt x="168" y="636" on="1"/>
        <pt x="302" y="636" on="1"/>
        <pt x="428" y="636" on="0"/>
        <pt x="428" y="526" on="1"/>
        <pt x="428" y="111" on="1"/>
        <pt x="428" y="0" on="0"/>
        <pt x="302" y="0" on="1"/>
        <pt x="168" y="0" on="1"/>
        <pt x="41" y="0" on="0"/>
        <pt x="41" y="111" on="1"/>
        <pt x="41" y="526" on="1"/>
        <pt x="41" y="636" on="0"/>
      </contour>
      <contour>
        <pt x="285" y="130" on="1"/>
        <pt x="285" y="506" on="1"/>
        <pt x="285" y="531" on="0"/>
        <pt x="259" y="531" on="1"/>
        <pt x="211" y="531" on="1"/>
        <pt x="184" y="531" on="0"/>
        <pt x="184" y="506" on="1"/>
        <pt x="184" y="130" on="1"/>
        <pt x="184" y="105" on="0"/>
        <pt x="211" y="105" on="1"/>
        <pt x="259" y="105" on="1"/>
        <pt x="285" y="105" on="0"/>
      </contour>
      <contour>
        <pt x="233" y="742" on="1"/>
        <pt x="180" y="668" on="1"/>
        <pt x="47" y="668" on="1"/>
        <pt x="166" y="811" on="1"/>
        <pt x="300" y="811" on="1"/>
        <pt x="418" y="668" on="1"/>
        <pt x="286" y="668" on="1"/>
      </contour>
    </TTGlyph>
    <TTGlyph name="Odieresis" xMin="41" yMin="0" xMax="428" yMax="785">
      <contour>
        <pt x="168" y="636" on="1"/>
        <pt x="302" y="636" on="1"/>
        <pt x="428" y="636" on="0"/>
        <pt x="428" y="526" on="1"/>
        <pt x="428" y="111" on="1"/>
        <pt x="428" y="0" on="0"/>
        <pt x="302" y="0" on="1"/>
        <pt x="168" y="0" on="1"/>
        <pt x="41" y="0" on="0"/>
        <pt x="41" y="111" on="1"/>
        <pt x="41" y="526" on="1"/>
        <pt x="41" y="636" on="0"/>
      </contour>
      <contour>
        <pt x="285" y="130" on="1"/>
        <pt x="285" y="506" on="1"/>
        <pt x="285" y="531" on="0"/>
        <pt x="259" y="531" on="1"/>
        <pt x="211" y="531" on="1"/>
        <pt x="184" y="531" on="0"/>
        <pt x="184" y="506" on="1"/>
        <pt x="184" y="130" on="1"/>
        <pt x="184" y="105" on="0"/>
        <pt x="211" y="105" on="1"/>
        <pt x="259" y="105" on="1"/>
        <pt x="285" y="105" on="0"/>
      </contour>
      <contour>
        <pt x="191" y="785" on="1"/>
        <pt x="191" y="669" on="1"/>
        <pt x="58" y="669" on="1"/>
        <pt x="58" y="785" on="1"/>
      </contour>
      <contour>
        <pt x="412" y="785" on="1"/>
        <pt x="412" y="669" on="1"/>
        <pt x="279" y="669" on="1"/>
        <pt x="279" y="785" on="1"/>
      </contour>
    </TTGlyph>
    <TTGlyph name="Ograve" xMin="41" yMin="0" xMax="428" yMax="811">
      <contour>
        <pt x="168" y="636" on="1"/>
        <pt x="302" y="636" on="1"/>
        <pt x="428" y="636" on="0"/>
        <pt x="428" y="526" on="1"/>
        <pt x="428" y="111" on="1"/>
        <pt x="428" y="0" on="0"/>
        <pt x="302" y="0" on="1"/>
        <pt x="168" y="0" on="1"/>
        <pt x="41" y="0" on="0"/>
        <pt x="41" y="111" on="1"/>
        <pt x="41" y="526" on="1"/>
        <pt x="41" y="636" on="0"/>
      </contour>
      <contour>
        <pt x="285" y="130" on="1"/>
        <pt x="285" y="506" on="1"/>
        <pt x="285" y="531" on="0"/>
        <pt x="259" y="531" on="1"/>
        <pt x="211" y="531" on="1"/>
        <pt x="184" y="531" on="0"/>
        <pt x="184" y="506" on="1"/>
        <pt x="184" y="130" on="1"/>
        <pt x="184" y="105" on="0"/>
        <pt x="211" y="105" on="1"/>
        <pt x="259" y="105" on="1"/>
        <pt x="285" y="105" on="0"/>
      </contour>
      <contour>
        <pt x="285" y="668" on="1"/>
        <pt x="173" y="668" on="1"/>
        <pt x="51" y="811" on="1"/>
        <pt x="194" y="811" on="1"/>
      </contour>
    </TTGlyph>
    <TTGlyph name="Ohungarumlaut" xMin="41" yMin="0" xMax="487" yMax="811">
      <contour>
        <pt x="168" y="636" on="1"/>
        <pt x="302" y="636" on="1"/>
        <pt x="428" y="636" on="0"/>
        <pt x="428" y="526" on="1"/>
        <pt x="428" y="111" on="1"/>
        <pt x="428" y="0" on="0"/>
        <pt x="302" y="0" on="1"/>
        <pt x="168" y="0" on="1"/>
        <pt x="41" y="0" on="0"/>
        <pt x="41" y="111" on="1"/>
        <pt x="41" y="526" on="1"/>
        <pt x="41" y="636" on="0"/>
      </contour>
      <contour>
        <pt x="285" y="130" on="1"/>
        <pt x="285" y="506" on="1"/>
        <pt x="285" y="531" on="0"/>
        <pt x="259" y="531" on="1"/>
        <pt x="211" y="531" on="1"/>
        <pt x="184" y="531" on="0"/>
        <pt x="184" y="506" on="1"/>
        <pt x="184" y="130" on="1"/>
        <pt x="184" y="105" on="0"/>
        <pt x="211" y="105" on="1"/>
        <pt x="259" y="105" on="1"/>
        <pt x="285" y="105" on="0"/>
      </contour>
      <contour>
        <pt x="324" y="811" on="1"/>
        <pt x="201" y="668" on="1"/>
        <pt x="107" y="668" on="1"/>
        <pt x="199" y="811" on="1"/>
      </contour>
      <contour>
        <pt x="364" y="668" on="1"/>
        <pt x="270" y="668" on="1"/>
        <pt x="362" y="811" on="1"/>
        <pt x="487" y="811" on="1"/>
      </contour>
    </TTGlyph>
    <TTGlyph name="Omacron" xMin="41" yMin="0" xMax="428" yMax="760">
      <contour>
        <pt x="168" y="636" on="1"/>
        <pt x="302" y="636" on="1"/>
        <pt x="428" y="636" on="0"/>
        <pt x="428" y="526" on="1"/>
        <pt x="428" y="111" on="1"/>
        <pt x="428" y="0" on="0"/>
        <pt x="302" y="0" on="1"/>
        <pt x="168" y="0" on="1"/>
        <pt x="41" y="0" on="0"/>
        <pt x="41" y="111" on="1"/>
        <pt x="41" y="526" on="1"/>
        <pt x="41" y="636" on="0"/>
      </contour>
      <contour>
        <pt x="285" y="130" on="1"/>
        <pt x="285" y="506" on="1"/>
        <pt x="285" y="531" on="0"/>
        <pt x="259" y="531" on="1"/>
        <pt x="211" y="531" on="1"/>
        <pt x="184" y="531" on="0"/>
        <pt x="184" y="506" on="1"/>
        <pt x="184" y="130" on="1"/>
        <pt x="184" y="105" on="0"/>
        <pt x="211" y="105" on="1"/>
        <pt x="259" y="105" on="1"/>
        <pt x="285" y="105" on="0"/>
      </contour>
      <contour>
        <pt x="406" y="760" on="1"/>
        <pt x="406" y="669" on="1"/>
        <pt x="63" y="669" on="1"/>
        <pt x="63" y="760" on="1"/>
      </contour>
    </TTGlyph>
    <TTGlyph name="Oslash" xMin="38" yMin="-20" xMax="439" yMax="656">
      <contour>
        <pt x="430" y="526" on="1"/>
        <pt x="430" y="111" on="1"/>
        <pt x="430" y="0" on="0"/>
        <pt x="303" y="0" on="1"/>
        <pt x="169" y="0" on="1"/>
        <pt x="140" y="0" on="0"/>
        <pt x="117" y="6" on="1"/>
        <pt x="104" y="-20" on="1"/>
        <pt x="38" y="-20" on="1"/>
        <pt x="66" y="36" on="1"/>
        <pt x="42" y="61" on="0"/>
        <pt x="42" y="111" on="1"/>
        <pt x="42" y="526" on="1"/>
        <pt x="42" y="636" on="0"/>
        <pt x="169" y="636" on="1"/>
        <pt x="303" y="636" on="1"/>
        <pt x="338" y="636" on="0"/>
        <pt x="360" y="629" on="1"/>
        <pt x="373" y="656" on="1"/>
        <pt x="439" y="656" on="1"/>
        <pt x="410" y="597" on="1"/>
        <pt x="430" y="570" on="0"/>
      </contour>
      <contour>
        <pt x="178" y="514" on="1"/>
        <pt x="178" y="263" on="1"/>
        <pt x="294" y="497" on="1"/>
        <pt x="294" y="514" on="1"/>
        <pt x="294" y="539" on="0"/>
        <pt x="267" y="539" on="1"/>
        <pt x="205" y="539" on="1"/>
        <pt x="178" y="539" on="0"/>
      </contour>
      <contour>
        <pt x="294" y="122" on="1"/>
        <pt x="294" y="363" on="1"/>
        <pt x="178" y="129" on="1"/>
        <pt x="178" y="122" on="1"/>
        <pt x="178" y="97" on="0"/>
        <pt x="205" y="97" on="1"/>
        <pt x="267" y="97" on="1"/>
        <pt x="294" y="97" on="0"/>
      </contour>
    </TTGlyph>
    <TTGlyph name="Otilde" xMin="41" yMin="0" xMax="428" yMax="801">
      <contour>
        <pt x="168" y="636" on="1"/>
        <pt x="302" y="636" on="1"/>
        <pt x="428" y="636" on="0"/>
        <pt x="428" y="526" on="1"/>
        <pt x="428" y="111" on="1"/>
        <pt x="428" y="0" on="0"/>
        <pt x="302" y="0" on="1"/>
        <pt x="168" y="0" on="1"/>
        <pt x="41" y="0" on="0"/>
        <pt x="41" y="111" on="1"/>
        <pt x="41" y="526" on="1"/>
        <pt x="41" y="636" on="0"/>
      </contour>
      <contour>
        <pt x="285" y="130" on="1"/>
        <pt x="285" y="506" on="1"/>
        <pt x="285" y="531" on="0"/>
        <pt x="259" y="531" on="1"/>
        <pt x="211" y="531" on="1"/>
        <pt x="184" y="531" on="0"/>
        <pt x="184" y="506" on="1"/>
        <pt x="184" y="130" on="1"/>
        <pt x="184" y="105" on="0"/>
        <pt x="211" y="105" on="1"/>
        <pt x="259" y="105" on="1"/>
        <pt x="285" y="105" on="0"/>
      </contour>
      <contour>
        <pt x="171" y="694" on="1"/>
        <pt x="171" y="669" on="1"/>
        <pt x="58" y="669" on="1"/>
        <pt x="58" y="711" on="1"/>
        <pt x="58" y="755" on="0"/>
        <pt x="99" y="801" on="0"/>
        <pt x="149" y="801" on="1"/>
        <pt x="164" y="801" on="1"/>
        <pt x="194" y="801" on="0"/>
        <pt x="269" y="754" on="0"/>
        <pt x="276" y="754" on="1"/>
        <pt x="295" y="754" on="0"/>
        <pt x="295" y="776" on="1"/>
        <pt x="295" y="801" on="1"/>
        <pt x="408" y="801" on="1"/>
        <pt x="408" y="754" on="1"/>
        <pt x="408" y="711" on="0"/>
        <pt x="367" y="669" on="0"/>
        <pt x="316" y="669" on="1"/>
        <pt x="302" y="669" on="1"/>
        <pt x="272" y="669" on="0"/>
        <pt x="196" y="716" on="0"/>
        <pt x="188" y="716" on="1"/>
        <pt x="171" y="716" on="0"/>
      </contour>
    </TTGlyph>
    <TTGlyph name="P" xMin="45" yMin="0" xMax="433" yMax="636">
      <contour>
        <pt x="45" y="636" on="1"/>
        <pt x="307" y="636" on="1"/>
        <pt x="433" y="636" on="0"/>
        <pt x="433" y="526" on="1"/>
        <pt x="433" y="333" on="1"/>
        <pt x="433" y="222" on="0"/>
        <pt x="307" y="222" on="1"/>
        <pt x="187" y="222" on="1"/>
        <pt x="187" y="0" on="1"/>
        <pt x="45" y="0" on="1"/>
      </contour>
      <contour>
        <pt x="290" y="352" on="1"/>
        <pt x="290" y="506" on="1"/>
        <pt x="290" y="531" on="0"/>
        <pt x="264" y="531" on="1"/>
        <pt x="187" y="531" on="1"/>
        <pt x="187" y="327" on="1"/>
        <pt x="264" y="327" on="1"/>
        <pt x="290" y="327" on="0"/>
      </contour>
    </TTGlyph>
    <TTGlyph name="Q" xMin="41" yMin="-77" xMax="468" yMax="636">
      <contour>
        <pt x="168" y="0" on="1"/>
        <pt x="41" y="0" on="0"/>
        <pt x="41" y="111" on="1"/>
        <pt x="41" y="526" on="1"/>
        <pt x="41" y="636" on="0"/>
        <pt x="168" y="636" on="1"/>
        <pt x="302" y="636" on="1"/>
        <pt x="428" y="636" on="0"/>
        <pt x="428" y="526" on="1"/>
        <pt x="428" y="111" on="1"/>
        <pt x="428" y="45" on="0"/>
        <pt x="385" y="18" on="1"/>
        <pt x="468" y="-77" on="1"/>
        <pt x="309" y="-77" on="1"/>
        <pt x="243" y="0" on="1"/>
      </contour>
      <contour>
        <pt x="184" y="506" on="1"/>
        <pt x="184" y="130" on="1"/>
        <pt x="184" y="105" on="0"/>
        <pt x="211" y="105" on="1"/>
        <pt x="259" y="105" on="1"/>
        <pt x="285" y="105" on="0"/>
        <pt x="285" y="130" on="1"/>
        <pt x="285" y="506" on="1"/>
        <pt x="285" y="531" on="0"/>
        <pt x="259" y="531" on="1"/>
        <pt x="211" y="531" on="1"/>
        <pt x="184" y="531" on="0"/>
      </contour>
    </TTGlyph>
    <TTGlyph name="R" xMin="45" yMin="0" xMax="465" yMax="636">
      <contour>
        <pt x="187" y="238" on="1"/>
        <pt x="187" y="0" on="1"/>
        <pt x="45" y="0" on="1"/>
        <pt x="45" y="636" on="1"/>
        <pt x="307" y="636" on="1"/>
        <pt x="433" y="636" on="0"/>
        <pt x="433" y="526" on="1"/>
        <pt x="433" y="348" on="1"/>
        <pt x="433" y="260" on="0"/>
        <pt x="353" y="242" on="1"/>
        <pt x="465" y="0" on="1"/>
        <pt x="312" y="0" on="1"/>
        <pt x="212" y="238" on="1"/>
      </contour>
      <contour>
        <pt x="187" y="531" on="1"/>
        <pt x="187" y="339" on="1"/>
        <pt x="264" y="339" on="1"/>
        <pt x="278" y="339" on="0"/>
        <pt x="290" y="350" on="0"/>
        <pt x="290" y="363" on="1"/>
        <pt x="290" y="506" on="1"/>
        <pt x="290" y="531" on="0"/>
        <pt x="264" y="531" on="1"/>
      </contour>
    </TTGlyph>
    <TTGlyph name="Racute" xMin="45" yMin="0" xMax="465" yMax="811">
      <contour>
        <pt x="187" y="238" on="1"/>
        <pt x="187" y="0" on="1"/>
        <pt x="45" y="0" on="1"/>
        <pt x="45" y="636" on="1"/>
        <pt x="307" y="636" on="1"/>
        <pt x="433" y="636" on="0"/>
        <pt x="433" y="526" on="1"/>
        <pt x="433" y="348" on="1"/>
        <pt x="433" y="260" on="0"/>
        <pt x="353" y="242" on="1"/>
        <pt x="465" y="0" on="1"/>
        <pt x="312" y="0" on="1"/>
        <pt x="212" y="238" on="1"/>
      </contour>
      <contour>
        <pt x="187" y="531" on="1"/>
        <pt x="187" y="339" on="1"/>
        <pt x="264" y="339" on="1"/>
        <pt x="278" y="339" on="0"/>
        <pt x="290" y="350" on="0"/>
        <pt x="290" y="363" on="1"/>
        <pt x="290" y="506" on="1"/>
        <pt x="290" y="531" on="0"/>
        <pt x="264" y="531" on="1"/>
      </contour>
      <contour>
        <pt x="403" y="811" on="1"/>
        <pt x="280" y="668" on="1"/>
        <pt x="168" y="668" on="1"/>
        <pt x="259" y="811" on="1"/>
      </contour>
    </TTGlyph>
    <TTGlyph name="Rcaron" xMin="45" yMin="0" xMax="465" yMax="811">
      <contour>
        <pt x="187" y="238" on="1"/>
        <pt x="187" y="0" on="1"/>
        <pt x="45" y="0" on="1"/>
        <pt x="45" y="636" on="1"/>
        <pt x="307" y="636" on="1"/>
        <pt x="433" y="636" on="0"/>
        <pt x="433" y="526" on="1"/>
        <pt x="433" y="348" on="1"/>
        <pt x="433" y="260" on="0"/>
        <pt x="353" y="242" on="1"/>
        <pt x="465" y="0" on="1"/>
        <pt x="312" y="0" on="1"/>
        <pt x="212" y="238" on="1"/>
      </contour>
      <contour>
        <pt x="187" y="531" on="1"/>
        <pt x="187" y="339" on="1"/>
        <pt x="264" y="339" on="1"/>
        <pt x="278" y="339" on="0"/>
        <pt x="290" y="350" on="0"/>
        <pt x="290" y="363" on="1"/>
        <pt x="290" y="506" on="1"/>
        <pt x="290" y="531" on="0"/>
        <pt x="264" y="531" on="1"/>
      </contour>
      <contour>
        <pt x="299" y="668" on="1"/>
        <pt x="165" y="668" on="1"/>
        <pt x="46" y="811" on="1"/>
        <pt x="179" y="811" on="1"/>
        <pt x="232" y="738" on="1"/>
        <pt x="285" y="811" on="1"/>
        <pt x="417" y="811" on="1"/>
      </contour>
    </TTGlyph>
    <TTGlyph name="S" xMin="33" yMin="0" xMax="409" yMax="636">
      <contour>
        <pt x="266" y="130" on="1"/>
        <pt x="266" y="245" on="1"/>
        <pt x="266" y="258" on="0"/>
        <pt x="254" y="269" on="0"/>
        <pt x="239" y="269" on="1"/>
        <pt x="151" y="269" on="1"/>
        <pt x="33" y="269" on="0"/>
        <pt x="33" y="381" on="1"/>
        <pt x="33" y="526" on="1"/>
        <pt x="33" y="636" on="0"/>
        <pt x="159" y="636" on="1"/>
        <pt x="281" y="636" on="1"/>
        <pt x="407" y="636" on="0"/>
        <pt x="407" y="526" on="1"/>
        <pt x="407" y="443" on="1"/>
        <pt x="264" y="443" on="1"/>
        <pt x="264" y="506" on="1"/>
        <pt x="264" y="531" on="0"/>
        <pt x="237" y="531" on="1"/>
        <pt x="203" y="531" on="1"/>
        <pt x="176" y="531" on="0"/>
        <pt x="176" y="506" on="1"/>
        <pt x="176" y="394" on="1"/>
        <pt x="176" y="381" on="0"/>
        <pt x="188" y="370" on="0"/>
        <pt x="203" y="370" on="1"/>
        <pt x="289" y="370" on="1"/>
        <pt x="353" y="370" on="0"/>
        <pt x="409" y="315" on="0"/>
        <pt x="409" y="261" on="1"/>
        <pt x="409" y="111" on="1"/>
        <pt x="409" y="0" on="0"/>
        <pt x="283" y="0" on="1"/>
        <pt x="162" y="0" on="1"/>
        <pt x="35" y="0" on="0"/>
        <pt x="35" y="111" on="1"/>
        <pt x="35" y="193" on="1"/>
        <pt x="178" y="193" on="1"/>
        <pt x="178" y="130" on="1"/>
        <pt x="178" y="105" on="0"/>
        <pt x="205" y="105" on="1"/>
        <pt x="239" y="105" on="1"/>
        <pt x="266" y="105" on="0"/>
      </contour>
    </TTGlyph>
    <TTGlyph name="Sacute" xMin="33" yMin="0" xMax="409" yMax="811">
      <contour>
        <pt x="266" y="130" on="1"/>
        <pt x="266" y="245" on="1"/>
        <pt x="266" y="258" on="0"/>
        <pt x="254" y="269" on="0"/>
        <pt x="239" y="269" on="1"/>
        <pt x="151" y="269" on="1"/>
        <pt x="33" y="269" on="0"/>
        <pt x="33" y="381" on="1"/>
        <pt x="33" y="526" on="1"/>
        <pt x="33" y="636" on="0"/>
        <pt x="159" y="636" on="1"/>
        <pt x="281" y="636" on="1"/>
        <pt x="407" y="636" on="0"/>
        <pt x="407" y="526" on="1"/>
        <pt x="407" y="443" on="1"/>
        <pt x="264" y="443" on="1"/>
        <pt x="264" y="506" on="1"/>
        <pt x="264" y="531" on="0"/>
        <pt x="237" y="531" on="1"/>
        <pt x="203" y="531" on="1"/>
        <pt x="176" y="531" on="0"/>
        <pt x="176" y="506" on="1"/>
        <pt x="176" y="394" on="1"/>
        <pt x="176" y="381" on="0"/>
        <pt x="188" y="370" on="0"/>
        <pt x="203" y="370" on="1"/>
        <pt x="289" y="370" on="1"/>
        <pt x="353" y="370" on="0"/>
        <pt x="409" y="315" on="0"/>
        <pt x="409" y="261" on="1"/>
        <pt x="409" y="111" on="1"/>
        <pt x="409" y="0" on="0"/>
        <pt x="283" y="0" on="1"/>
        <pt x="162" y="0" on="1"/>
        <pt x="35" y="0" on="0"/>
        <pt x="35" y="111" on="1"/>
        <pt x="35" y="193" on="1"/>
        <pt x="178" y="193" on="1"/>
        <pt x="178" y="130" on="1"/>
        <pt x="178" y="105" on="0"/>
        <pt x="205" y="105" on="1"/>
        <pt x="239" y="105" on="1"/>
        <pt x="266" y="105" on="0"/>
      </contour>
      <contour>
        <pt x="174" y="668" on="1"/>
        <pt x="265" y="811" on="1"/>
        <pt x="409" y="811" on="1"/>
        <pt x="286" y="668" on="1"/>
      </contour>
    </TTGlyph>
    <TTGlyph name="Scaron" xMin="33" yMin="0" xMax="409" yMax="811">
      <contour>
        <pt x="266" y="130" on="1"/>
        <pt x="266" y="245" on="1"/>
        <pt x="266" y="258" on="0"/>
        <pt x="254" y="269" on="0"/>
        <pt x="239" y="269" on="1"/>
        <pt x="151" y="269" on="1"/>
        <pt x="33" y="269" on="0"/>
        <pt x="33" y="381" on="1"/>
        <pt x="33" y="526" on="1"/>
        <pt x="33" y="636" on="0"/>
        <pt x="159" y="636" on="1"/>
        <pt x="281" y="636" on="1"/>
        <pt x="407" y="636" on="0"/>
        <pt x="407" y="526" on="1"/>
        <pt x="407" y="443" on="1"/>
        <pt x="264" y="443" on="1"/>
        <pt x="264" y="506" on="1"/>
        <pt x="264" y="531" on="0"/>
        <pt x="237" y="531" on="1"/>
        <pt x="203" y="531" on="1"/>
        <pt x="176" y="531" on="0"/>
        <pt x="176" y="506" on="1"/>
        <pt x="176" y="394" on="1"/>
        <pt x="176" y="381" on="0"/>
        <pt x="188" y="370" on="0"/>
        <pt x="203" y="370" on="1"/>
        <pt x="289" y="370" on="1"/>
        <pt x="353" y="370" on="0"/>
        <pt x="409" y="315" on="0"/>
        <pt x="409" y="261" on="1"/>
        <pt x="409" y="111" on="1"/>
        <pt x="409" y="0" on="0"/>
        <pt x="283" y="0" on="1"/>
        <pt x="162" y="0" on="1"/>
        <pt x="35" y="0" on="0"/>
        <pt x="35" y="111" on="1"/>
        <pt x="35" y="193" on="1"/>
        <pt x="178" y="193" on="1"/>
        <pt x="178" y="130" on="1"/>
        <pt x="178" y="105" on="0"/>
        <pt x="205" y="105" on="1"/>
        <pt x="239" y="105" on="1"/>
        <pt x="266" y="105" on="0"/>
      </contour>
      <contour>
        <pt x="154" y="668" on="1"/>
        <pt x="35" y="811" on="1"/>
        <pt x="168" y="811" on="1"/>
        <pt x="221" y="738" on="1"/>
        <pt x="274" y="811" on="1"/>
        <pt x="406" y="811" on="1"/>
        <pt x="288" y="668" on="1"/>
      </contour>
    </TTGlyph>
    <TTGlyph name="T" xMin="5" yMin="0" xMax="381" yMax="636">
      <contour>
        <pt x="381" y="636" on="1"/>
        <pt x="381" y="531" on="1"/>
        <pt x="264" y="531" on="1"/>
        <pt x="264" y="0" on="1"/>
        <pt x="121" y="0" on="1"/>
        <pt x="121" y="531" on="1"/>
        <pt x="5" y="531" on="1"/>
        <pt x="5" y="636" on="1"/>
      </contour>
    </TTGlyph>
    <TTGlyph name="Tcaron" xMin="5" yMin="0" xMax="381" yMax="811">
      <contour>
        <pt x="381" y="636" on="1"/>
        <pt x="381" y="531" on="1"/>
        <pt x="264" y="531" on="1"/>
        <pt x="264" y="0" on="1"/>
        <pt x="121" y="0" on="1"/>
        <pt x="121" y="531" on="1"/>
        <pt x="5" y="531" on="1"/>
        <pt x="5" y="636" on="1"/>
      </contour>
      <contour>
        <pt x="258" y="668" on="1"/>
        <pt x="124" y="668" on="1"/>
        <pt x="5" y="811" on="1"/>
        <pt x="138" y="811" on="1"/>
        <pt x="191" y="738" on="1"/>
        <pt x="244" y="811" on="1"/>
        <pt x="376" y="811" on="1"/>
      </contour>
    </TTGlyph>
    <TTGlyph name="Thorn" xMin="48" yMin="0" xMax="430" yMax="636">
      <contour>
        <pt x="191" y="517" on="1"/>
        <pt x="303" y="517" on="1"/>
        <pt x="430" y="517" on="0"/>
        <pt x="430" y="407" on="1"/>
        <pt x="430" y="229" on="1"/>
        <pt x="430" y="118" on="0"/>
        <pt x="303" y="118" on="1"/>
        <pt x="191" y="118" on="1"/>
        <pt x="191" y="0" on="1"/>
        <pt x="48" y="0" on="1"/>
        <pt x="48" y="636" on="1"/>
        <pt x="191" y="636" on="1"/>
      </contour>
      <contour>
        <pt x="287" y="244" on="1"/>
        <pt x="287" y="391" on="1"/>
        <pt x="287" y="416" on="0"/>
        <pt x="260" y="416" on="1"/>
        <pt x="191" y="416" on="1"/>
        <pt x="191" y="220" on="1"/>
        <pt x="260" y="220" on="1"/>
        <pt x="275" y="220" on="0"/>
        <pt x="287" y="231" on="0"/>
      </contour>
    </TTGlyph>
    <TTGlyph name="U" xMin="44" yMin="0" xMax="431" yMax="636">
      <contour>
        <pt x="288" y="636" on="1"/>
        <pt x="431" y="636" on="1"/>
        <pt x="431" y="111" on="1"/>
        <pt x="431" y="0" on="0"/>
        <pt x="304" y="0" on="1"/>
        <pt x="170" y="0" on="1"/>
        <pt x="44" y="0" on="0"/>
        <pt x="44" y="111" on="1"/>
        <pt x="44" y="636" on="1"/>
        <pt x="187" y="636" on="1"/>
        <pt x="187" y="130" on="1"/>
        <pt x="187" y="105" on="0"/>
        <pt x="213" y="105" on="1"/>
        <pt x="261" y="105" on="1"/>
        <pt x="288" y="105" on="0"/>
        <pt x="288" y="130" on="1"/>
      </contour>
    </TTGlyph>
    <TTGlyph name="Uacute" xMin="44" yMin="0" xMax="431" yMax="811">
      <contour>
        <pt x="288" y="636" on="1"/>
        <pt x="431" y="636" on="1"/>
        <pt x="431" y="111" on="1"/>
        <pt x="431" y="0" on="0"/>
        <pt x="304" y="0" on="1"/>
        <pt x="170" y="0" on="1"/>
        <pt x="44" y="0" on="0"/>
        <pt x="44" y="111" on="1"/>
        <pt x="44" y="636" on="1"/>
        <pt x="187" y="636" on="1"/>
        <pt x="187" y="130" on="1"/>
        <pt x="187" y="105" on="0"/>
        <pt x="213" y="105" on="1"/>
        <pt x="261" y="105" on="1"/>
        <pt x="288" y="105" on="0"/>
        <pt x="288" y="130" on="1"/>
      </contour>
      <contour>
        <pt x="411" y="811" on="1"/>
        <pt x="288" y="668" on="1"/>
        <pt x="176" y="668" on="1"/>
        <pt x="267" y="811" on="1"/>
      </contour>
    </TTGlyph>
    <TTGlyph name="Ucircumflex" xMin="44" yMin="0" xMax="431" yMax="811">
      <contour>
        <pt x="288" y="636" on="1"/>
        <pt x="431" y="636" on="1"/>
        <pt x="431" y="111" on="1"/>
        <pt x="431" y="0" on="0"/>
        <pt x="304" y="0" on="1"/>
        <pt x="170" y="0" on="1"/>
        <pt x="44" y="0" on="0"/>
        <pt x="44" y="111" on="1"/>
        <pt x="44" y="636" on="1"/>
        <pt x="187" y="636" on="1"/>
        <pt x="187" y="130" on="1"/>
        <pt x="187" y="105" on="0"/>
        <pt x="213" y="105" on="1"/>
        <pt x="261" y="105" on="1"/>
        <pt x="288" y="105" on="0"/>
        <pt x="288" y="130" on="1"/>
      </contour>
      <contour>
        <pt x="237" y="742" on="1"/>
        <pt x="184" y="668" on="1"/>
        <pt x="51" y="668" on="1"/>
        <pt x="170" y="811" on="1"/>
        <pt x="304" y="811" on="1"/>
        <pt x="422" y="668" on="1"/>
        <pt x="290" y="668" on="1"/>
      </contour>
    </TTGlyph>
    <TTGlyph name="Udieresis" xMin="44" yMin="0" xMax="431" yMax="785">
      <contour>
        <pt x="288" y="636" on="1"/>
        <pt x="431" y="636" on="1"/>
        <pt x="431" y="111" on="1"/>
        <pt x="431" y="0" on="0"/>
        <pt x="304" y="0" on="1"/>
        <pt x="170" y="0" on="1"/>
        <pt x="44" y="0" on="0"/>
        <pt x="44" y="111" on="1"/>
        <pt x="44" y="636" on="1"/>
        <pt x="187" y="636" on="1"/>
        <pt x="187" y="130" on="1"/>
        <pt x="187" y="105" on="0"/>
        <pt x="213" y="105" on="1"/>
        <pt x="261" y="105" on="1"/>
        <pt x="288" y="105" on="0"/>
        <pt x="288" y="130" on="1"/>
      </contour>
      <contour>
        <pt x="193" y="785" on="1"/>
        <pt x="193" y="669" on="1"/>
        <pt x="60" y="669" on="1"/>
        <pt x="60" y="785" on="1"/>
      </contour>
      <contour>
        <pt x="414" y="785" on="1"/>
        <pt x="414" y="669" on="1"/>
        <pt x="281" y="669" on="1"/>
        <pt x="281" y="785" on="1"/>
      </contour>
    </TTGlyph>
    <TTGlyph name="Ugrave" xMin="44" yMin="0" xMax="431" yMax="811">
      <contour>
        <pt x="288" y="636" on="1"/>
        <pt x="431" y="636" on="1"/>
        <pt x="431" y="111" on="1"/>
        <pt x="431" y="0" on="0"/>
        <pt x="304" y="0" on="1"/>
        <pt x="170" y="0" on="1"/>
        <pt x="44" y="0" on="0"/>
        <pt x="44" y="111" on="1"/>
        <pt x="44" y="636" on="1"/>
        <pt x="187" y="636" on="1"/>
        <pt x="187" y="130" on="1"/>
        <pt x="187" y="105" on="0"/>
        <pt x="213" y="105" on="1"/>
        <pt x="261" y="105" on="1"/>
        <pt x="288" y="105" on="0"/>
        <pt x="288" y="130" on="1"/>
      </contour>
      <contour>
        <pt x="292" y="668" on="1"/>
        <pt x="180" y="668" on="1"/>
        <pt x="58" y="811" on="1"/>
        <pt x="201" y="811" on="1"/>
      </contour>
    </TTGlyph>
    <TTGlyph name="Uhungarumlaut" xMin="44" yMin="0" xMax="481" yMax="811">
      <contour>
        <pt x="288" y="130" on="1"/>
        <pt x="288" y="636" on="1"/>
        <pt x="431" y="636" on="1"/>
        <pt x="431" y="111" on="1"/>
        <pt x="431" y="0" on="0"/>
        <pt x="304" y="0" on="1"/>
        <pt x="170" y="0" on="1"/>
        <pt x="44" y="0" on="0"/>
        <pt x="44" y="111" on="1"/>
        <pt x="44" y="636" on="1"/>
        <pt x="187" y="636" on="1"/>
        <pt x="187" y="130" on="1"/>
        <pt x="187" y="105" on="0"/>
        <pt x="213" y="105" on="1"/>
        <pt x="261" y="105" on="1"/>
        <pt x="288" y="105" on="0"/>
      </contour>
      <contour>
        <pt x="318" y="811" on="1"/>
        <pt x="195" y="668" on="1"/>
        <pt x="101" y="668" on="1"/>
        <pt x="193" y="811" on="1"/>
      </contour>
      <contour>
        <pt x="358" y="668" on="1"/>
        <pt x="264" y="668" on="1"/>
        <pt x="356" y="811" on="1"/>
        <pt x="481" y="811" on="1"/>
      </contour>
    </TTGlyph>
    <TTGlyph name="Umacron" xMin="44" yMin="0" xMax="431" yMax="760">
      <contour>
        <pt x="288" y="636" on="1"/>
        <pt x="431" y="636" on="1"/>
        <pt x="431" y="111" on="1"/>
        <pt x="431" y="0" on="0"/>
        <pt x="304" y="0" on="1"/>
        <pt x="170" y="0" on="1"/>
        <pt x="44" y="0" on="0"/>
        <pt x="44" y="111" on="1"/>
        <pt x="44" y="636" on="1"/>
        <pt x="187" y="636" on="1"/>
        <pt x="187" y="130" on="1"/>
        <pt x="187" y="105" on="0"/>
        <pt x="213" y="105" on="1"/>
        <pt x="261" y="105" on="1"/>
        <pt x="288" y="105" on="0"/>
        <pt x="288" y="130" on="1"/>
      </contour>
      <contour>
        <pt x="409" y="760" on="1"/>
        <pt x="409" y="669" on="1"/>
        <pt x="66" y="669" on="1"/>
        <pt x="66" y="760" on="1"/>
      </contour>
    </TTGlyph>
    <TTGlyph name="Uogonek" xMin="44" yMin="-255" xMax="431" yMax="636">
      <contour>
        <pt x="288" y="636" on="1"/>
        <pt x="431" y="636" on="1"/>
        <pt x="431" y="111" on="1"/>
        <pt x="431" y="0" on="0"/>
        <pt x="304" y="0" on="1"/>
        <pt x="289" y="0" on="1"/>
        <pt x="289" y="-103" on="1"/>
        <pt x="220" y="-103" on="1"/>
        <pt x="206" y="-103" on="0"/>
        <pt x="195" y="-113" on="0"/>
        <pt x="195" y="-125" on="1"/>
        <pt x="195" y="-150" on="1"/>
        <pt x="195" y="-162" on="0"/>
        <pt x="206" y="-171" on="0"/>
        <pt x="220" y="-171" on="1"/>
        <pt x="307" y="-171" on="1"/>
        <pt x="307" y="-255" on="1"/>
        <pt x="199" y="-255" on="1"/>
        <pt x="142" y="-255" on="0"/>
        <pt x="94" y="-206" on="0"/>
        <pt x="94" y="-158" on="1"/>
        <pt x="94" y="-116" on="1"/>
        <pt x="94" y="-68" on="0"/>
        <pt x="142" y="-19" on="0"/>
        <pt x="199" y="-19" on="1"/>
        <pt x="205" y="-19" on="1"/>
        <pt x="205" y="0" on="1"/>
        <pt x="170" y="0" on="1"/>
        <pt x="44" y="0" on="0"/>
        <pt x="44" y="111" on="1"/>
        <pt x="44" y="636" on="1"/>
        <pt x="187" y="636" on="1"/>
        <pt x="187" y="130" on="1"/>
        <pt x="187" y="105" on="0"/>
        <pt x="213" y="105" on="1"/>
        <pt x="261" y="105" on="1"/>
        <pt x="288" y="105" on="0"/>
        <pt x="288" y="130" on="1"/>
      </contour>
    </TTGlyph>
    <TTGlyph name="Uring" xMin="44" yMin="0" xMax="431" yMax="848">
      <contour>
        <pt x="288" y="636" on="1"/>
        <pt x="431" y="636" on="1"/>
        <pt x="431" y="111" on="1"/>
        <pt x="431" y="0" on="0"/>
        <pt x="304" y="0" on="1"/>
        <pt x="170" y="0" on="1"/>
        <pt x="44" y="0" on="0"/>
        <pt x="44" y="111" on="1"/>
        <pt x="44" y="636" on="1"/>
        <pt x="187" y="636" on="1"/>
        <pt x="187" y="130" on="1"/>
        <pt x="187" y="105" on="0"/>
        <pt x="213" y="105" on="1"/>
        <pt x="261" y="105" on="1"/>
        <pt x="288" y="105" on="0"/>
        <pt x="288" y="130" on="1"/>
      </contour>
      <contour>
        <pt x="276" y="668" on="1"/>
        <pt x="198" y="668" on="1"/>
        <pt x="107" y="668" on="0"/>
        <pt x="107" y="750" on="1"/>
        <pt x="107" y="766" on="1"/>
        <pt x="107" y="848" on="0"/>
        <pt x="198" y="848" on="1"/>
        <pt x="276" y="848" on="1"/>
        <pt x="367" y="848" on="0"/>
        <pt x="367" y="766" on="1"/>
        <pt x="367" y="750" on="1"/>
        <pt x="367" y="668" on="0"/>
      </contour>
      <contour>
        <pt x="197" y="763" on="1"/>
        <pt x="197" y="752" on="1"/>
        <pt x="197" y="740" on="0"/>
        <pt x="206" y="731" on="0"/>
        <pt x="219" y="731" on="1"/>
        <pt x="255" y="731" on="1"/>
        <pt x="268" y="731" on="0"/>
        <pt x="278" y="740" on="0"/>
        <pt x="278" y="752" on="1"/>
        <pt x="278" y="763" on="1"/>
        <pt x="278" y="775" on="0"/>
        <pt x="268" y="785" on="0"/>
        <pt x="255" y="785" on="1"/>
        <pt x="219" y="785" on="1"/>
        <pt x="206" y="785" on="0"/>
        <pt x="197" y="775" on="0"/>
      </contour>
    </TTGlyph>
    <TTGlyph name="V" xMin="6" yMin="0" xMax="462" yMax="636">
      <contour>
        <pt x="314" y="636" on="1"/>
        <pt x="462" y="636" on="1"/>
        <pt x="322" y="0" on="1"/>
        <pt x="147" y="0" on="1"/>
        <pt x="6" y="636" on="1"/>
        <pt x="155" y="636" on="1"/>
        <pt x="234" y="164" on="1"/>
      </contour>
    </TTGlyph>
    <TTGlyph name="W" xMin="10" yMin="0" xMax="740" yMax="636">
      <contour>
        <pt x="598" y="636" on="1"/>
        <pt x="740" y="636" on="1"/>
        <pt x="617" y="0" on="1"/>
        <pt x="446" y="0" on="1"/>
        <pt x="375" y="416" on="1"/>
        <pt x="304" y="0" on="1"/>
        <pt x="133" y="0" on="1"/>
        <pt x="10" y="636" on="1"/>
        <pt x="158" y="636" on="1"/>
        <pt x="218" y="161" on="1"/>
        <pt x="302" y="636" on="1"/>
        <pt x="447" y="636" on="1"/>
        <pt x="531" y="161" on="1"/>
      </contour>
    </TTGlyph>
    <TTGlyph name="X" xMin="2" yMin="0" xMax="463" yMax="636">
      <contour>
        <pt x="309" y="324" on="1"/>
        <pt x="463" y="0" on="1"/>
        <pt x="303" y="0" on="1"/>
        <pt x="229" y="202" on="1"/>
        <pt x="154" y="0" on="1"/>
        <pt x="2" y="0" on="1"/>
        <pt x="149" y="324" on="1"/>
        <pt x="7" y="636" on="1"/>
        <pt x="168" y="636" on="1"/>
        <pt x="229" y="449" on="1"/>
        <pt x="290" y="636" on="1"/>
        <pt x="444" y="636" on="1"/>
      </contour>
    </TTGlyph>
    <TTGlyph name="Y" xMin="2" yMin="0" xMax="458" yMax="636">
      <contour>
        <pt x="305" y="0" on="1"/>
        <pt x="162" y="0" on="1"/>
        <pt x="162" y="206" on="1"/>
        <pt x="2" y="636" on="1"/>
        <pt x="148" y="636" on="1"/>
        <pt x="233" y="337" on="1"/>
        <pt x="312" y="636" on="1"/>
        <pt x="458" y="636" on="1"/>
        <pt x="305" y="205" on="1"/>
      </contour>
    </TTGlyph>
    <TTGlyph name="Yacute" xMin="2" yMin="0" xMax="458" yMax="811">
      <contour>
        <pt x="305" y="0" on="1"/>
        <pt x="162" y="0" on="1"/>
        <pt x="162" y="206" on="1"/>
        <pt x="2" y="636" on="1"/>
        <pt x="148" y="636" on="1"/>
        <pt x="233" y="337" on="1"/>
        <pt x="312" y="636" on="1"/>
        <pt x="458" y="636" on="1"/>
        <pt x="305" y="205" on="1"/>
      </contour>
      <contour>
        <pt x="405" y="811" on="1"/>
        <pt x="282" y="668" on="1"/>
        <pt x="170" y="668" on="1"/>
        <pt x="261" y="811" on="1"/>
      </contour>
    </TTGlyph>
    <TTGlyph name="Ydieresis" xMin="2" yMin="0" xMax="458" yMax="797">
      <contour>
        <pt x="305" y="0" on="1"/>
        <pt x="162" y="0" on="1"/>
        <pt x="162" y="206" on="1"/>
        <pt x="2" y="636" on="1"/>
        <pt x="148" y="636" on="1"/>
        <pt x="233" y="337" on="1"/>
        <pt x="312" y="636" on="1"/>
        <pt x="458" y="636" on="1"/>
        <pt x="305" y="205" on="1"/>
      </contour>
      <contour>
        <pt x="180" y="797" on="1"/>
        <pt x="180" y="681" on="1"/>
        <pt x="47" y="681" on="1"/>
        <pt x="47" y="797" on="1"/>
      </contour>
      <contour>
        <pt x="401" y="797" on="1"/>
        <pt x="401" y="681" on="1"/>
        <pt x="268" y="681" on="1"/>
        <pt x="268" y="797" on="1"/>
      </contour>
    </TTGlyph>
    <TTGlyph name="Z" xMin="16" yMin="0" xMax="391" yMax="636">
      <contour>
        <pt x="391" y="636" on="1"/>
        <pt x="391" y="531" on="1"/>
        <pt x="164" y="105" on="1"/>
        <pt x="385" y="105" on="1"/>
        <pt x="385" y="0" on="1"/>
        <pt x="16" y="0" on="1"/>
        <pt x="16" y="105" on="1"/>
        <pt x="243" y="531" on="1"/>
        <pt x="28" y="531" on="1"/>
        <pt x="28" y="636" on="1"/>
      </contour>
    </TTGlyph>
    <TTGlyph name="Zacute" xMin="16" yMin="0" xMax="391" yMax="811">
      <contour>
        <pt x="391" y="636" on="1"/>
        <pt x="391" y="531" on="1"/>
        <pt x="164" y="105" on="1"/>
        <pt x="385" y="105" on="1"/>
        <pt x="385" y="0" on="1"/>
        <pt x="16" y="0" on="1"/>
        <pt x="16" y="105" on="1"/>
        <pt x="243" y="531" on="1"/>
        <pt x="28" y="531" on="1"/>
        <pt x="28" y="636" on="1"/>
      </contour>
      <contour>
        <pt x="385" y="811" on="1"/>
        <pt x="262" y="668" on="1"/>
        <pt x="150" y="668" on="1"/>
        <pt x="241" y="811" on="1"/>
      </contour>
    </TTGlyph>
    <TTGlyph name="Zcaron" xMin="16" yMin="0" xMax="401" yMax="811">
      <contour>
        <pt x="28" y="531" on="1"/>
        <pt x="28" y="636" on="1"/>
        <pt x="391" y="636" on="1"/>
        <pt x="391" y="531" on="1"/>
        <pt x="164" y="105" on="1"/>
        <pt x="385" y="105" on="1"/>
        <pt x="385" y="0" on="1"/>
        <pt x="16" y="0" on="1"/>
        <pt x="16" y="105" on="1"/>
        <pt x="243" y="531" on="1"/>
      </contour>
      <contour>
        <pt x="283" y="668" on="1"/>
        <pt x="149" y="668" on="1"/>
        <pt x="30" y="811" on="1"/>
        <pt x="163" y="811" on="1"/>
        <pt x="216" y="738" on="1"/>
        <pt x="269" y="811" on="1"/>
        <pt x="401" y="811" on="1"/>
      </contour>
    </TTGlyph>
    <TTGlyph name="Zdotaccent" xMin="16" yMin="0" xMax="391" yMax="785">
      <contour>
        <pt x="391" y="636" on="1"/>
        <pt x="391" y="531" on="1"/>
        <pt x="164" y="105" on="1"/>
        <pt x="385" y="105" on="1"/>
        <pt x="385" y="0" on="1"/>
        <pt x="16" y="0" on="1"/>
        <pt x="16" y="105" on="1"/>
        <pt x="243" y="531" on="1"/>
        <pt x="28" y="531" on="1"/>
        <pt x="28" y="636" on="1"/>
      </contour>
      <contour>
        <pt x="285" y="785" on="1"/>
        <pt x="285" y="668" on="1"/>
        <pt x="144" y="668" on="1"/>
        <pt x="144" y="785" on="1"/>
      </contour>
    </TTGlyph>
    <TTGlyph name="a" xMin="33" yMin="0" xMax="392" yMax="495">
      <contour>
        <pt x="255" y="495" on="1"/>
        <pt x="392" y="495" on="1"/>
        <pt x="392" y="0" on="1"/>
        <pt x="253" y="0" on="1"/>
        <pt x="253" y="49" on="1"/>
        <pt x="238" y="0" on="0"/>
        <pt x="174" y="0" on="1"/>
        <pt x="150" y="0" on="1"/>
        <pt x="33" y="0" on="0"/>
        <pt x="33" y="111" on="1"/>
        <pt x="33" y="384" on="1"/>
        <pt x="33" y="495" on="0"/>
        <pt x="150" y="495" on="1"/>
        <pt x="174" y="495" on="1"/>
        <pt x="241" y="495" on="0"/>
        <pt x="255" y="439" on="1"/>
      </contour>
      <contour>
        <pt x="200" y="105" on="1"/>
        <pt x="223" y="105" on="1"/>
        <pt x="253" y="105" on="0"/>
        <pt x="253" y="137" on="1"/>
        <pt x="253" y="358" on="1"/>
        <pt x="253" y="390" on="0"/>
        <pt x="223" y="390" on="1"/>
        <pt x="200" y="390" on="1"/>
        <pt x="173" y="390" on="0"/>
        <pt x="173" y="365" on="1"/>
        <pt x="173" y="130" on="1"/>
        <pt x="173" y="105" on="0"/>
      </contour>
    </TTGlyph>
    <TTGlyph name="aacute" xMin="33" yMin="0" xMax="400" yMax="670">
      <contour>
        <pt x="255" y="495" on="1"/>
        <pt x="392" y="495" on="1"/>
        <pt x="392" y="0" on="1"/>
        <pt x="253" y="0" on="1"/>
        <pt x="253" y="49" on="1"/>
        <pt x="238" y="0" on="0"/>
        <pt x="174" y="0" on="1"/>
        <pt x="150" y="0" on="1"/>
        <pt x="33" y="0" on="0"/>
        <pt x="33" y="111" on="1"/>
        <pt x="33" y="384" on="1"/>
        <pt x="33" y="495" on="0"/>
        <pt x="150" y="495" on="1"/>
        <pt x="174" y="495" on="1"/>
        <pt x="241" y="495" on="0"/>
        <pt x="255" y="439" on="1"/>
      </contour>
      <contour>
        <pt x="200" y="105" on="1"/>
        <pt x="223" y="105" on="1"/>
        <pt x="253" y="105" on="0"/>
        <pt x="253" y="137" on="1"/>
        <pt x="253" y="358" on="1"/>
        <pt x="253" y="390" on="0"/>
        <pt x="223" y="390" on="1"/>
        <pt x="200" y="390" on="1"/>
        <pt x="173" y="390" on="0"/>
        <pt x="173" y="365" on="1"/>
        <pt x="173" y="130" on="1"/>
        <pt x="173" y="105" on="0"/>
      </contour>
      <contour>
        <pt x="400" y="670" on="1"/>
        <pt x="277" y="527" on="1"/>
        <pt x="165" y="527" on="1"/>
        <pt x="256" y="670" on="1"/>
      </contour>
    </TTGlyph>
    <TTGlyph name="abreve" xMin="33" yMin="0" xMax="408" yMax="670">
      <contour>
        <pt x="283" y="670" on="1"/>
        <pt x="408" y="670" on="1"/>
        <pt x="408" y="638" on="1"/>
        <pt x="408" y="527" on="0"/>
        <pt x="281" y="527" on="1"/>
        <pt x="181" y="527" on="1"/>
        <pt x="54" y="527" on="0"/>
        <pt x="54" y="638" on="1"/>
        <pt x="54" y="670" on="1"/>
        <pt x="179" y="670" on="1"/>
        <pt x="179" y="635" on="1"/>
        <pt x="179" y="622" on="0"/>
        <pt x="191" y="611" on="0"/>
        <pt x="206" y="611" on="1"/>
        <pt x="256" y="611" on="1"/>
        <pt x="271" y="611" on="0"/>
        <pt x="283" y="622" on="0"/>
        <pt x="283" y="635" on="1"/>
      </contour>
      <contour>
        <pt x="255" y="495" on="1"/>
        <pt x="392" y="495" on="1"/>
        <pt x="392" y="0" on="1"/>
        <pt x="253" y="0" on="1"/>
        <pt x="253" y="49" on="1"/>
        <pt x="238" y="0" on="0"/>
        <pt x="174" y="0" on="1"/>
        <pt x="150" y="0" on="1"/>
        <pt x="33" y="0" on="0"/>
        <pt x="33" y="111" on="1"/>
        <pt x="33" y="384" on="1"/>
        <pt x="33" y="495" on="0"/>
        <pt x="150" y="495" on="1"/>
        <pt x="174" y="495" on="1"/>
        <pt x="241" y="495" on="0"/>
        <pt x="255" y="439" on="1"/>
      </contour>
      <contour>
        <pt x="200" y="105" on="1"/>
        <pt x="223" y="105" on="1"/>
        <pt x="253" y="105" on="0"/>
        <pt x="253" y="137" on="1"/>
        <pt x="253" y="358" on="1"/>
        <pt x="253" y="390" on="0"/>
        <pt x="223" y="390" on="1"/>
        <pt x="200" y="390" on="1"/>
        <pt x="173" y="390" on="0"/>
        <pt x="173" y="365" on="1"/>
        <pt x="173" y="130" on="1"/>
        <pt x="173" y="105" on="0"/>
      </contour>
    </TTGlyph>
    <TTGlyph name="acircumflex" xMin="33" yMin="0" xMax="404" yMax="670">
      <contour>
        <pt x="255" y="495" on="1"/>
        <pt x="392" y="495" on="1"/>
        <pt x="392" y="0" on="1"/>
        <pt x="253" y="0" on="1"/>
        <pt x="253" y="49" on="1"/>
        <pt x="238" y="0" on="0"/>
        <pt x="174" y="0" on="1"/>
        <pt x="150" y="0" on="1"/>
        <pt x="33" y="0" on="0"/>
        <pt x="33" y="111" on="1"/>
        <pt x="33" y="384" on="1"/>
        <pt x="33" y="495" on="0"/>
        <pt x="150" y="495" on="1"/>
        <pt x="174" y="495" on="1"/>
        <pt x="241" y="495" on="0"/>
        <pt x="255" y="439" on="1"/>
      </contour>
      <contour>
        <pt x="200" y="105" on="1"/>
        <pt x="223" y="105" on="1"/>
        <pt x="253" y="105" on="0"/>
        <pt x="253" y="137" on="1"/>
        <pt x="253" y="358" on="1"/>
        <pt x="253" y="390" on="0"/>
        <pt x="223" y="390" on="1"/>
        <pt x="200" y="390" on="1"/>
        <pt x="173" y="390" on="0"/>
        <pt x="173" y="365" on="1"/>
        <pt x="173" y="130" on="1"/>
        <pt x="173" y="105" on="0"/>
      </contour>
      <contour>
        <pt x="219" y="601" on="1"/>
        <pt x="166" y="527" on="1"/>
        <pt x="33" y="527" on="1"/>
        <pt x="152" y="670" on="1"/>
        <pt x="286" y="670" on="1"/>
        <pt x="404" y="527" on="1"/>
        <pt x="272" y="527" on="1"/>
      </contour>
    </TTGlyph>
    <TTGlyph name="acute" xMin="117" yMin="527" xMax="352" yMax="670">
      <contour>
        <pt x="117" y="527" on="1"/>
        <pt x="208" y="670" on="1"/>
        <pt x="352" y="670" on="1"/>
        <pt x="229" y="527" on="1"/>
      </contour>
    </TTGlyph>
    <TTGlyph name="adieresis" xMin="33" yMin="0" xMax="400" yMax="658">
      <contour>
        <pt x="267" y="658" on="1"/>
        <pt x="400" y="658" on="1"/>
        <pt x="400" y="542" on="1"/>
        <pt x="267" y="542" on="1"/>
      </contour>
      <contour>
        <pt x="255" y="495" on="1"/>
        <pt x="392" y="495" on="1"/>
        <pt x="392" y="0" on="1"/>
        <pt x="253" y="0" on="1"/>
        <pt x="253" y="49" on="1"/>
        <pt x="238" y="0" on="0"/>
        <pt x="174" y="0" on="1"/>
        <pt x="150" y="0" on="1"/>
        <pt x="33" y="0" on="0"/>
        <pt x="33" y="111" on="1"/>
        <pt x="33" y="384" on="1"/>
        <pt x="33" y="495" on="0"/>
        <pt x="150" y="495" on="1"/>
        <pt x="174" y="495" on="1"/>
        <pt x="241" y="495" on="0"/>
        <pt x="255" y="439" on="1"/>
      </contour>
      <contour>
        <pt x="200" y="105" on="1"/>
        <pt x="223" y="105" on="1"/>
        <pt x="253" y="105" on="0"/>
        <pt x="253" y="137" on="1"/>
        <pt x="253" y="358" on="1"/>
        <pt x="253" y="390" on="0"/>
        <pt x="223" y="390" on="1"/>
        <pt x="200" y="390" on="1"/>
        <pt x="173" y="390" on="0"/>
        <pt x="173" y="365" on="1"/>
        <pt x="173" y="130" on="1"/>
        <pt x="173" y="105" on="0"/>
      </contour>
      <contour>
        <pt x="179" y="658" on="1"/>
        <pt x="179" y="542" on="1"/>
        <pt x="46" y="542" on="1"/>
        <pt x="46" y="658" on="1"/>
      </contour>
    </TTGlyph>
    <TTGlyph name="ae" xMin="38" yMin="0" xMax="624" yMax="495">
      <contour>
        <pt x="620" y="206" on="1"/>
        <pt x="394" y="206" on="1"/>
        <pt x="394" y="126" on="1"/>
        <pt x="394" y="113" on="0"/>
        <pt x="406" y="102" on="0"/>
        <pt x="421" y="102" on="1"/>
        <pt x="460" y="102" on="1"/>
        <pt x="475" y="102" on="0"/>
        <pt x="487" y="113" on="0"/>
        <pt x="487" y="126" on="1"/>
        <pt x="487" y="157" on="1"/>
        <pt x="623" y="157" on="1"/>
        <pt x="623" y="111" on="1"/>
        <pt x="623" y="0" on="0"/>
        <pt x="496" y="0" on="1"/>
        <pt x="428" y="0" on="1"/>
        <pt x="347" y="0" on="0"/>
        <pt x="320" y="51" on="1"/>
        <pt x="309" y="28" on="0"/>
        <pt x="255" y="0" on="0"/>
        <pt x="223" y="0" on="1"/>
        <pt x="155" y="0" on="1"/>
        <pt x="38" y="0" on="0"/>
        <pt x="38" y="111" on="1"/>
        <pt x="38" y="206" on="1"/>
        <pt x="258" y="296" on="1"/>
        <pt x="258" y="360" on="1"/>
        <pt x="257" y="390" on="0"/>
        <pt x="228" y="390" on="1"/>
        <pt x="205" y="390" on="1"/>
        <pt x="178" y="390" on="0"/>
        <pt x="178" y="365" on="1"/>
        <pt x="178" y="310" on="1"/>
        <pt x="38" y="310" on="1"/>
        <pt x="38" y="384" on="1"/>
        <pt x="38" y="495" on="0"/>
        <pt x="155" y="495" on="1"/>
        <pt x="224" y="495" on="1"/>
        <pt x="256" y="495" on="0"/>
        <pt x="310" y="467" on="0"/>
        <pt x="321" y="444" on="1"/>
        <pt x="348" y="495" on="0"/>
        <pt x="429" y="495" on="1"/>
        <pt x="497" y="495" on="1"/>
        <pt x="624" y="495" on="0"/>
        <pt x="624" y="384" on="1"/>
        <pt x="624" y="222" on="1"/>
        <pt x="620" y="222" on="1"/>
      </contour>
      <contour>
        <pt x="461" y="393" on="1"/>
        <pt x="421" y="393" on="1"/>
        <pt x="406" y="393" on="0"/>
        <pt x="394" y="382" on="0"/>
        <pt x="394" y="368" on="1"/>
        <pt x="394" y="293" on="1"/>
        <pt x="488" y="293" on="1"/>
        <pt x="488" y="368" on="1"/>
        <pt x="488" y="393" on="0"/>
      </contour>
      <contour>
        <pt x="205" y="105" on="1"/>
        <pt x="228" y="105" on="1"/>
        <pt x="257" y="105" on="0"/>
        <pt x="258" y="135" on="1"/>
        <pt x="258" y="205" on="1"/>
        <pt x="178" y="172" on="1"/>
        <pt x="178" y="130" on="1"/>
        <pt x="178" y="105" on="0"/>
      </contour>
    </TTGlyph>
    <TTGlyph name="agrave" xMin="33" yMin="0" xMax="392" yMax="670">
      <contour>
        <pt x="255" y="495" on="1"/>
        <pt x="392" y="495" on="1"/>
        <pt x="392" y="0" on="1"/>
        <pt x="253" y="0" on="1"/>
        <pt x="253" y="49" on="1"/>
        <pt x="238" y="0" on="0"/>
        <pt x="174" y="0" on="1"/>
        <pt x="150" y="0" on="1"/>
        <pt x="33" y="0" on="0"/>
        <pt x="33" y="111" on="1"/>
        <pt x="33" y="384" on="1"/>
        <pt x="33" y="495" on="0"/>
        <pt x="150" y="495" on="1"/>
        <pt x="174" y="495" on="1"/>
        <pt x="241" y="495" on="0"/>
        <pt x="255" y="439" on="1"/>
      </contour>
      <contour>
        <pt x="200" y="105" on="1"/>
        <pt x="223" y="105" on="1"/>
        <pt x="253" y="105" on="0"/>
        <pt x="253" y="137" on="1"/>
        <pt x="253" y="358" on="1"/>
        <pt x="253" y="390" on="0"/>
        <pt x="223" y="390" on="1"/>
        <pt x="200" y="390" on="1"/>
        <pt x="173" y="390" on="0"/>
        <pt x="173" y="365" on="1"/>
        <pt x="173" y="130" on="1"/>
        <pt x="173" y="105" on="0"/>
      </contour>
      <contour>
        <pt x="300" y="527" on="1"/>
        <pt x="188" y="527" on="1"/>
        <pt x="66" y="670" on="1"/>
        <pt x="209" y="670" on="1"/>
      </contour>
    </TTGlyph>
    <TTGlyph name="amacron" xMin="33" yMin="0" xMax="392" yMax="645">
      <contour>
        <pt x="255" y="495" on="1"/>
        <pt x="392" y="495" on="1"/>
        <pt x="392" y="0" on="1"/>
        <pt x="253" y="0" on="1"/>
        <pt x="253" y="49" on="1"/>
        <pt x="238" y="0" on="0"/>
        <pt x="174" y="0" on="1"/>
        <pt x="150" y="0" on="1"/>
        <pt x="33" y="0" on="0"/>
        <pt x="33" y="111" on="1"/>
        <pt x="33" y="384" on="1"/>
        <pt x="33" y="495" on="0"/>
        <pt x="150" y="495" on="1"/>
        <pt x="174" y="495" on="1"/>
        <pt x="241" y="495" on="0"/>
        <pt x="255" y="439" on="1"/>
      </contour>
      <contour>
        <pt x="200" y="105" on="1"/>
        <pt x="223" y="105" on="1"/>
        <pt x="253" y="105" on="0"/>
        <pt x="253" y="137" on="1"/>
        <pt x="253" y="358" on="1"/>
        <pt x="253" y="390" on="0"/>
        <pt x="223" y="390" on="1"/>
        <pt x="200" y="390" on="1"/>
        <pt x="173" y="390" on="0"/>
        <pt x="173" y="365" on="1"/>
        <pt x="173" y="130" on="1"/>
        <pt x="173" y="105" on="0"/>
      </contour>
      <contour>
        <pt x="387" y="645" on="1"/>
        <pt x="387" y="554" on="1"/>
        <pt x="44" y="554" on="1"/>
        <pt x="44" y="645" on="1"/>
      </contour>
    </TTGlyph>
    <TTGlyph name="ampersand" xMin="33" yMin="-36" xMax="606" yMax="636">
      <contour>
        <pt x="403" y="0" on="1"/>
        <pt x="160" y="0" on="1"/>
        <pt x="33" y="0" on="0"/>
        <pt x="33" y="111" on="1"/>
        <pt x="33" y="186" on="1"/>
        <pt x="33" y="230" on="0"/>
        <pt x="50" y="254" on="1"/>
        <pt x="67" y="278" on="0"/>
        <pt x="136" y="319" on="1"/>
        <pt x="97" y="362" on="0"/>
        <pt x="64" y="416" on="0"/>
        <pt x="64" y="447" on="1"/>
        <pt x="64" y="526" on="1"/>
        <pt x="64" y="636" on="0"/>
        <pt x="191" y="636" on="1"/>
        <pt x="300" y="636" on="1"/>
        <pt x="425" y="636" on="0"/>
        <pt x="425" y="526" on="1"/>
        <pt x="425" y="448" on="1"/>
        <pt x="425" y="395" on="0"/>
        <pt x="382" y="337" on="0"/>
        <pt x="331" y="305" on="1"/>
        <pt x="312" y="293" on="1"/>
        <pt x="422" y="170" on="1"/>
        <pt x="422" y="243" on="1"/>
        <pt x="535" y="243" on="1"/>
        <pt x="535" y="111" on="1"/>
        <pt x="535" y="81" on="0"/>
        <pt x="524" y="56" on="1"/>
        <pt x="606" y="-36" on="1"/>
        <pt x="462" y="-36" on="1"/>
        <pt x="428" y="1" on="1"/>
        <pt x="420" y="0" on="0"/>
      </contour>
      <contour>
        <pt x="204" y="515" on="1"/>
        <pt x="204" y="440" on="1"/>
        <pt x="204" y="412" on="0"/>
        <pt x="234" y="379" on="1"/>
        <pt x="266" y="399" on="0"/>
        <pt x="289" y="424" on="0"/>
        <pt x="289" y="446" on="1"/>
        <pt x="289" y="515" on="1"/>
        <pt x="289" y="529" on="0"/>
        <pt x="277" y="540" on="0"/>
        <pt x="262" y="540" on="1"/>
        <pt x="230" y="540" on="1"/>
        <pt x="216" y="540" on="0"/>
        <pt x="204" y="529" on="0"/>
      </contour>
      <contour>
        <pt x="196" y="98" on="1"/>
        <pt x="339" y="98" on="1"/>
        <pt x="214" y="235" on="1"/>
        <pt x="194" y="223" on="1"/>
        <pt x="169" y="208" on="0"/>
        <pt x="169" y="178" on="1"/>
        <pt x="169" y="123" on="1"/>
        <pt x="169" y="98" on="0"/>
      </contour>
    </TTGlyph>
    <TTGlyph name="aogonek" xMin="33" yMin="-255" xMax="411" yMax="495">
      <contour>
        <pt x="324" y="-171" on="1"/>
        <pt x="411" y="-171" on="1"/>
        <pt x="411" y="-255" on="1"/>
        <pt x="303" y="-255" on="1"/>
        <pt x="246" y="-255" on="0"/>
        <pt x="198" y="-206" on="0"/>
        <pt x="198" y="-158" on="1"/>
        <pt x="198" y="-116" on="1"/>
        <pt x="198" y="-68" on="0"/>
        <pt x="246" y="-19" on="0"/>
        <pt x="303" y="-19" on="1"/>
        <pt x="309" y="-19" on="1"/>
        <pt x="309" y="0" on="1"/>
        <pt x="253" y="0" on="1"/>
        <pt x="253" y="49" on="1"/>
        <pt x="238" y="0" on="0"/>
        <pt x="174" y="0" on="1"/>
        <pt x="150" y="0" on="1"/>
        <pt x="33" y="0" on="0"/>
        <pt x="33" y="111" on="1"/>
        <pt x="33" y="384" on="1"/>
        <pt x="33" y="495" on="0"/>
        <pt x="150" y="495" on="1"/>
        <pt x="174" y="495" on="1"/>
        <pt x="241" y="495" on="0"/>
        <pt x="255" y="439" on="1"/>
        <pt x="255" y="495" on="1"/>
        <pt x="392" y="495" on="1"/>
        <pt x="392" y="14" on="1"/>
        <pt x="393" y="14" on="1"/>
        <pt x="393" y="-103" on="1"/>
        <pt x="324" y="-103" on="1"/>
        <pt x="310" y="-103" on="0"/>
        <pt x="299" y="-113" on="0"/>
        <pt x="299" y="-125" on="1"/>
        <pt x="299" y="-150" on="1"/>
        <pt x="299" y="-162" on="0"/>
        <pt x="310" y="-171" on="0"/>
      </contour>
      <contour>
        <pt x="200" y="105" on="1"/>
        <pt x="223" y="105" on="1"/>
        <pt x="253" y="105" on="0"/>
        <pt x="253" y="137" on="1"/>
        <pt x="253" y="358" on="1"/>
        <pt x="253" y="390" on="0"/>
        <pt x="223" y="390" on="1"/>
        <pt x="200" y="390" on="1"/>
        <pt x="173" y="390" on="0"/>
        <pt x="173" y="365" on="1"/>
        <pt x="173" y="130" on="1"/>
        <pt x="173" y="105" on="0"/>
      </contour>
    </TTGlyph>
    <TTGlyph name="approxequal" xMin="33" yMin="162" xMax="503" yMax="507">
      <contour>
        <pt x="347" y="162" on="1"/>
        <pt x="304" y="162" on="0"/>
        <pt x="214" y="227" on="0"/>
        <pt x="173" y="227" on="0"/>
        <pt x="161" y="212" on="0"/>
        <pt x="161" y="194" on="1"/>
        <pt x="161" y="162" on="1"/>
        <pt x="33" y="162" on="1"/>
        <pt x="33" y="226" on="1"/>
        <pt x="33" y="274" on="0"/>
        <pt x="80" y="319" on="0"/>
        <pt x="134" y="319" on="1"/>
        <pt x="189" y="319" on="1"/>
        <pt x="226" y="319" on="0"/>
        <pt x="284" y="286" on="0"/>
        <pt x="329" y="254" on="0"/>
        <pt x="364" y="254" on="0"/>
        <pt x="375" y="269" on="0"/>
        <pt x="375" y="287" on="1"/>
        <pt x="375" y="318" on="1"/>
        <pt x="503" y="318" on="1"/>
        <pt x="503" y="255" on="1"/>
        <pt x="503" y="207" on="0"/>
        <pt x="456" y="162" on="0"/>
        <pt x="402" y="162" on="1"/>
      </contour>
      <contour>
        <pt x="347" y="350" on="1"/>
        <pt x="304" y="350" on="0"/>
        <pt x="214" y="415" on="0"/>
        <pt x="172" y="415" on="0"/>
        <pt x="161" y="400" on="0"/>
        <pt x="161" y="382" on="1"/>
        <pt x="161" y="351" on="1"/>
        <pt x="33" y="351" on="1"/>
        <pt x="33" y="414" on="1"/>
        <pt x="33" y="462" on="0"/>
        <pt x="80" y="507" on="0"/>
        <pt x="134" y="507" on="1"/>
        <pt x="189" y="507" on="1"/>
        <pt x="226" y="507" on="0"/>
        <pt x="284" y="474" on="0"/>
        <pt x="329" y="442" on="0"/>
        <pt x="364" y="442" on="0"/>
        <pt x="375" y="457" on="0"/>
        <pt x="375" y="475" on="1"/>
        <pt x="375" y="507" on="1"/>
        <pt x="503" y="507" on="1"/>
        <pt x="503" y="443" on="1"/>
        <pt x="503" y="395" on="0"/>
        <pt x="456" y="350" on="0"/>
        <pt x="402" y="350" on="1"/>
      </contour>
    </TTGlyph>
    <TTGlyph name="aring" xMin="33" yMin="0" xMax="392" yMax="709">
      <contour>
        <pt x="255" y="495" on="1"/>
        <pt x="392" y="495" on="1"/>
        <pt x="392" y="0" on="1"/>
        <pt x="253" y="0" on="1"/>
        <pt x="253" y="49" on="1"/>
        <pt x="238" y="0" on="0"/>
        <pt x="174" y="0" on="1"/>
        <pt x="150" y="0" on="1"/>
        <pt x="33" y="0" on="0"/>
        <pt x="33" y="111" on="1"/>
        <pt x="33" y="384" on="1"/>
        <pt x="33" y="495" on="0"/>
        <pt x="150" y="495" on="1"/>
        <pt x="174" y="495" on="1"/>
        <pt x="241" y="495" on="0"/>
        <pt x="255" y="439" on="1"/>
      </contour>
      <contour>
        <pt x="200" y="105" on="1"/>
        <pt x="223" y="105" on="1"/>
        <pt x="253" y="105" on="0"/>
        <pt x="253" y="137" on="1"/>
        <pt x="253" y="358" on="1"/>
        <pt x="253" y="390" on="0"/>
        <pt x="223" y="390" on="1"/>
        <pt x="200" y="390" on="1"/>
        <pt x="173" y="390" on="0"/>
        <pt x="173" y="365" on="1"/>
        <pt x="173" y="130" on="1"/>
        <pt x="173" y="105" on="0"/>
      </contour>
      <contour>
        <pt x="257" y="529" on="1"/>
        <pt x="179" y="529" on="1"/>
        <pt x="88" y="529" on="0"/>
        <pt x="88" y="611" on="1"/>
        <pt x="88" y="627" on="1"/>
        <pt x="88" y="709" on="0"/>
        <pt x="179" y="709" on="1"/>
        <pt x="257" y="709" on="1"/>
        <pt x="348" y="709" on="0"/>
        <pt x="348" y="627" on="1"/>
        <pt x="348" y="611" on="1"/>
        <pt x="348" y="529" on="0"/>
      </contour>
      <contour>
        <pt x="178" y="624" on="1"/>
        <pt x="178" y="613" on="1"/>
        <pt x="178" y="601" on="0"/>
        <pt x="187" y="592" on="0"/>
        <pt x="200" y="592" on="1"/>
        <pt x="236" y="592" on="1"/>
        <pt x="249" y="592" on="0"/>
        <pt x="259" y="601" on="0"/>
        <pt x="259" y="613" on="1"/>
        <pt x="259" y="624" on="1"/>
        <pt x="259" y="636" on="0"/>
        <pt x="249" y="646" on="0"/>
        <pt x="236" y="646" on="1"/>
        <pt x="200" y="646" on="1"/>
        <pt x="187" y="646" on="0"/>
        <pt x="178" y="636" on="0"/>
      </contour>
    </TTGlyph>
    <TTGlyph name="asciicircum" xMin="78" yMin="294" xMax="517" yMax="670">
      <contour>
        <pt x="204" y="670" on="1"/>
        <pt x="391" y="670" on="1"/>
        <pt x="517" y="294" on="1"/>
        <pt x="372" y="294" on="1"/>
        <pt x="297" y="549" on="1"/>
        <pt x="223" y="294" on="1"/>
        <pt x="78" y="294" on="1"/>
      </contour>
    </TTGlyph>
    <TTGlyph name="asciitilde" xMin="83" yMin="208" xMax="560" yMax="378">
      <contour>
        <pt x="404" y="208" on="1"/>
        <pt x="362" y="208" on="0"/>
        <pt x="264" y="286" on="0"/>
        <pt x="222" y="286" on="0"/>
        <pt x="211" y="271" on="0"/>
        <pt x="211" y="254" on="1"/>
        <pt x="211" y="208" on="1"/>
        <pt x="83" y="208" on="1"/>
        <pt x="83" y="285" on="1"/>
        <pt x="83" y="333" on="0"/>
        <pt x="130" y="378" on="0"/>
        <pt x="184" y="378" on="1"/>
        <pt x="239" y="378" on="1"/>
        <pt x="268" y="378" on="0"/>
        <pt x="320" y="354" on="0"/>
        <pt x="352" y="324" on="0"/>
        <pt x="389" y="300" on="0"/>
        <pt x="421" y="300" on="0"/>
        <pt x="432" y="315" on="0"/>
        <pt x="432" y="333" on="1"/>
        <pt x="432" y="378" on="1"/>
        <pt x="560" y="378" on="1"/>
        <pt x="560" y="300" on="1"/>
        <pt x="560" y="253" on="0"/>
        <pt x="513" y="208" on="0"/>
        <pt x="459" y="208" on="1"/>
      </contour>
    </TTGlyph>
    <TTGlyph name="asterisk" xMin="17" yMin="322" xMax="347" yMax="636">
      <contour>
        <pt x="129" y="613" on="1"/>
        <pt x="129" y="636" on="1"/>
        <pt x="235" y="636" on="1"/>
        <pt x="235" y="612" on="1"/>
        <pt x="235" y="576" on="0"/>
        <pt x="226" y="540" on="1"/>
        <pt x="255" y="561" on="0"/>
        <pt x="315" y="579" on="1"/>
        <pt x="347" y="478" on="1"/>
        <pt x="284" y="459" on="0"/>
        <pt x="253" y="457" on="1"/>
        <pt x="280" y="437" on="0"/>
        <pt x="304" y="404" on="1"/>
        <pt x="318" y="385" on="1"/>
        <pt x="232" y="322" on="1"/>
        <pt x="217" y="342" on="1"/>
        <pt x="196" y="370" on="0"/>
        <pt x="183" y="406" on="1"/>
        <pt x="171" y="374" on="0"/>
        <pt x="133" y="322" on="1"/>
        <pt x="47" y="384" on="1"/>
        <pt x="86" y="436" on="0"/>
        <pt x="112" y="457" on="1"/>
        <pt x="73" y="459" on="0"/>
        <pt x="39" y="471" on="1"/>
        <pt x="17" y="478" on="1"/>
        <pt x="50" y="578" on="1"/>
        <pt x="108" y="560" on="0"/>
        <pt x="139" y="540" on="1"/>
        <pt x="129" y="572" on="0"/>
      </contour>
    </TTGlyph>
    <TTGlyph name="at" xMin="54" yMin="-91" xMax="753" yMax="602">
      <contour>
        <pt x="365" y="320" on="1"/>
        <pt x="365" y="195" on="1"/>
        <pt x="365" y="182" on="0"/>
        <pt x="375" y="172" on="0"/>
        <pt x="389" y="172" on="1"/>
        <pt x="416" y="172" on="1"/>
        <pt x="443" y="172" on="0"/>
        <pt x="443" y="201" on="1"/>
        <pt x="443" y="313" on="1"/>
        <pt x="443" y="343" on="0"/>
        <pt x="416" y="343" on="1"/>
        <pt x="389" y="343" on="1"/>
        <pt x="376" y="343" on="0"/>
        <pt x="365" y="333" on="0"/>
      </contour>
      <contour>
        <pt x="242" y="331" on="1"/>
        <pt x="242" y="434" on="0"/>
        <pt x="350" y="434" on="1"/>
        <pt x="370" y="434" on="1"/>
        <pt x="431" y="434" on="0"/>
        <pt x="445" y="383" on="1"/>
        <pt x="445" y="434" on="1"/>
        <pt x="560" y="434" on="1"/>
        <pt x="560" y="171" on="1"/>
        <pt x="604" y="171" on="1"/>
        <pt x="619" y="171" on="0"/>
        <pt x="631" y="182" on="0"/>
        <pt x="631" y="196" on="1"/>
        <pt x="631" y="478" on="1"/>
        <pt x="631" y="503" on="0"/>
        <pt x="604" y="503" on="1"/>
        <pt x="206" y="503" on="1"/>
        <pt x="179" y="503" on="0"/>
        <pt x="179" y="478" on="1"/>
        <pt x="179" y="32" on="1"/>
        <pt x="179" y="19" on="0"/>
        <pt x="191" y="8" on="0"/>
        <pt x="206" y="8" on="1"/>
        <pt x="561" y="8" on="1"/>
        <pt x="561" y="-91" on="1"/>
        <pt x="170" y="-91" on="1"/>
        <pt x="54" y="-91" on="0"/>
        <pt x="54" y="19" on="1"/>
        <pt x="54" y="491" on="1"/>
        <pt x="54" y="602" on="0"/>
        <pt x="170" y="602" on="1"/>
        <pt x="638" y="602" on="1"/>
        <pt x="753" y="602" on="0"/>
        <pt x="753" y="491" on="1"/>
        <pt x="753" y="191" on="1"/>
        <pt x="753" y="80" on="0"/>
        <pt x="637" y="80" on="1"/>
        <pt x="448" y="80" on="1"/>
        <pt x="448" y="138" on="1"/>
        <pt x="437" y="80" on="0"/>
        <pt x="370" y="80" on="1"/>
        <pt x="350" y="80" on="1"/>
        <pt x="242" y="80" on="0"/>
        <pt x="242" y="183" on="1"/>
      </contour>
    </TTGlyph>
    <TTGlyph name="atilde" xMin="33" yMin="0" xMax="392" yMax="665">
      <contour>
        <pt x="255" y="495" on="1"/>
        <pt x="392" y="495" on="1"/>
        <pt x="392" y="0" on="1"/>
        <pt x="253" y="0" on="1"/>
        <pt x="253" y="49" on="1"/>
        <pt x="238" y="0" on="0"/>
        <pt x="174" y="0" on="1"/>
        <pt x="150" y="0" on="1"/>
        <pt x="33" y="0" on="0"/>
        <pt x="33" y="111" on="1"/>
        <pt x="33" y="384" on="1"/>
        <pt x="33" y="495" on="0"/>
        <pt x="150" y="495" on="1"/>
        <pt x="174" y="495" on="1"/>
        <pt x="241" y="495" on="0"/>
        <pt x="255" y="439" on="1"/>
      </contour>
      <contour>
        <pt x="200" y="105" on="1"/>
        <pt x="223" y="105" on="1"/>
        <pt x="253" y="105" on="0"/>
        <pt x="253" y="137" on="1"/>
        <pt x="253" y="358" on="1"/>
        <pt x="253" y="390" on="0"/>
        <pt x="223" y="390" on="1"/>
        <pt x="200" y="390" on="1"/>
        <pt x="173" y="390" on="0"/>
        <pt x="173" y="365" on="1"/>
        <pt x="173" y="130" on="1"/>
        <pt x="173" y="105" on="0"/>
      </contour>
      <contour>
        <pt x="153" y="558" on="1"/>
        <pt x="153" y="533" on="1"/>
        <pt x="40" y="533" on="1"/>
        <pt x="40" y="575" on="1"/>
        <pt x="40" y="619" on="0"/>
        <pt x="81" y="665" on="0"/>
        <pt x="131" y="665" on="1"/>
        <pt x="146" y="665" on="1"/>
        <pt x="176" y="665" on="0"/>
        <pt x="251" y="618" on="0"/>
        <pt x="258" y="618" on="1"/>
        <pt x="277" y="618" on="0"/>
        <pt x="277" y="640" on="1"/>
        <pt x="277" y="665" on="1"/>
        <pt x="390" y="665" on="1"/>
        <pt x="390" y="618" on="1"/>
        <pt x="390" y="575" on="0"/>
        <pt x="349" y="533" on="0"/>
        <pt x="298" y="533" on="1"/>
        <pt x="284" y="533" on="1"/>
        <pt x="254" y="533" on="0"/>
        <pt x="178" y="580" on="0"/>
        <pt x="170" y="580" on="1"/>
        <pt x="153" y="580" on="0"/>
      </contour>
    </TTGlyph>
    <TTGlyph name="b" xMin="42" yMin="0" xMax="401" yMax="669">
      <contour>
        <pt x="259" y="495" on="1"/>
        <pt x="284" y="495" on="1"/>
        <pt x="401" y="495" on="0"/>
        <pt x="401" y="385" on="1"/>
        <pt x="401" y="111" on="1"/>
        <pt x="401" y="0" on="0"/>
        <pt x="284" y="0" on="1"/>
        <pt x="259" y="0" on="1"/>
        <pt x="193" y="0" on="0"/>
        <pt x="179" y="56" on="1"/>
        <pt x="179" y="0" on="1"/>
        <pt x="42" y="0" on="1"/>
        <pt x="42" y="669" on="1"/>
        <pt x="181" y="669" on="1"/>
        <pt x="181" y="446" on="1"/>
        <pt x="196" y="495" on="0"/>
      </contour>
      <contour>
        <pt x="261" y="130" on="1"/>
        <pt x="261" y="365" on="1"/>
        <pt x="261" y="379" on="0"/>
        <pt x="249" y="390" on="0"/>
        <pt x="234" y="390" on="1"/>
        <pt x="210" y="390" on="1"/>
        <pt x="181" y="390" on="0"/>
        <pt x="181" y="358" on="1"/>
        <pt x="181" y="137" on="1"/>
        <pt x="181" y="105" on="0"/>
        <pt x="210" y="105" on="1"/>
        <pt x="234" y="105" on="1"/>
        <pt x="261" y="105" on="0"/>
      </contour>
    </TTGlyph>
    <TTGlyph name="backslash" xMin="-1" yMin="-83" xMax="415" yMax="701">
      <contour>
        <pt x="-1" y="701" on="1"/>
        <pt x="121" y="701" on="1"/>
        <pt x="415" y="-83" on="1"/>
        <pt x="293" y="-83" on="1"/>
      </contour>
    </TTGlyph>
    <TTGlyph name="bar" xMin="52" yMin="-165" xMax="181" yMax="799">
      <contour>
        <pt x="52" y="799" on="1"/>
        <pt x="181" y="799" on="1"/>
        <pt x="181" y="-165" on="1"/>
        <pt x="52" y="-165" on="1"/>
      </contour>
    </TTGlyph>
    <TTGlyph name="braceleft" xMin="13" yMin="-159" xMax="300" yMax="788">
      <contour>
        <pt x="240" y="665" on="1"/>
        <pt x="240" y="439" on="1"/>
        <pt x="240" y="331" on="0"/>
        <pt x="162" y="315" on="1"/>
        <pt x="198" y="312" on="0"/>
        <pt x="240" y="252" on="0"/>
        <pt x="240" y="200" on="1"/>
        <pt x="240" y="-36" on="1"/>
        <pt x="240" y="-61" on="0"/>
        <pt x="267" y="-61" on="1"/>
        <pt x="300" y="-61" on="1"/>
        <pt x="300" y="-159" on="1"/>
        <pt x="220" y="-159" on="1"/>
        <pt x="97" y="-159" on="0"/>
        <pt x="97" y="-42" on="1"/>
        <pt x="97" y="175" on="1"/>
        <pt x="97" y="222" on="0"/>
        <pt x="62" y="266" on="0"/>
        <pt x="23" y="266" on="1"/>
        <pt x="13" y="266" on="1"/>
        <pt x="13" y="364" on="1"/>
        <pt x="23" y="364" on="1"/>
        <pt x="62" y="364" on="0"/>
        <pt x="97" y="408" on="0"/>
        <pt x="97" y="456" on="1"/>
        <pt x="97" y="671" on="1"/>
        <pt x="97" y="788" on="0"/>
        <pt x="220" y="788" on="1"/>
        <pt x="300" y="788" on="1"/>
        <pt x="300" y="690" on="1"/>
        <pt x="267" y="690" on="1"/>
        <pt x="240" y="690" on="0"/>
      </contour>
    </TTGlyph>
    <TTGlyph name="braceright" xMin="9" yMin="-159" xMax="297" yMax="788">
      <contour>
        <pt x="70" y="439" on="1"/>
        <pt x="70" y="665" on="1"/>
        <pt x="70" y="690" on="0"/>
        <pt x="42" y="690" on="1"/>
        <pt x="9" y="690" on="1"/>
        <pt x="9" y="788" on="1"/>
        <pt x="89" y="788" on="1"/>
        <pt x="213" y="788" on="0"/>
        <pt x="213" y="671" on="1"/>
        <pt x="213" y="456" on="1"/>
        <pt x="213" y="407" on="0"/>
        <pt x="247" y="364" on="0"/>
        <pt x="286" y="364" on="1"/>
        <pt x="297" y="364" on="1"/>
        <pt x="297" y="266" on="1"/>
        <pt x="286" y="266" on="1"/>
        <pt x="247" y="266" on="0"/>
        <pt x="213" y="222" on="0"/>
        <pt x="213" y="175" on="1"/>
        <pt x="213" y="-42" on="1"/>
        <pt x="213" y="-159" on="0"/>
        <pt x="89" y="-159" on="1"/>
        <pt x="9" y="-159" on="1"/>
        <pt x="9" y="-61" on="1"/>
        <pt x="42" y="-61" on="1"/>
        <pt x="70" y="-61" on="0"/>
        <pt x="70" y="-36" on="1"/>
        <pt x="70" y="200" on="1"/>
        <pt x="70" y="252" on="0"/>
        <pt x="111" y="312" on="0"/>
        <pt x="147" y="315" on="1"/>
        <pt x="70" y="330" on="0"/>
      </contour>
    </TTGlyph>
    <TTGlyph name="bracketleft" xMin="47" yMin="-160" xMax="285" yMax="788">
      <contour>
        <pt x="285" y="683" on="1"/>
        <pt x="190" y="683" on="1"/>
        <pt x="190" y="-55" on="1"/>
        <pt x="285" y="-55" on="1"/>
        <pt x="285" y="-160" on="1"/>
        <pt x="47" y="-160" on="1"/>
        <pt x="47" y="788" on="1"/>
        <pt x="285" y="788" on="1"/>
      </contour>
    </TTGlyph>
    <TTGlyph name="bracketright" xMin="23" yMin="-160" xMax="261" yMax="788">
      <contour>
        <pt x="261" y="788" on="1"/>
        <pt x="261" y="-160" on="1"/>
        <pt x="23" y="-160" on="1"/>
        <pt x="23" y="-55" on="1"/>
        <pt x="118" y="-55" on="1"/>
        <pt x="118" y="683" on="1"/>
        <pt x="23" y="683" on="1"/>
        <pt x="23" y="788" on="1"/>
      </contour>
    </TTGlyph>
    <TTGlyph name="breve" xMin="58" yMin="527" xMax="412" yMax="670">
      <contour>
        <pt x="287" y="670" on="1"/>
        <pt x="412" y="670" on="1"/>
        <pt x="412" y="638" on="1"/>
        <pt x="412" y="527" on="0"/>
        <pt x="285" y="527" on="1"/>
        <pt x="185" y="527" on="1"/>
        <pt x="58" y="527" on="0"/>
        <pt x="58" y="638" on="1"/>
        <pt x="58" y="670" on="1"/>
        <pt x="183" y="670" on="1"/>
        <pt x="183" y="635" on="1"/>
        <pt x="183" y="622" on="0"/>
        <pt x="195" y="611" on="0"/>
        <pt x="210" y="611" on="1"/>
        <pt x="260" y="611" on="1"/>
        <pt x="275" y="611" on="0"/>
        <pt x="287" y="622" on="0"/>
        <pt x="287" y="635" on="1"/>
      </contour>
    </TTGlyph>
    <TTGlyph name="brokenbar" xMin="45" yMin="-95" xMax="188" yMax="729">
      <contour>
        <pt x="188" y="377" on="1"/>
        <pt x="45" y="377" on="1"/>
        <pt x="45" y="729" on="1"/>
        <pt x="188" y="729" on="1"/>
      </contour>
      <contour>
        <pt x="45" y="258" on="1"/>
        <pt x="188" y="258" on="1"/>
        <pt x="188" y="-95" on="1"/>
        <pt x="45" y="-95" on="1"/>
      </contour>
    </TTGlyph>
    <TTGlyph name="bullet" xMin="56" yMin="179" xMax="340" yMax="463">
      <contour>
        <pt x="56" y="262" on="0"/>
        <pt x="56" y="380" on="0"/>
        <pt x="140" y="463" on="0"/>
        <pt x="256" y="463" on="0"/>
        <pt x="340" y="380" on="0"/>
        <pt x="340" y="262" on="0"/>
        <pt x="256" y="179" on="0"/>
        <pt x="140" y="179" on="0"/>
      </contour>
    </TTGlyph>
    <TTGlyph name="c" xMin="33" yMin="0" xMax="389" yMax="495">
      <contour>
        <pt x="389" y="317" on="1"/>
        <pt x="253" y="317" on="1"/>
        <pt x="253" y="365" on="1"/>
        <pt x="253" y="390" on="0"/>
        <pt x="226" y="390" on="1"/>
        <pt x="200" y="390" on="1"/>
        <pt x="173" y="390" on="0"/>
        <pt x="173" y="365" on="1"/>
        <pt x="173" y="130" on="1"/>
        <pt x="173" y="105" on="0"/>
        <pt x="200" y="105" on="1"/>
        <pt x="226" y="105" on="1"/>
        <pt x="253" y="105" on="0"/>
        <pt x="253" y="130" on="1"/>
        <pt x="253" y="178" on="1"/>
        <pt x="389" y="178" on="1"/>
        <pt x="389" y="111" on="1"/>
        <pt x="389" y="0" on="0"/>
        <pt x="262" y="0" on="1"/>
        <pt x="160" y="0" on="1"/>
        <pt x="33" y="0" on="0"/>
        <pt x="33" y="111" on="1"/>
        <pt x="33" y="384" on="1"/>
        <pt x="33" y="495" on="0"/>
        <pt x="160" y="495" on="1"/>
        <pt x="262" y="495" on="1"/>
        <pt x="389" y="495" on="0"/>
        <pt x="389" y="384" on="1"/>
      </contour>
    </TTGlyph>
    <TTGlyph name="cacute" xMin="33" yMin="0" xMax="391" yMax="670">
      <contour>
        <pt x="160" y="495" on="1"/>
        <pt x="262" y="495" on="1"/>
        <pt x="389" y="495" on="0"/>
        <pt x="389" y="384" on="1"/>
        <pt x="389" y="317" on="1"/>
        <pt x="253" y="317" on="1"/>
        <pt x="253" y="365" on="1"/>
        <pt x="253" y="390" on="0"/>
        <pt x="226" y="390" on="1"/>
        <pt x="200" y="390" on="1"/>
        <pt x="173" y="390" on="0"/>
        <pt x="173" y="365" on="1"/>
        <pt x="173" y="130" on="1"/>
        <pt x="173" y="105" on="0"/>
        <pt x="200" y="105" on="1"/>
        <pt x="226" y="105" on="1"/>
        <pt x="253" y="105" on="0"/>
        <pt x="253" y="130" on="1"/>
        <pt x="253" y="178" on="1"/>
        <pt x="389" y="178" on="1"/>
        <pt x="389" y="111" on="1"/>
        <pt x="389" y="0" on="0"/>
        <pt x="262" y="0" on="1"/>
        <pt x="160" y="0" on="1"/>
        <pt x="33" y="0" on="0"/>
        <pt x="33" y="111" on="1"/>
        <pt x="33" y="384" on="1"/>
        <pt x="33" y="495" on="0"/>
      </contour>
      <contour>
        <pt x="391" y="670" on="1"/>
        <pt x="268" y="527" on="1"/>
        <pt x="156" y="527" on="1"/>
        <pt x="247" y="670" on="1"/>
      </contour>
    </TTGlyph>
    <TTGlyph name="caron" xMin="49" yMin="527" xMax="420" yMax="670">
      <contour>
        <pt x="168" y="527" on="1"/>
        <pt x="49" y="670" on="1"/>
        <pt x="182" y="670" on="1"/>
        <pt x="235" y="597" on="1"/>
        <pt x="288" y="670" on="1"/>
        <pt x="420" y="670" on="1"/>
        <pt x="302" y="527" on="1"/>
      </contour>
    </TTGlyph>
    <TTGlyph name="ccaron" xMin="22" yMin="0" xMax="393" yMax="670">
      <contour>
        <pt x="160" y="495" on="1"/>
        <pt x="262" y="495" on="1"/>
        <pt x="389" y="495" on="0"/>
        <pt x="389" y="384" on="1"/>
        <pt x="389" y="317" on="1"/>
        <pt x="253" y="317" on="1"/>
        <pt x="253" y="365" on="1"/>
        <pt x="253" y="390" on="0"/>
        <pt x="226" y="390" on="1"/>
        <pt x="200" y="390" on="1"/>
        <pt x="173" y="390" on="0"/>
        <pt x="173" y="365" on="1"/>
        <pt x="173" y="130" on="1"/>
        <pt x="173" y="105" on="0"/>
        <pt x="200" y="105" on="1"/>
        <pt x="226" y="105" on="1"/>
        <pt x="253" y="105" on="0"/>
        <pt x="253" y="130" on="1"/>
        <pt x="253" y="178" on="1"/>
        <pt x="389" y="178" on="1"/>
        <pt x="389" y="111" on="1"/>
        <pt x="389" y="0" on="0"/>
        <pt x="262" y="0" on="1"/>
        <pt x="160" y="0" on="1"/>
        <pt x="33" y="0" on="0"/>
        <pt x="33" y="111" on="1"/>
        <pt x="33" y="384" on="1"/>
        <pt x="33" y="495" on="0"/>
      </contour>
      <contour>
        <pt x="275" y="527" on="1"/>
        <pt x="141" y="527" on="1"/>
        <pt x="22" y="670" on="1"/>
        <pt x="155" y="670" on="1"/>
        <pt x="208" y="597" on="1"/>
        <pt x="261" y="670" on="1"/>
        <pt x="393" y="670" on="1"/>
      </contour>
    </TTGlyph>
    <TTGlyph name="ccedilla" xMin="33" yMin="-232" xMax="389" yMax="495">
      <contour>
        <pt x="389" y="317" on="1"/>
        <pt x="253" y="317" on="1"/>
        <pt x="253" y="365" on="1"/>
        <pt x="253" y="390" on="0"/>
        <pt x="226" y="390" on="1"/>
        <pt x="200" y="390" on="1"/>
        <pt x="173" y="390" on="0"/>
        <pt x="173" y="365" on="1"/>
        <pt x="173" y="130" on="1"/>
        <pt x="173" y="105" on="0"/>
        <pt x="200" y="105" on="1"/>
        <pt x="226" y="105" on="1"/>
        <pt x="253" y="105" on="0"/>
        <pt x="253" y="130" on="1"/>
        <pt x="253" y="178" on="1"/>
        <pt x="389" y="178" on="1"/>
        <pt x="389" y="111" on="1"/>
        <pt x="389" y="0" on="0"/>
        <pt x="262" y="0" on="1"/>
        <pt x="160" y="0" on="1"/>
        <pt x="33" y="0" on="0"/>
        <pt x="33" y="111" on="1"/>
        <pt x="33" y="384" on="1"/>
        <pt x="33" y="495" on="0"/>
        <pt x="160" y="495" on="1"/>
        <pt x="262" y="495" on="1"/>
        <pt x="389" y="495" on="0"/>
        <pt x="389" y="384" on="1"/>
      </contour>
      <contour>
        <pt x="150" y="-108" on="1"/>
        <pt x="150" y="-48" on="1"/>
        <pt x="281" y="-48" on="1"/>
        <pt x="281" y="-119" on="1"/>
        <pt x="281" y="-232" on="0"/>
        <pt x="152" y="-232" on="1"/>
        <pt x="74" y="-232" on="1"/>
        <pt x="74" y="-135" on="1"/>
        <pt x="122" y="-135" on="1"/>
        <pt x="150" y="-135" on="0"/>
      </contour>
    </TTGlyph>
    <TTGlyph name="cedilla" xMin="126" yMin="-232" xMax="333" yMax="-48">
      <contour>
        <pt x="202" y="-108" on="1"/>
        <pt x="202" y="-48" on="1"/>
        <pt x="333" y="-48" on="1"/>
        <pt x="333" y="-119" on="1"/>
        <pt x="333" y="-232" on="0"/>
        <pt x="204" y="-232" on="1"/>
        <pt x="126" y="-232" on="1"/>
        <pt x="126" y="-135" on="1"/>
        <pt x="174" y="-135" on="1"/>
        <pt x="202" y="-135" on="0"/>
      </contour>
    </TTGlyph>
    <TTGlyph name="cent" xMin="33" yMin="-79" xMax="389" yMax="574">
      <contour>
        <pt x="389" y="317" on="1"/>
        <pt x="253" y="317" on="1"/>
        <pt x="253" y="365" on="1"/>
        <pt x="253" y="390" on="0"/>
        <pt x="226" y="390" on="1"/>
        <pt x="200" y="390" on="1"/>
        <pt x="173" y="390" on="0"/>
        <pt x="173" y="365" on="1"/>
        <pt x="173" y="130" on="1"/>
        <pt x="173" y="105" on="0"/>
        <pt x="200" y="105" on="1"/>
        <pt x="226" y="105" on="1"/>
        <pt x="253" y="105" on="0"/>
        <pt x="253" y="130" on="1"/>
        <pt x="253" y="178" on="1"/>
        <pt x="389" y="178" on="1"/>
        <pt x="389" y="111" on="1"/>
        <pt x="389" y="8" on="0"/>
        <pt x="281" y="1" on="1"/>
        <pt x="281" y="-79" on="1"/>
        <pt x="146" y="-79" on="1"/>
        <pt x="146" y="0" on="1"/>
        <pt x="33" y="7" on="0"/>
        <pt x="33" y="111" on="1"/>
        <pt x="33" y="384" on="1"/>
        <pt x="33" y="488" on="0"/>
        <pt x="146" y="495" on="1"/>
        <pt x="146" y="574" on="1"/>
        <pt x="281" y="574" on="1"/>
        <pt x="281" y="494" on="1"/>
        <pt x="389" y="487" on="0"/>
        <pt x="389" y="384" on="1"/>
      </contour>
    </TTGlyph>
    <TTGlyph name="circumflex" xMin="49" yMin="527" xMax="420" yMax="670">
      <contour>
        <pt x="49" y="527" on="1"/>
        <pt x="168" y="670" on="1"/>
        <pt x="302" y="670" on="1"/>
        <pt x="420" y="527" on="1"/>
        <pt x="288" y="527" on="1"/>
        <pt x="235" y="601" on="1"/>
        <pt x="182" y="527" on="1"/>
      </contour>
    </TTGlyph>
    <TTGlyph name="colon" xMin="37" yMin="112" xMax="182" yMax="383">
      <contour>
        <pt x="37" y="383" on="1"/>
        <pt x="182" y="383" on="1"/>
        <pt x="182" y="112" on="1"/>
        <pt x="37" y="112" on="1"/>
      </contour>
    </TTGlyph>
    <TTGlyph name="comma" xMin="37" yMin="-145" xMax="182" yMax="148">
      <contour>
        <pt x="37" y="148" on="1"/>
        <pt x="182" y="148" on="1"/>
        <pt x="182" y="68" on="1"/>
        <pt x="82" y="-145" on="1"/>
        <pt x="37" y="-145" on="1"/>
      </contour>
    </TTGlyph>
    <TTGlyph name="commaaccent" xMin="164" yMin="-273" xMax="305" yMax="-48">
      <contour>
        <pt x="164" y="-48" on="1"/>
        <pt x="305" y="-48" on="1"/>
        <pt x="305" y="-120" on="1"/>
        <pt x="209" y="-273" on="1"/>
        <pt x="164" y="-273" on="1"/>
      </contour>
    </TTGlyph>
    <TTGlyph name="copyright" xMin="36" yMin="0" xMax="715" yMax="636">
      <contour>
        <pt x="411" y="254" on="1"/>
        <pt x="411" y="285" on="1"/>
        <pt x="514" y="285" on="1"/>
        <pt x="514" y="237" on="1"/>
        <pt x="514" y="154" on="0"/>
        <pt x="419" y="154" on="1"/>
        <pt x="333" y="154" on="1"/>
        <pt x="238" y="154" on="0"/>
        <pt x="238" y="237" on="1"/>
        <pt x="238" y="404" on="1"/>
        <pt x="238" y="487" on="0"/>
        <pt x="333" y="487" on="1"/>
        <pt x="419" y="487" on="1"/>
        <pt x="514" y="487" on="0"/>
        <pt x="514" y="404" on="1"/>
        <pt x="514" y="356" on="1"/>
        <pt x="411" y="356" on="1"/>
        <pt x="411" y="387" on="1"/>
        <pt x="411" y="406" on="0"/>
        <pt x="390" y="406" on="1"/>
        <pt x="362" y="406" on="1"/>
        <pt x="341" y="406" on="0"/>
        <pt x="341" y="387" on="1"/>
        <pt x="341" y="254" on="1"/>
        <pt x="341" y="243" on="0"/>
        <pt x="350" y="234" on="0"/>
        <pt x="362" y="234" on="1"/>
        <pt x="390" y="234" on="1"/>
        <pt x="411" y="234" on="0"/>
      </contour>
      <contour>
        <pt x="302" y="87" on="1"/>
        <pt x="449" y="87" on="1"/>
        <pt x="532" y="87" on="0"/>
        <pt x="604" y="173" on="0"/>
        <pt x="604" y="281" on="1"/>
        <pt x="604" y="352" on="1"/>
        <pt x="604" y="461" on="0"/>
        <pt x="532" y="549" on="0"/>
        <pt x="449" y="549" on="1"/>
        <pt x="302" y="549" on="1"/>
        <pt x="218" y="549" on="0"/>
        <pt x="147" y="461" on="0"/>
        <pt x="147" y="352" on="1"/>
        <pt x="147" y="281" on="1"/>
        <pt x="147" y="173" on="0"/>
        <pt x="218" y="87" on="0"/>
      </contour>
      <contour>
        <pt x="715" y="339" on="1"/>
        <pt x="715" y="294" on="1"/>
        <pt x="715" y="149" on="0"/>
        <pt x="606" y="0" on="0"/>
        <pt x="472" y="0" on="1"/>
        <pt x="278" y="0" on="1"/>
        <pt x="145" y="0" on="0"/>
        <pt x="36" y="149" on="0"/>
        <pt x="36" y="294" on="1"/>
        <pt x="36" y="339" on="1"/>
        <pt x="36" y="485" on="0"/>
        <pt x="145" y="636" on="0"/>
        <pt x="278" y="636" on="1"/>
        <pt x="472" y="636" on="1"/>
        <pt x="605" y="636" on="0"/>
        <pt x="715" y="485" on="0"/>
      </contour>
    </TTGlyph>
    <TTGlyph name="currency" xMin="42" yMin="43" xMax="499" yMax="571">
      <contour>
        <pt x="315" y="504" on="1"/>
        <pt x="346" y="503" on="1"/>
        <pt x="414" y="571" on="1"/>
        <pt x="499" y="485" on="1"/>
        <pt x="451" y="437" on="1"/>
        <pt x="466" y="406" on="0"/>
        <pt x="466" y="350" on="1"/>
        <pt x="466" y="249" on="1"/>
        <pt x="466" y="202" on="0"/>
        <pt x="455" y="172" on="1"/>
        <pt x="499" y="128" on="1"/>
        <pt x="414" y="43" on="1"/>
        <pt x="358" y="99" on="1"/>
        <pt x="338" y="96" on="0"/>
        <pt x="315" y="96" on="1"/>
        <pt x="232" y="96" on="1"/>
        <pt x="203" y="96" on="0"/>
        <pt x="184" y="100" on="1"/>
        <pt x="126" y="43" on="1"/>
        <pt x="42" y="128" on="1"/>
        <pt x="90" y="177" on="1"/>
        <pt x="81" y="208" on="0"/>
        <pt x="81" y="249" on="1"/>
        <pt x="81" y="350" on="1"/>
        <pt x="81" y="400" on="0"/>
        <pt x="94" y="433" on="1"/>
        <pt x="42" y="485" on="1"/>
        <pt x="126" y="571" on="1"/>
        <pt x="196" y="502" on="1"/>
        <pt x="218" y="504" on="0"/>
        <pt x="232" y="504" on="1"/>
      </contour>
      <contour>
        <pt x="258" y="190" on="1"/>
        <pt x="287" y="190" on="1"/>
        <pt x="323" y="190" on="0"/>
        <pt x="350" y="213" on="0"/>
        <pt x="350" y="252" on="1"/>
        <pt x="350" y="346" on="1"/>
        <pt x="350" y="385" on="0"/>
        <pt x="322" y="410" on="0"/>
        <pt x="287" y="410" on="1"/>
        <pt x="258" y="410" on="1"/>
        <pt x="223" y="410" on="0"/>
        <pt x="195" y="385" on="0"/>
        <pt x="195" y="346" on="1"/>
        <pt x="195" y="252" on="1"/>
        <pt x="195" y="213" on="0"/>
        <pt x="222" y="190" on="0"/>
      </contour>
    </TTGlyph>
    <TTGlyph name="d" xMin="33" yMin="0" xMax="392" yMax="669">
      <contour>
        <pt x="253" y="669" on="1"/>
        <pt x="392" y="669" on="1"/>
        <pt x="392" y="0" on="1"/>
        <pt x="255" y="0" on="1"/>
        <pt x="255" y="56" on="1"/>
        <pt x="241" y="0" on="0"/>
        <pt x="174" y="0" on="1"/>
        <pt x="150" y="0" on="1"/>
        <pt x="33" y="0" on="0"/>
        <pt x="33" y="111" on="1"/>
        <pt x="33" y="385" on="1"/>
        <pt x="33" y="495" on="0"/>
        <pt x="150" y="495" on="1"/>
        <pt x="174" y="495" on="1"/>
        <pt x="238" y="495" on="0"/>
        <pt x="253" y="446" on="1"/>
      </contour>
      <contour>
        <pt x="200" y="105" on="1"/>
        <pt x="223" y="105" on="1"/>
        <pt x="253" y="105" on="0"/>
        <pt x="253" y="137" on="1"/>
        <pt x="253" y="358" on="1"/>
        <pt x="253" y="390" on="0"/>
        <pt x="223" y="390" on="1"/>
        <pt x="200" y="390" on="1"/>
        <pt x="185" y="390" on="0"/>
        <pt x="173" y="379" on="0"/>
        <pt x="173" y="365" on="1"/>
        <pt x="173" y="130" on="1"/>
        <pt x="173" y="105" on="0"/>
      </contour>
    </TTGlyph>
    <TTGlyph name="dagger" xMin="9" yMin="-109" xMax="411" yMax="636">
      <contour>
        <pt x="411" y="480" on="1"/>
        <pt x="411" y="382" on="1"/>
        <pt x="281" y="382" on="1"/>
        <pt x="281" y="-109" on="1"/>
        <pt x="138" y="-109" on="1"/>
        <pt x="138" y="382" on="1"/>
        <pt x="9" y="382" on="1"/>
        <pt x="9" y="480" on="1"/>
        <pt x="138" y="480" on="1"/>
        <pt x="138" y="636" on="1"/>
        <pt x="281" y="636" on="1"/>
        <pt x="281" y="480" on="1"/>
      </contour>
    </TTGlyph>
    <TTGlyph name="daggerdbl" xMin="22" yMin="-143" xMax="424" yMax="636">
      <contour>
        <pt x="424" y="382" on="1"/>
        <pt x="294" y="382" on="1"/>
        <pt x="294" y="111" on="1"/>
        <pt x="424" y="111" on="1"/>
        <pt x="424" y="13" on="1"/>
        <pt x="294" y="13" on="1"/>
        <pt x="294" y="-143" on="1"/>
        <pt x="151" y="-143" on="1"/>
        <pt x="151" y="13" on="1"/>
        <pt x="22" y="13" on="1"/>
        <pt x="22" y="111" on="1"/>
        <pt x="151" y="111" on="1"/>
        <pt x="151" y="382" on="1"/>
        <pt x="22" y="382" on="1"/>
        <pt x="22" y="480" on="1"/>
        <pt x="151" y="480" on="1"/>
        <pt x="151" y="636" on="1"/>
        <pt x="294" y="636" on="1"/>
        <pt x="294" y="480" on="1"/>
        <pt x="424" y="480" on="1"/>
      </contour>
    </TTGlyph>
    <TTGlyph name="dcaron" xMin="33" yMin="0" xMax="534" yMax="669">
      <contour>
        <pt x="434" y="669" on="1"/>
        <pt x="534" y="669" on="1"/>
        <pt x="534" y="603" on="1"/>
        <pt x="470" y="472" on="1"/>
        <pt x="434" y="472" on="1"/>
      </contour>
      <contour>
        <pt x="253" y="669" on="1"/>
        <pt x="392" y="669" on="1"/>
        <pt x="392" y="0" on="1"/>
        <pt x="255" y="0" on="1"/>
        <pt x="255" y="56" on="1"/>
        <pt x="241" y="0" on="0"/>
        <pt x="174" y="0" on="1"/>
        <pt x="150" y="0" on="1"/>
        <pt x="33" y="0" on="0"/>
        <pt x="33" y="111" on="1"/>
        <pt x="33" y="385" on="1"/>
        <pt x="33" y="495" on="0"/>
        <pt x="150" y="495" on="1"/>
        <pt x="174" y="495" on="1"/>
        <pt x="238" y="495" on="0"/>
        <pt x="253" y="446" on="1"/>
      </contour>
      <contour>
        <pt x="200" y="105" on="1"/>
        <pt x="223" y="105" on="1"/>
        <pt x="253" y="105" on="0"/>
        <pt x="253" y="137" on="1"/>
        <pt x="253" y="358" on="1"/>
        <pt x="253" y="390" on="0"/>
        <pt x="223" y="390" on="1"/>
        <pt x="200" y="390" on="1"/>
        <pt x="185" y="390" on="0"/>
        <pt x="173" y="379" on="0"/>
        <pt x="173" y="365" on="1"/>
        <pt x="173" y="130" on="1"/>
        <pt x="173" y="105" on="0"/>
      </contour>
    </TTGlyph>
    <TTGlyph name="dcroat" xMin="38" yMin="0" xMax="446" yMax="669">
      <contour>
        <pt x="446" y="616" on="1"/>
        <pt x="446" y="546" on="1"/>
        <pt x="397" y="546" on="1"/>
        <pt x="397" y="0" on="1"/>
        <pt x="260" y="0" on="1"/>
        <pt x="260" y="56" on="1"/>
        <pt x="246" y="0" on="0"/>
        <pt x="179" y="0" on="1"/>
        <pt x="155" y="0" on="1"/>
        <pt x="38" y="0" on="0"/>
        <pt x="38" y="111" on="1"/>
        <pt x="38" y="384" on="1"/>
        <pt x="38" y="495" on="0"/>
        <pt x="155" y="495" on="1"/>
        <pt x="179" y="495" on="1"/>
        <pt x="243" y="495" on="0"/>
        <pt x="258" y="446" on="1"/>
        <pt x="258" y="546" on="1"/>
        <pt x="190" y="546" on="1"/>
        <pt x="190" y="616" on="1"/>
        <pt x="258" y="616" on="1"/>
        <pt x="258" y="669" on="1"/>
        <pt x="397" y="669" on="1"/>
        <pt x="397" y="616" on="1"/>
      </contour>
      <contour>
        <pt x="205" y="105" on="1"/>
        <pt x="228" y="105" on="1"/>
        <pt x="258" y="105" on="0"/>
        <pt x="258" y="137" on="1"/>
        <pt x="258" y="358" on="1"/>
        <pt x="258" y="390" on="0"/>
        <pt x="228" y="390" on="1"/>
        <pt x="205" y="390" on="1"/>
        <pt x="178" y="390" on="0"/>
        <pt x="178" y="365" on="1"/>
        <pt x="178" y="130" on="1"/>
        <pt x="178" y="105" on="0"/>
      </contour>
    </TTGlyph>
    <TTGlyph name="degree" xMin="45" yMin="318" xMax="398" yMax="636">
      <contour>
        <pt x="269" y="433" on="1"/>
        <pt x="269" y="521" on="1"/>
        <pt x="269" y="546" on="0"/>
        <pt x="242" y="546" on="1"/>
        <pt x="202" y="546" on="1"/>
        <pt x="175" y="546" on="0"/>
        <pt x="175" y="521" on="1"/>
        <pt x="175" y="433" on="1"/>
        <pt x="175" y="408" on="0"/>
        <pt x="202" y="408" on="1"/>
        <pt x="242" y="408" on="1"/>
        <pt x="269" y="408" on="0"/>
      </contour>
      <contour>
        <pt x="398" y="526" on="1"/>
        <pt x="398" y="428" on="1"/>
        <pt x="398" y="318" on="0"/>
        <pt x="276" y="318" on="1"/>
        <pt x="168" y="318" on="1"/>
        <pt x="45" y="318" on="0"/>
        <pt x="45" y="428" on="1"/>
        <pt x="45" y="526" on="1"/>
        <pt x="45" y="636" on="0"/>
        <pt x="168" y="636" on="1"/>
        <pt x="276" y="636" on="1"/>
        <pt x="398" y="636" on="0"/>
      </contour>
    </TTGlyph>
    <TTGlyph name="dieresis" xMin="58" yMin="542" xMax="412" yMax="658">
      <contour>
        <pt x="279" y="542" on="1"/>
        <pt x="279" y="658" on="1"/>
        <pt x="412" y="658" on="1"/>
        <pt x="412" y="542" on="1"/>
      </contour>
      <contour>
        <pt x="58" y="542" on="1"/>
        <pt x="58" y="658" on="1"/>
        <pt x="191" y="658" on="1"/>
        <pt x="191" y="542" on="1"/>
      </contour>
    </TTGlyph>
    <TTGlyph name="divide" xMin="25" yMin="111" xMax="462" yMax="523">
      <contour>
        <pt x="176" y="215" on="1"/>
        <pt x="311" y="215" on="1"/>
        <pt x="311" y="111" on="1"/>
        <pt x="176" y="111" on="1"/>
      </contour>
      <contour>
        <pt x="176" y="523" on="1"/>
        <pt x="311" y="523" on="1"/>
        <pt x="311" y="419" on="1"/>
        <pt x="176" y="419" on="1"/>
      </contour>
      <contour>
        <pt x="25" y="264" on="1"/>
        <pt x="25" y="370" on="1"/>
        <pt x="462" y="370" on="1"/>
        <pt x="462" y="264" on="1"/>
      </contour>
    </TTGlyph>
    <TTGlyph name="dollar" xMin="33" yMin="-81" xMax="409" yMax="718">
      <contour>
        <pt x="203" y="370" on="1"/>
        <pt x="289" y="370" on="1"/>
        <pt x="353" y="370" on="0"/>
        <pt x="409" y="315" on="0"/>
        <pt x="409" y="261" on="1"/>
        <pt x="409" y="111" on="1"/>
        <pt x="409" y="3" on="0"/>
        <pt x="288" y="0" on="1"/>
        <pt x="288" y="-81" on="1"/>
        <pt x="153" y="-81" on="1"/>
        <pt x="153" y="0" on="1"/>
        <pt x="35" y="4" on="0"/>
        <pt x="35" y="111" on="1"/>
        <pt x="35" y="193" on="1"/>
        <pt x="178" y="193" on="1"/>
        <pt x="178" y="130" on="1"/>
        <pt x="178" y="105" on="0"/>
        <pt x="205" y="105" on="1"/>
        <pt x="239" y="105" on="1"/>
        <pt x="266" y="105" on="0"/>
        <pt x="266" y="130" on="1"/>
        <pt x="266" y="245" on="1"/>
        <pt x="266" y="258" on="0"/>
        <pt x="254" y="269" on="0"/>
        <pt x="239" y="269" on="1"/>
        <pt x="151" y="269" on="1"/>
        <pt x="33" y="269" on="0"/>
        <pt x="33" y="381" on="1"/>
        <pt x="33" y="526" on="1"/>
        <pt x="33" y="633" on="0"/>
        <pt x="153" y="636" on="1"/>
        <pt x="153" y="718" on="1"/>
        <pt x="288" y="718" on="1"/>
        <pt x="288" y="636" on="1"/>
        <pt x="407" y="633" on="0"/>
        <pt x="407" y="526" on="1"/>
        <pt x="407" y="443" on="1"/>
        <pt x="264" y="443" on="1"/>
        <pt x="264" y="506" on="1"/>
        <pt x="264" y="531" on="0"/>
        <pt x="237" y="531" on="1"/>
        <pt x="203" y="531" on="1"/>
        <pt x="176" y="531" on="0"/>
        <pt x="176" y="506" on="1"/>
        <pt x="176" y="394" on="1"/>
        <pt x="176" y="381" on="0"/>
        <pt x="188" y="370" on="0"/>
      </contour>
    </TTGlyph>
    <TTGlyph name="dotaccent" xMin="165" yMin="540" xMax="306" yMax="657">
      <contour>
        <pt x="165" y="540" on="1"/>
        <pt x="165" y="657" on="1"/>
        <pt x="306" y="657" on="1"/>
        <pt x="306" y="540" on="1"/>
      </contour>
    </TTGlyph>
    <TTGlyph name="dotlessi" xMin="42" yMin="0" xMax="181" yMax="495">
      <contour>
        <pt x="181" y="0" on="1"/>
        <pt x="42" y="0" on="1"/>
        <pt x="42" y="495" on="1"/>
        <pt x="181" y="495" on="1"/>
      </contour>
    </TTGlyph>
    <TTGlyph name="dvBH_N" xMin="42" yMin="78" xMax="918" yMax="640">
      <contour>
        <pt x="475" y="636" on="1"/>
        <pt x="918" y="636" on="1"/>
        <pt x="918" y="539" on="1"/>
        <pt x="475" y="539" on="1"/>
      </contour>
      <contour>
        <pt x="401" y="414" on="1"/>
        <pt x="479" y="414" on="1"/>
        <pt x="495" y="476" on="0"/>
        <pt x="597" y="476" on="1"/>
        <pt x="918" y="476" on="1"/>
        <pt x="918" y="379" on="1"/>
        <pt x="830" y="379" on="1"/>
        <pt x="830" y="191" on="1"/>
        <pt x="830" y="130" on="0"/>
        <pt x="768" y="78" on="0"/>
        <pt x="693" y="78" on="1"/>
        <pt x="612" y="78" on="1"/>
        <pt x="537" y="78" on="0"/>
        <pt x="475" y="130" on="0"/>
        <pt x="475" y="191" on="1"/>
        <pt x="475" y="318" on="1"/>
        <pt x="401" y="318" on="1"/>
        <pt x="401" y="191" on="1"/>
        <pt x="401" y="130" on="0"/>
        <pt x="340" y="78" on="0"/>
        <pt x="265" y="78" on="1"/>
        <pt x="178" y="78" on="1"/>
        <pt x="103" y="78" on="0"/>
        <pt x="42" y="130" on="0"/>
        <pt x="42" y="191" on="1"/>
        <pt x="42" y="316" on="1"/>
        <pt x="42" y="368" on="0"/>
        <pt x="96" y="414" on="0"/>
        <pt x="163" y="414" on="1"/>
        <pt x="262" y="414" on="1"/>
        <pt x="262" y="519" on="1"/>
        <pt x="262" y="533" on="0"/>
        <pt x="250" y="543" on="0"/>
        <pt x="236" y="543" on="1"/>
        <pt x="215" y="543" on="1"/>
        <pt x="201" y="543" on="0"/>
        <pt x="190" y="533" on="0"/>
        <pt x="190" y="519" on="1"/>
        <pt x="190" y="484" on="1"/>
        <pt x="50" y="484" on="1"/>
        <pt x="50" y="534" on="1"/>
        <pt x="50" y="587" on="0"/>
        <pt x="106" y="640" on="0"/>
        <pt x="172" y="640" on="1"/>
        <pt x="280" y="640" on="1"/>
        <pt x="346" y="640" on="0"/>
        <pt x="401" y="587" on="0"/>
        <pt x="401" y="534" on="1"/>
      </contour>
      <contour>
        <pt x="262" y="201" on="1"/>
        <pt x="262" y="318" on="1"/>
        <pt x="207" y="318" on="1"/>
        <pt x="192" y="318" on="0"/>
        <pt x="181" y="308" on="0"/>
        <pt x="181" y="294" on="1"/>
        <pt x="181" y="201" on="1"/>
        <pt x="181" y="186" on="0"/>
        <pt x="194" y="175" on="0"/>
        <pt x="208" y="175" on="1"/>
        <pt x="235" y="175" on="1"/>
        <pt x="249" y="175" on="0"/>
        <pt x="262" y="186" on="0"/>
      </contour>
      <contour>
        <pt x="615" y="356" on="1"/>
        <pt x="615" y="201" on="1"/>
        <pt x="615" y="186" on="0"/>
        <pt x="627" y="175" on="0"/>
        <pt x="642" y="175" on="1"/>
        <pt x="663" y="175" on="1"/>
        <pt x="677" y="175" on="0"/>
        <pt x="690" y="186" on="0"/>
        <pt x="690" y="201" on="1"/>
        <pt x="690" y="379" on="1"/>
        <pt x="640" y="379" on="1"/>
        <pt x="626" y="379" on="0"/>
        <pt x="615" y="369" on="0"/>
      </contour>
    </TTGlyph>
    <TTGlyph name="dvB_N" xMin="-20" yMin="78" xMax="779" yMax="636">
      <contour>
        <pt x="-20" y="636" on="1"/>
        <pt x="779" y="636" on="1"/>
        <pt x="779" y="539" on="1"/>
        <pt x="-20" y="539" on="1"/>
      </contour>
      <contour>
        <pt x="336" y="273" on="1"/>
        <pt x="336" y="377" on="1"/>
        <pt x="336" y="429" on="0"/>
        <pt x="391" y="476" on="0"/>
        <pt x="458" y="476" on="1"/>
        <pt x="779" y="476" on="1"/>
        <pt x="779" y="379" on="1"/>
        <pt x="691" y="379" on="1"/>
        <pt x="691" y="191" on="1"/>
        <pt x="691" y="130" on="0"/>
        <pt x="629" y="78" on="0"/>
        <pt x="554" y="78" on="1"/>
        <pt x="473" y="78" on="1"/>
        <pt x="400" y="78" on="0"/>
        <pt x="368" y="103" on="1"/>
        <pt x="349" y="78" on="0"/>
        <pt x="303" y="78" on="1"/>
        <pt x="153" y="78" on="1"/>
        <pt x="95" y="78" on="0"/>
        <pt x="38" y="131" on="0"/>
        <pt x="38" y="191" on="1"/>
        <pt x="38" y="377" on="1"/>
        <pt x="38" y="429" on="0"/>
        <pt x="92" y="476" on="0"/>
        <pt x="159" y="476" on="1"/>
        <pt x="295" y="476" on="1"/>
        <pt x="295" y="386" on="1"/>
        <pt x="222" y="386" on="1"/>
        <pt x="273" y="308" on="1"/>
        <pt x="342" y="212" on="1"/>
        <pt x="336" y="242" on="0"/>
      </contour>
      <contour>
        <pt x="177" y="201" on="1"/>
        <pt x="177" y="186" on="0"/>
        <pt x="188" y="175" on="0"/>
        <pt x="203" y="175" on="1"/>
        <pt x="300" y="175" on="1"/>
        <pt x="236" y="264" on="1"/>
        <pt x="198" y="326" on="0"/>
        <pt x="177" y="351" on="1"/>
      </contour>
      <contour>
        <pt x="476" y="356" on="1"/>
        <pt x="476" y="201" on="1"/>
        <pt x="476" y="186" on="0"/>
        <pt x="489" y="175" on="0"/>
        <pt x="503" y="175" on="1"/>
        <pt x="524" y="175" on="1"/>
        <pt x="539" y="175" on="0"/>
        <pt x="551" y="186" on="0"/>
        <pt x="551" y="201" on="1"/>
        <pt x="551" y="379" on="1"/>
        <pt x="502" y="379" on="1"/>
        <pt x="487" y="379" on="0"/>
        <pt x="476" y="369" on="0"/>
      </contour>
    </TTGlyph>
    <TTGlyph name="dvCH_N" xMin="-20" yMin="-436" xMax="661" yMax="636">
      <contour>
        <pt x="-20" y="636" on="1"/>
        <pt x="661" y="636" on="1"/>
        <pt x="661" y="539" on="1"/>
        <pt x="506" y="539" on="1"/>
        <pt x="506" y="475" on="1"/>
        <pt x="553" y="470" on="0"/>
        <pt x="599" y="424" on="0"/>
        <pt x="599" y="377" on="1"/>
        <pt x="599" y="113" on="1"/>
        <pt x="599" y="56" on="0"/>
        <pt x="540" y="3" on="0"/>
        <pt x="477" y="0" on="1"/>
        <pt x="477" y="-268" on="1"/>
        <pt x="372" y="-268" on="1"/>
        <pt x="372" y="-155" on="1"/>
        <pt x="286" y="-155" on="1"/>
        <pt x="271" y="-155" on="0"/>
        <pt x="260" y="-166" on="0"/>
        <pt x="260" y="-181" on="1"/>
        <pt x="260" y="-217" on="1"/>
        <pt x="156" y="-216" on="1"/>
        <pt x="156" y="-165" on="1"/>
        <pt x="156" y="-112" on="0"/>
        <pt x="207" y="-67" on="0"/>
        <pt x="260" y="-67" on="1"/>
        <pt x="372" y="-67" on="1"/>
        <pt x="372" y="0" on="1"/>
        <pt x="177" y="0" on="1"/>
        <pt x="106" y="0" on="0"/>
        <pt x="40" y="53" on="0"/>
        <pt x="40" y="113" on="1"/>
        <pt x="40" y="259" on="1"/>
        <pt x="40" y="306" on="0"/>
        <pt x="84" y="312" on="1"/>
        <pt x="84" y="316" on="1"/>
        <pt x="40" y="321" on="0"/>
        <pt x="40" y="369" on="1"/>
        <pt x="40" y="514" on="1"/>
        <pt x="40" y="530" on="0"/>
        <pt x="46" y="539" on="1"/>
        <pt x="-20" y="539" on="1"/>
      </contour>
      <contour>
        <pt x="375" y="539" on="1"/>
        <pt x="209" y="539" on="1"/>
        <pt x="192" y="538" on="0"/>
        <pt x="180" y="525" on="0"/>
        <pt x="180" y="506" on="1"/>
        <pt x="180" y="389" on="1"/>
        <pt x="180" y="374" on="0"/>
        <pt x="191" y="363" on="0"/>
        <pt x="205" y="363" on="1"/>
        <pt x="240" y="363" on="1"/>
        <pt x="240" y="266" on="1"/>
        <pt x="205" y="266" on="1"/>
        <pt x="191" y="266" on="0"/>
        <pt x="180" y="255" on="0"/>
        <pt x="180" y="240" on="1"/>
        <pt x="180" y="124" on="1"/>
        <pt x="180" y="109" on="0"/>
        <pt x="191" y="98" on="0"/>
        <pt x="205" y="98" on="1"/>
        <pt x="435" y="98" on="1"/>
        <pt x="449" y="98" on="0"/>
        <pt x="460" y="109" on="0"/>
        <pt x="460" y="124" on="1"/>
        <pt x="460" y="369" on="1"/>
        <pt x="460" y="382" on="0"/>
        <pt x="449" y="392" on="0"/>
        <pt x="435" y="392" on="1"/>
        <pt x="418" y="392" on="1"/>
        <pt x="392" y="392" on="0"/>
        <pt x="392" y="369" on="1"/>
        <pt x="392" y="302" on="1"/>
        <pt x="392" y="288" on="0"/>
        <pt x="404" y="278" on="0"/>
        <pt x="418" y="278" on="1"/>
        <pt x="432" y="278" on="1"/>
        <pt x="432" y="195" on="1"/>
        <pt x="392" y="195" on="1"/>
        <pt x="338" y="195" on="0"/>
        <pt x="282" y="240" on="0"/>
        <pt x="282" y="294" on="1"/>
        <pt x="282" y="377" on="1"/>
        <pt x="282" y="424" on="0"/>
        <pt x="328" y="470" on="0"/>
        <pt x="375" y="475" on="1"/>
      </contour>
      <contour>
        <pt x="355" y="-292" on="1"/>
        <pt x="494" y="-292" on="1"/>
        <pt x="615" y="-436" on="1"/>
        <pt x="476" y="-436" on="1"/>
      </contour>
    </TTGlyph>
    <TTGlyph name="dvC_N" xMin="-21" yMin="78" xMax="753" yMax="636">
      <contour>
        <pt x="-21" y="636" on="1"/>
        <pt x="753" y="636" on="1"/>
        <pt x="753" y="539" on="1"/>
        <pt x="-21" y="539" on="1"/>
      </contour>
      <contour>
        <pt x="303" y="209" on="1"/>
        <pt x="303" y="377" on="1"/>
        <pt x="303" y="429" on="0"/>
        <pt x="358" y="476" on="0"/>
        <pt x="425" y="476" on="1"/>
        <pt x="753" y="476" on="1"/>
        <pt x="753" y="379" on="1"/>
        <pt x="657" y="379" on="1"/>
        <pt x="657" y="191" on="1"/>
        <pt x="657" y="130" on="0"/>
        <pt x="596" y="78" on="0"/>
        <pt x="521" y="78" on="1"/>
        <pt x="440" y="78" on="1"/>
        <pt x="367" y="78" on="0"/>
        <pt x="335" y="103" on="1"/>
        <pt x="324" y="78" on="0"/>
        <pt x="284" y="78" on="1"/>
        <pt x="167" y="78" on="1"/>
        <pt x="109" y="78" on="0"/>
        <pt x="51" y="132" on="0"/>
        <pt x="51" y="191" on="1"/>
        <pt x="51" y="334" on="1"/>
        <pt x="51" y="364" on="0"/>
        <pt x="66" y="379" on="1"/>
        <pt x="-7" y="379" on="1"/>
        <pt x="-7" y="476" on="1"/>
        <pt x="245" y="476" on="1"/>
        <pt x="245" y="379" on="1"/>
        <pt x="217" y="379" on="1"/>
        <pt x="202" y="379" on="0"/>
        <pt x="191" y="368" on="0"/>
        <pt x="191" y="353" on="1"/>
        <pt x="191" y="201" on="1"/>
        <pt x="191" y="186" on="0"/>
        <pt x="202" y="175" on="0"/>
        <pt x="216" y="175" on="1"/>
        <pt x="269" y="175" on="1"/>
        <pt x="288" y="175" on="0"/>
        <pt x="303" y="190" on="0"/>
      </contour>
      <contour>
        <pt x="443" y="356" on="1"/>
        <pt x="443" y="201" on="1"/>
        <pt x="443" y="186" on="0"/>
        <pt x="455" y="175" on="0"/>
        <pt x="470" y="175" on="1"/>
        <pt x="491" y="175" on="1"/>
        <pt x="505" y="175" on="0"/>
        <pt x="518" y="186" on="0"/>
        <pt x="518" y="201" on="1"/>
        <pt x="518" y="379" on="1"/>
        <pt x="468" y="379" on="1"/>
        <pt x="454" y="379" on="0"/>
        <pt x="443" y="369" on="0"/>
      </contour>
    </TTGlyph>
    <TTGlyph name="dvDDH_DDHA" xMin="-20" yMin="-246" xMax="495" yMax="636">
      <contour>
        <pt x="398" y="379" on="1"/>
        <pt x="211" y="379" on="1"/>
        <pt x="197" y="379" on="0"/>
        <pt x="184" y="368" on="0"/>
        <pt x="184" y="353" on="1"/>
        <pt x="184" y="195" on="1"/>
        <pt x="184" y="180" on="0"/>
        <pt x="197" y="169" on="0"/>
        <pt x="211" y="169" on="1"/>
        <pt x="273" y="169" on="1"/>
        <pt x="287" y="169" on="0"/>
        <pt x="299" y="180" on="0"/>
        <pt x="299" y="195" on="1"/>
        <pt x="299" y="211" on="1"/>
        <pt x="299" y="226" on="0"/>
        <pt x="287" y="237" on="0"/>
        <pt x="273" y="237" on="1"/>
        <pt x="225" y="237" on="1"/>
        <pt x="225" y="333" on="1"/>
        <pt x="303" y="333" on="1"/>
        <pt x="378" y="333" on="0"/>
        <pt x="439" y="282" on="0"/>
        <pt x="439" y="221" on="1"/>
        <pt x="439" y="185" on="1"/>
        <pt x="439" y="124" on="0"/>
        <pt x="378" y="72" on="0"/>
        <pt x="303" y="72" on="1"/>
        <pt x="210" y="72" on="1"/>
        <pt x="195" y="72" on="0"/>
        <pt x="184" y="62" on="0"/>
        <pt x="184" y="49" on="1"/>
        <pt x="184" y="-123" on="1"/>
        <pt x="184" y="-138" on="0"/>
        <pt x="197" y="-149" on="0"/>
        <pt x="211" y="-149" on="1"/>
        <pt x="273" y="-149" on="1"/>
        <pt x="287" y="-149" on="0"/>
        <pt x="299" y="-138" on="0"/>
        <pt x="299" y="-123" on="1"/>
        <pt x="299" y="-109" on="1"/>
        <pt x="299" y="-94" on="0"/>
        <pt x="287" y="-83" on="0"/>
        <pt x="273" y="-83" on="1"/>
        <pt x="225" y="-83" on="1"/>
        <pt x="225" y="14" on="1"/>
        <pt x="303" y="14" on="1"/>
        <pt x="378" y="14" on="0"/>
        <pt x="439" y="-38" on="0"/>
        <pt x="439" y="-99" on="1"/>
        <pt x="439" y="-133" on="1"/>
        <pt x="439" y="-194" on="0"/>
        <pt x="378" y="-246" on="0"/>
        <pt x="303" y="-246" on="1"/>
        <pt x="181" y="-246" on="1"/>
        <pt x="106" y="-246" on="0"/>
        <pt x="45" y="-194" on="0"/>
        <pt x="45" y="-133" on="1"/>
        <pt x="45" y="27" on="1"/>
        <pt x="45" y="77" on="0"/>
        <pt x="89" y="83" on="1"/>
        <pt x="89" y="87" on="1"/>
        <pt x="45" y="92" on="0"/>
        <pt x="45" y="147" on="1"/>
        <pt x="45" y="377" on="1"/>
        <pt x="45" y="429" on="0"/>
        <pt x="99" y="476" on="0"/>
        <pt x="166" y="476" on="1"/>
        <pt x="259" y="476" on="1"/>
        <pt x="259" y="539" on="1"/>
        <pt x="-20" y="539" on="1"/>
        <pt x="-20" y="636" on="1"/>
        <pt x="495" y="636" on="1"/>
        <pt x="495" y="539" on="1"/>
        <pt x="398" y="539" on="1"/>
      </contour>
    </TTGlyph>
    <TTGlyph name="dvDD_GA" xMin="-20" yMin="-187" xMax="454" yMax="636">
      <contour>
        <pt x="369" y="386" on="1"/>
        <pt x="207" y="386" on="1"/>
        <pt x="193" y="386" on="0"/>
        <pt x="182" y="376" on="0"/>
        <pt x="182" y="363" on="1"/>
        <pt x="182" y="326" on="1"/>
        <pt x="182" y="312" on="0"/>
        <pt x="193" y="302" on="0"/>
        <pt x="207" y="302" on="1"/>
        <pt x="267" y="302" on="1"/>
        <pt x="334" y="302" on="0"/>
        <pt x="388" y="256" on="0"/>
        <pt x="388" y="204" on="1"/>
        <pt x="388" y="99" on="1"/>
        <pt x="388" y="34" on="0"/>
        <pt x="345" y="13" on="1"/>
        <pt x="345" y="-187" on="1"/>
        <pt x="241" y="-187" on="1"/>
        <pt x="241" y="0" on="1"/>
        <pt x="190" y="0" on="1"/>
        <pt x="190" y="-73" on="1"/>
        <pt x="190" y="-111" on="0"/>
        <pt x="151" y="-146" on="0"/>
        <pt x="102" y="-146" on="1"/>
        <pt x="46" y="-146" on="1"/>
        <pt x="46" y="-76" on="1"/>
        <pt x="67" y="-76" on="1"/>
        <pt x="86" y="-76" on="0"/>
        <pt x="86" y="-58" on="1"/>
        <pt x="86" y="10" on="1"/>
        <pt x="34" y="29" on="0"/>
        <pt x="34" y="99" on="1"/>
        <pt x="34" y="161" on="1"/>
        <pt x="174" y="161" on="1"/>
        <pt x="174" y="113" on="1"/>
        <pt x="174" y="90" on="0"/>
        <pt x="195" y="90" on="1"/>
        <pt x="223" y="90" on="1"/>
        <pt x="238" y="90" on="0"/>
        <pt x="249" y="100" on="0"/>
        <pt x="249" y="113" on="1"/>
        <pt x="249" y="189" on="1"/>
        <pt x="249" y="203" on="0"/>
        <pt x="238" y="213" on="0"/>
        <pt x="223" y="213" on="1"/>
        <pt x="164" y="213" on="1"/>
        <pt x="96" y="213" on="0"/>
        <pt x="42" y="259" on="0"/>
        <pt x="42" y="311" on="1"/>
        <pt x="42" y="377" on="1"/>
        <pt x="42" y="429" on="0"/>
        <pt x="96" y="476" on="0"/>
        <pt x="164" y="476" on="1"/>
        <pt x="230" y="476" on="1"/>
        <pt x="230" y="539" on="1"/>
        <pt x="-20" y="539" on="1"/>
        <pt x="-20" y="636" on="1"/>
        <pt x="454" y="636" on="1"/>
        <pt x="454" y="539" on="1"/>
        <pt x="369" y="539" on="1"/>
      </contour>
    </TTGlyph>
    <TTGlyph name="dvDD_N" xMin="-20" yMin="-436" xMax="496" yMax="636">
      <contour>
        <pt x="375" y="-292" on="1"/>
        <pt x="496" y="-436" on="1"/>
        <pt x="357" y="-436" on="1"/>
        <pt x="236" y="-292" on="1"/>
      </contour>
      <contour>
        <pt x="253" y="-268" on="1"/>
        <pt x="253" y="-155" on="1"/>
        <pt x="189" y="-155" on="1"/>
        <pt x="174" y="-155" on="0"/>
        <pt x="163" y="-166" on="0"/>
        <pt x="163" y="-181" on="1"/>
        <pt x="163" y="-217" on="1"/>
        <pt x="59" y="-216" on="1"/>
        <pt x="59" y="-165" on="1"/>
        <pt x="59" y="-112" on="0"/>
        <pt x="110" y="-67" on="0"/>
        <pt x="163" y="-67" on="1"/>
        <pt x="253" y="-67" on="1"/>
        <pt x="253" y="0" on="1"/>
        <pt x="156" y="0" on="1"/>
        <pt x="89" y="0" on="0"/>
        <pt x="34" y="47" on="0"/>
        <pt x="34" y="99" on="1"/>
        <pt x="34" y="161" on="1"/>
        <pt x="174" y="161" on="1"/>
        <pt x="174" y="113" on="1"/>
        <pt x="174" y="90" on="0"/>
        <pt x="195" y="90" on="1"/>
        <pt x="223" y="90" on="1"/>
        <pt x="238" y="90" on="0"/>
        <pt x="249" y="100" on="0"/>
        <pt x="249" y="113" on="1"/>
        <pt x="249" y="189" on="1"/>
        <pt x="249" y="203" on="0"/>
        <pt x="238" y="213" on="0"/>
        <pt x="223" y="213" on="1"/>
        <pt x="164" y="213" on="1"/>
        <pt x="96" y="213" on="0"/>
        <pt x="42" y="259" on="0"/>
        <pt x="42" y="311" on="1"/>
        <pt x="42" y="377" on="1"/>
        <pt x="42" y="429" on="0"/>
        <pt x="96" y="476" on="0"/>
        <pt x="164" y="476" on="1"/>
        <pt x="230" y="476" on="1"/>
        <pt x="230" y="539" on="1"/>
        <pt x="-20" y="539" on="1"/>
        <pt x="-20" y="636" on="1"/>
        <pt x="454" y="636" on="1"/>
        <pt x="454" y="539" on="1"/>
        <pt x="369" y="539" on="1"/>
        <pt x="369" y="386" on="1"/>
        <pt x="207" y="386" on="1"/>
        <pt x="193" y="386" on="0"/>
        <pt x="182" y="376" on="0"/>
        <pt x="182" y="363" on="1"/>
        <pt x="182" y="326" on="1"/>
        <pt x="182" y="312" on="0"/>
        <pt x="193" y="302" on="0"/>
        <pt x="207" y="302" on="1"/>
        <pt x="267" y="302" on="1"/>
        <pt x="334" y="302" on="0"/>
        <pt x="388" y="256" on="0"/>
        <pt x="388" y="204" on="1"/>
        <pt x="388" y="99" on="1"/>
        <pt x="388" y="44" on="0"/>
        <pt x="357" y="20" on="1"/>
        <pt x="357" y="-268" on="1"/>
      </contour>
    </TTGlyph>
    <TTGlyph name="dvDH_N" xMin="57" yMin="78" xMax="876" yMax="641">
      <contour>
        <pt x="876" y="636" on="1"/>
        <pt x="876" y="539" on="1"/>
        <pt x="378" y="539" on="1"/>
        <pt x="377" y="636" on="1"/>
      </contour>
      <contour>
        <pt x="378" y="209" on="1"/>
        <pt x="378" y="377" on="1"/>
        <pt x="378" y="429" on="0"/>
        <pt x="433" y="476" on="0"/>
        <pt x="500" y="476" on="1"/>
        <pt x="876" y="476" on="1"/>
        <pt x="876" y="379" on="1"/>
        <pt x="732" y="379" on="1"/>
        <pt x="732" y="191" on="1"/>
        <pt x="732" y="130" on="0"/>
        <pt x="671" y="78" on="0"/>
        <pt x="596" y="78" on="1"/>
        <pt x="515" y="78" on="1"/>
        <pt x="442" y="78" on="0"/>
        <pt x="410" y="103" on="1"/>
        <pt x="399" y="78" on="0"/>
        <pt x="359" y="78" on="1"/>
        <pt x="171" y="78" on="1"/>
        <pt x="112" y="78" on="0"/>
        <pt x="57" y="125" on="0"/>
        <pt x="57" y="176" on="1"/>
        <pt x="57" y="290" on="1"/>
        <pt x="57" y="338" on="0"/>
        <pt x="101" y="343" on="1"/>
        <pt x="101" y="347" on="1"/>
        <pt x="57" y="353" on="0"/>
        <pt x="57" y="401" on="1"/>
        <pt x="57" y="543" on="1"/>
        <pt x="57" y="594" on="0"/>
        <pt x="112" y="641" on="0"/>
        <pt x="171" y="641" on="1"/>
        <pt x="219" y="641" on="1"/>
        <pt x="278" y="641" on="0"/>
        <pt x="334" y="594" on="0"/>
        <pt x="334" y="543" on="1"/>
        <pt x="334" y="482" on="1"/>
        <pt x="255" y="482" on="1"/>
        <pt x="255" y="521" on="1"/>
        <pt x="255" y="534" on="0"/>
        <pt x="244" y="544" on="0"/>
        <pt x="230" y="544" on="1"/>
        <pt x="222" y="544" on="1"/>
        <pt x="207" y="544" on="0"/>
        <pt x="196" y="534" on="0"/>
        <pt x="196" y="521" on="1"/>
        <pt x="196" y="420" on="1"/>
        <pt x="196" y="405" on="0"/>
        <pt x="207" y="394" on="0"/>
        <pt x="222" y="394" on="1"/>
        <pt x="290" y="394" on="1"/>
        <pt x="290" y="297" on="1"/>
        <pt x="222" y="297" on="1"/>
        <pt x="207" y="297" on="0"/>
        <pt x="196" y="286" on="0"/>
        <pt x="196" y="271" on="1"/>
        <pt x="196" y="201" on="1"/>
        <pt x="196" y="186" on="0"/>
        <pt x="207" y="175" on="0"/>
        <pt x="222" y="175" on="1"/>
        <pt x="344" y="175" on="1"/>
        <pt x="364" y="175" on="0"/>
        <pt x="378" y="190" on="0"/>
      </contour>
      <contour>
        <pt x="518" y="356" on="1"/>
        <pt x="518" y="201" on="1"/>
        <pt x="518" y="186" on="0"/>
        <pt x="530" y="175" on="0"/>
        <pt x="545" y="175" on="1"/>
        <pt x="566" y="175" on="1"/>
        <pt x="580" y="175" on="0"/>
        <pt x="593" y="186" on="0"/>
        <pt x="593" y="201" on="1"/>
        <pt x="593" y="379" on="1"/>
        <pt x="543" y="379" on="1"/>
        <pt x="529" y="379" on="0"/>
        <pt x="518" y="369" on="0"/>
      </contour>
    </TTGlyph>
    <TTGlyph name="dvD_N" xMin="-30" yMin="-362" xMax="522" yMax="636">
      <contour>
        <pt x="401" y="-218" on="1"/>
        <pt x="522" y="-362" on="1"/>
        <pt x="383" y="-362" on="1"/>
        <pt x="262" y="-218" on="1"/>
      </contour>
      <contour>
        <pt x="268" y="-191" on="1"/>
        <pt x="268" y="-77" on="1"/>
        <pt x="206" y="-77" on="1"/>
        <pt x="192" y="-77" on="0"/>
        <pt x="181" y="-88" on="0"/>
        <pt x="181" y="-103" on="1"/>
        <pt x="181" y="-139" on="1"/>
        <pt x="76" y="-139" on="1"/>
        <pt x="76" y="-88" on="1"/>
        <pt x="76" y="-35" on="0"/>
        <pt x="127" y="11" on="0"/>
        <pt x="180" y="11" on="1"/>
        <pt x="268" y="11" on="1"/>
        <pt x="268" y="92" on="1"/>
        <pt x="254" y="78" on="0"/>
        <pt x="221" y="78" on="1"/>
        <pt x="171" y="78" on="1"/>
        <pt x="96" y="78" on="0"/>
        <pt x="35" y="130" on="0"/>
        <pt x="35" y="191" on="1"/>
        <pt x="35" y="377" on="1"/>
        <pt x="35" y="429" on="0"/>
        <pt x="89" y="476" on="0"/>
        <pt x="156" y="476" on="1"/>
        <pt x="252" y="476" on="1"/>
        <pt x="252" y="539" on="1"/>
        <pt x="-30" y="539" on="1"/>
        <pt x="-30" y="636" on="1"/>
        <pt x="456" y="636" on="1"/>
        <pt x="456" y="539" on="1"/>
        <pt x="391" y="539" on="1"/>
        <pt x="391" y="379" on="1"/>
        <pt x="201" y="379" on="1"/>
        <pt x="187" y="379" on="0"/>
        <pt x="174" y="368" on="0"/>
        <pt x="174" y="353" on="1"/>
        <pt x="174" y="201" on="1"/>
        <pt x="174" y="186" on="0"/>
        <pt x="186" y="175" on="0"/>
        <pt x="200" y="175" on="1"/>
        <pt x="242" y="175" on="1"/>
        <pt x="256" y="175" on="0"/>
        <pt x="268" y="187" on="0"/>
        <pt x="268" y="202" on="1"/>
        <pt x="268" y="284" on="1"/>
        <pt x="394" y="284" on="1"/>
        <pt x="394" y="-191" on="1"/>
      </contour>
    </TTGlyph>
    <TTGlyph name="dvGH_N" xMin="-20" yMin="78" xMax="756" yMax="636">
      <contour>
        <pt x="756" y="539" on="1"/>
        <pt x="224" y="539" on="1"/>
        <pt x="198" y="539" on="0"/>
        <pt x="182" y="527" on="0"/>
        <pt x="182" y="506" on="1"/>
        <pt x="182" y="431" on="1"/>
        <pt x="182" y="416" on="0"/>
        <pt x="193" y="405" on="0"/>
        <pt x="208" y="405" on="1"/>
        <pt x="251" y="405" on="1"/>
        <pt x="251" y="308" on="1"/>
        <pt x="208" y="308" on="1"/>
        <pt x="193" y="308" on="0"/>
        <pt x="182" y="297" on="0"/>
        <pt x="182" y="282" on="1"/>
        <pt x="182" y="201" on="1"/>
        <pt x="182" y="186" on="0"/>
        <pt x="193" y="175" on="0"/>
        <pt x="208" y="175" on="1"/>
        <pt x="279" y="175" on="1"/>
        <pt x="298" y="175" on="0"/>
        <pt x="313" y="190" on="0"/>
        <pt x="313" y="209" on="1"/>
        <pt x="313" y="377" on="1"/>
        <pt x="313" y="429" on="0"/>
        <pt x="368" y="476" on="0"/>
        <pt x="435" y="476" on="1"/>
        <pt x="756" y="476" on="1"/>
        <pt x="756" y="379" on="1"/>
        <pt x="667" y="379" on="1"/>
        <pt x="667" y="191" on="1"/>
        <pt x="667" y="130" on="0"/>
        <pt x="606" y="78" on="0"/>
        <pt x="531" y="78" on="1"/>
        <pt x="449" y="78" on="1"/>
        <pt x="377" y="78" on="0"/>
        <pt x="345" y="103" on="1"/>
        <pt x="334" y="78" on="0"/>
        <pt x="294" y="78" on="1"/>
        <pt x="179" y="78" on="1"/>
        <pt x="108" y="78" on="0"/>
        <pt x="42" y="131" on="0"/>
        <pt x="42" y="191" on="1"/>
        <pt x="42" y="301" on="1"/>
        <pt x="42" y="349" on="0"/>
        <pt x="86" y="354" on="1"/>
        <pt x="86" y="358" on="1"/>
        <pt x="42" y="365" on="0"/>
        <pt x="42" y="411" on="1"/>
        <pt x="42" y="512" on="1"/>
        <pt x="42" y="528" on="0"/>
        <pt x="50" y="539" on="1"/>
        <pt x="-20" y="539" on="1"/>
        <pt x="-20" y="636" on="1"/>
        <pt x="756" y="636" on="1"/>
      </contour>
      <contour>
        <pt x="453" y="356" on="1"/>
        <pt x="453" y="201" on="1"/>
        <pt x="453" y="186" on="0"/>
        <pt x="465" y="175" on="0"/>
        <pt x="480" y="175" on="1"/>
        <pt x="501" y="175" on="1"/>
        <pt x="515" y="175" on="0"/>
        <pt x="528" y="186" on="0"/>
        <pt x="528" y="201" on="1"/>
        <pt x="528" y="379" on="1"/>
        <pt x="478" y="379" on="1"/>
        <pt x="464" y="379" on="0"/>
        <pt x="453" y="369" on="0"/>
      </contour>
    </TTGlyph>
    <TTGlyph name="dvG_N" xMin="-20" yMin="78" xMax="952" yMax="636">
      <contour>
        <pt x="952" y="636" on="1"/>
        <pt x="952" y="539" on="1"/>
        <pt x="390" y="539" on="1"/>
        <pt x="390" y="191" on="1"/>
        <pt x="390" y="130" on="0"/>
        <pt x="329" y="78" on="0"/>
        <pt x="254" y="78" on="1"/>
        <pt x="167" y="78" on="1"/>
        <pt x="92" y="78" on="0"/>
        <pt x="30" y="130" on="0"/>
        <pt x="30" y="191" on="1"/>
        <pt x="30" y="354" on="1"/>
        <pt x="30" y="409" on="0"/>
        <pt x="101" y="458" on="0"/>
        <pt x="180" y="458" on="1"/>
        <pt x="251" y="458" on="1"/>
        <pt x="251" y="539" on="1"/>
        <pt x="-20" y="539" on="1"/>
        <pt x="-20" y="636" on="1"/>
      </contour>
      <contour>
        <pt x="197" y="175" on="1"/>
        <pt x="224" y="175" on="1"/>
        <pt x="238" y="175" on="0"/>
        <pt x="251" y="186" on="0"/>
        <pt x="251" y="201" on="1"/>
        <pt x="251" y="361" on="1"/>
        <pt x="201" y="361" on="1"/>
        <pt x="182" y="361" on="0"/>
        <pt x="170" y="350" on="0"/>
        <pt x="170" y="330" on="1"/>
        <pt x="170" y="201" on="1"/>
        <pt x="170" y="186" on="0"/>
        <pt x="182" y="175" on="0"/>
      </contour>
      <contour>
        <pt x="464" y="191" on="1"/>
        <pt x="464" y="377" on="1"/>
        <pt x="464" y="429" on="0"/>
        <pt x="518" y="476" on="0"/>
        <pt x="585" y="476" on="1"/>
        <pt x="952" y="476" on="1"/>
        <pt x="952" y="379" on="1"/>
        <pt x="818" y="379" on="1"/>
        <pt x="818" y="191" on="1"/>
        <pt x="818" y="130" on="0"/>
        <pt x="756" y="78" on="0"/>
        <pt x="681" y="78" on="1"/>
        <pt x="600" y="78" on="1"/>
        <pt x="525" y="78" on="0"/>
        <pt x="464" y="130" on="0"/>
      </contour>
      <contour>
        <pt x="603" y="356" on="1"/>
        <pt x="603" y="201" on="1"/>
        <pt x="603" y="186" on="0"/>
        <pt x="616" y="175" on="0"/>
        <pt x="630" y="175" on="1"/>
        <pt x="651" y="175" on="1"/>
        <pt x="666" y="175" on="0"/>
        <pt x="678" y="186" on="0"/>
        <pt x="678" y="201" on="1"/>
        <pt x="678" y="379" on="1"/>
        <pt x="629" y="379" on="1"/>
        <pt x="614" y="379" on="0"/>
        <pt x="603" y="369" on="0"/>
      </contour>
    </TTGlyph>
    <TTGlyph name="dvJH_N" xMin="-34" yMin="-43" xMax="935" yMax="636">
      <contour>
        <pt x="363" y="386" on="1"/>
        <pt x="186" y="386" on="1"/>
        <pt x="172" y="386" on="0"/>
        <pt x="161" y="376" on="0"/>
        <pt x="161" y="363" on="1"/>
        <pt x="161" y="334" on="1"/>
        <pt x="161" y="321" on="0"/>
        <pt x="172" y="311" on="0"/>
        <pt x="186" y="311" on="1"/>
        <pt x="447" y="311" on="1"/>
        <pt x="447" y="377" on="1"/>
        <pt x="447" y="429" on="0"/>
        <pt x="501" y="476" on="0"/>
        <pt x="568" y="476" on="1"/>
        <pt x="935" y="476" on="1"/>
        <pt x="935" y="379" on="1"/>
        <pt x="801" y="379" on="1"/>
        <pt x="801" y="191" on="1"/>
        <pt x="801" y="130" on="0"/>
        <pt x="739" y="78" on="0"/>
        <pt x="664" y="78" on="1"/>
        <pt x="583" y="78" on="1"/>
        <pt x="508" y="78" on="0"/>
        <pt x="447" y="130" on="0"/>
        <pt x="447" y="191" on="1"/>
        <pt x="447" y="221" on="1"/>
        <pt x="376" y="221" on="1"/>
        <pt x="378" y="207" on="0"/>
        <pt x="378" y="200" on="1"/>
        <pt x="378" y="122" on="1"/>
        <pt x="378" y="70" on="0"/>
        <pt x="324" y="23" on="0"/>
        <pt x="257" y="23" on="1"/>
        <pt x="161" y="23" on="1"/>
        <pt x="161" y="-43" on="1"/>
        <pt x="21" y="-43" on="1"/>
        <pt x="21" y="173" on="1"/>
        <pt x="161" y="173" on="1"/>
        <pt x="161" y="113" on="1"/>
        <pt x="213" y="113" on="1"/>
        <pt x="228" y="113" on="0"/>
        <pt x="239" y="123" on="0"/>
        <pt x="239" y="137" on="1"/>
        <pt x="239" y="198" on="1"/>
        <pt x="239" y="211" on="0"/>
        <pt x="228" y="221" on="0"/>
        <pt x="213" y="221" on="1"/>
        <pt x="143" y="221" on="1"/>
        <pt x="75" y="221" on="0"/>
        <pt x="21" y="268" on="0"/>
        <pt x="21" y="320" on="1"/>
        <pt x="21" y="377" on="1"/>
        <pt x="21" y="429" on="0"/>
        <pt x="75" y="476" on="0"/>
        <pt x="143" y="476" on="1"/>
        <pt x="224" y="476" on="1"/>
        <pt x="224" y="539" on="1"/>
        <pt x="-34" y="539" on="1"/>
        <pt x="-34" y="636" on="1"/>
        <pt x="935" y="636" on="1"/>
        <pt x="935" y="539" on="1"/>
        <pt x="363" y="539" on="1"/>
      </contour>
      <contour>
        <pt x="586" y="356" on="1"/>
        <pt x="586" y="201" on="1"/>
        <pt x="586" y="186" on="0"/>
        <pt x="599" y="175" on="0"/>
        <pt x="613" y="175" on="1"/>
        <pt x="634" y="175" on="1"/>
        <pt x="649" y="175" on="0"/>
        <pt x="661" y="186" on="0"/>
        <pt x="661" y="201" on="1"/>
        <pt x="661" y="379" on="1"/>
        <pt x="612" y="379" on="1"/>
        <pt x="597" y="379" on="0"/>
        <pt x="586" y="369" on="0"/>
      </contour>
    </TTGlyph>
    <TTGlyph name="dvJ_N" xMin="-20" yMin="78" xMax="957" yMax="636">
      <contour>
        <pt x="-20" y="636" on="1"/>
        <pt x="957" y="636" on="1"/>
        <pt x="957" y="539" on="1"/>
        <pt x="-20" y="539" on="1"/>
      </contour>
      <contour>
        <pt x="957" y="476" on="1"/>
        <pt x="957" y="379" on="1"/>
        <pt x="828" y="379" on="1"/>
        <pt x="828" y="191" on="1"/>
        <pt x="828" y="130" on="0"/>
        <pt x="767" y="78" on="0"/>
        <pt x="692" y="78" on="1"/>
        <pt x="610" y="78" on="1"/>
        <pt x="535" y="78" on="0"/>
        <pt x="474" y="130" on="0"/>
        <pt x="474" y="191" on="1"/>
        <pt x="474" y="379" on="1"/>
        <pt x="397" y="379" on="1"/>
        <pt x="397" y="191" on="1"/>
        <pt x="397" y="130" on="0"/>
        <pt x="336" y="78" on="0"/>
        <pt x="261" y="78" on="1"/>
        <pt x="178" y="78" on="1"/>
        <pt x="103" y="78" on="0"/>
        <pt x="42" y="130" on="0"/>
        <pt x="42" y="191" on="1"/>
        <pt x="42" y="476" on="1"/>
        <pt x="181" y="476" on="1"/>
        <pt x="181" y="201" on="1"/>
        <pt x="181" y="186" on="0"/>
        <pt x="194" y="175" on="0"/>
        <pt x="208" y="175" on="1"/>
        <pt x="231" y="175" on="1"/>
        <pt x="245" y="175" on="0"/>
        <pt x="258" y="186" on="0"/>
        <pt x="258" y="201" on="1"/>
        <pt x="258" y="476" on="1"/>
      </contour>
      <contour>
        <pt x="688" y="379" on="1"/>
        <pt x="639" y="379" on="1"/>
        <pt x="613" y="379" on="0"/>
        <pt x="613" y="356" on="1"/>
        <pt x="613" y="201" on="1"/>
        <pt x="613" y="186" on="0"/>
        <pt x="626" y="175" on="0"/>
        <pt x="640" y="175" on="1"/>
        <pt x="662" y="175" on="1"/>
        <pt x="676" y="175" on="0"/>
        <pt x="688" y="186" on="0"/>
        <pt x="688" y="201" on="1"/>
      </contour>
    </TTGlyph>
    <TTGlyph name="dvKH_N" xMin="-20" yMin="0" xMax="1149" yMax="636">
      <contour>
        <pt x="-20" y="636" on="1"/>
        <pt x="1149" y="636" on="1"/>
        <pt x="1149" y="539" on="1"/>
        <pt x="372" y="539" on="1"/>
        <pt x="379" y="531" on="0"/>
        <pt x="379" y="514" on="1"/>
        <pt x="379" y="339" on="1"/>
        <pt x="379" y="283" on="0"/>
        <pt x="322" y="235" on="0"/>
        <pt x="255" y="235" on="1"/>
        <pt x="182" y="235" on="1"/>
        <pt x="182" y="131" on="1"/>
        <pt x="182" y="112" on="0"/>
        <pt x="196" y="98" on="0"/>
        <pt x="215" y="98" on="1"/>
        <pt x="453" y="98" on="1"/>
        <pt x="453" y="0" on="1"/>
        <pt x="192" y="0" on="1"/>
        <pt x="113" y="0" on="0"/>
        <pt x="42" y="49" on="0"/>
        <pt x="42" y="104" on="1"/>
        <pt x="42" y="472" on="1"/>
        <pt x="182" y="472" on="1"/>
        <pt x="182" y="332" on="1"/>
        <pt x="206" y="332" on="1"/>
        <pt x="225" y="332" on="0"/>
        <pt x="239" y="346" on="0"/>
        <pt x="239" y="365" on="1"/>
        <pt x="239" y="506" on="1"/>
        <pt x="239" y="526" on="0"/>
        <pt x="226" y="539" on="0"/>
        <pt x="206" y="539" on="1"/>
        <pt x="-20" y="539" on="1"/>
      </contour>
      <contour>
        <pt x="644" y="216" on="1"/>
        <pt x="644" y="377" on="1"/>
        <pt x="644" y="429" on="0"/>
        <pt x="698" y="476" on="0"/>
        <pt x="766" y="476" on="1"/>
        <pt x="1149" y="476" on="1"/>
        <pt x="1149" y="379" on="1"/>
        <pt x="998" y="379" on="1"/>
        <pt x="998" y="191" on="1"/>
        <pt x="998" y="130" on="0"/>
        <pt x="937" y="78" on="0"/>
        <pt x="862" y="78" on="1"/>
        <pt x="780" y="78" on="1"/>
        <pt x="699" y="78" on="0"/>
        <pt x="668" y="110" on="1"/>
        <pt x="651" y="90" on="0"/>
        <pt x="610" y="90" on="1"/>
        <pt x="537" y="90" on="1"/>
        <pt x="479" y="90" on="0"/>
        <pt x="422" y="143" on="0"/>
        <pt x="422" y="203" on="1"/>
        <pt x="422" y="377" on="1"/>
        <pt x="422" y="429" on="0"/>
        <pt x="477" y="476" on="0"/>
        <pt x="544" y="476" on="1"/>
        <pt x="606" y="476" on="1"/>
        <pt x="606" y="386" on="1"/>
        <pt x="586" y="386" on="1"/>
        <pt x="572" y="386" on="0"/>
        <pt x="561" y="376" on="0"/>
        <pt x="561" y="363" on="1"/>
        <pt x="561" y="213" on="1"/>
        <pt x="561" y="198" on="0"/>
        <pt x="572" y="187" on="0"/>
        <pt x="586" y="187" on="1"/>
        <pt x="616" y="187" on="1"/>
        <pt x="644" y="187" on="0"/>
      </contour>
      <contour>
        <pt x="784" y="356" on="1"/>
        <pt x="784" y="201" on="1"/>
        <pt x="784" y="186" on="0"/>
        <pt x="796" y="175" on="0"/>
        <pt x="810" y="175" on="1"/>
        <pt x="832" y="175" on="1"/>
        <pt x="846" y="175" on="0"/>
        <pt x="859" y="186" on="0"/>
        <pt x="859" y="201" on="1"/>
        <pt x="859" y="379" on="1"/>
        <pt x="809" y="379" on="1"/>
        <pt x="795" y="379" on="0"/>
        <pt x="784" y="369" on="0"/>
      </contour>
    </TTGlyph>
    <TTGlyph name="dvK_N" xMin="-20" yMin="0" xMax="973" yMax="636">
      <contour>
        <pt x="973" y="539" on="1"/>
        <pt x="391" y="539" on="1"/>
        <pt x="391" y="432" on="1"/>
        <pt x="405" y="446" on="0"/>
        <pt x="438" y="446" on="1"/>
        <pt x="973" y="446" on="1"/>
        <pt x="973" y="349" on="1"/>
        <pt x="829" y="349" on="1"/>
        <pt x="829" y="191" on="1"/>
        <pt x="829" y="130" on="0"/>
        <pt x="768" y="78" on="0"/>
        <pt x="693" y="78" on="1"/>
        <pt x="611" y="78" on="1"/>
        <pt x="536" y="78" on="0"/>
        <pt x="475" y="130" on="0"/>
        <pt x="475" y="191" on="1"/>
        <pt x="475" y="349" on="1"/>
        <pt x="417" y="349" on="1"/>
        <pt x="403" y="349" on="0"/>
        <pt x="391" y="337" on="0"/>
        <pt x="391" y="322" on="1"/>
        <pt x="391" y="0" on="1"/>
        <pt x="251" y="0" on="1"/>
        <pt x="251" y="92" on="1"/>
        <pt x="238" y="78" on="0"/>
        <pt x="205" y="78" on="1"/>
        <pt x="143" y="78" on="1"/>
        <pt x="85" y="78" on="0"/>
        <pt x="28" y="131" on="0"/>
        <pt x="28" y="191" on="1"/>
        <pt x="28" y="377" on="1"/>
        <pt x="28" y="429" on="0"/>
        <pt x="82" y="476" on="0"/>
        <pt x="149" y="476" on="1"/>
        <pt x="211" y="476" on="1"/>
        <pt x="211" y="386" on="1"/>
        <pt x="193" y="386" on="1"/>
        <pt x="178" y="386" on="0"/>
        <pt x="167" y="376" on="0"/>
        <pt x="167" y="363" on="1"/>
        <pt x="167" y="201" on="1"/>
        <pt x="167" y="186" on="0"/>
        <pt x="178" y="175" on="0"/>
        <pt x="193" y="175" on="1"/>
        <pt x="225" y="175" on="1"/>
        <pt x="239" y="175" on="0"/>
        <pt x="251" y="187" on="0"/>
        <pt x="251" y="202" on="1"/>
        <pt x="251" y="539" on="1"/>
        <pt x="-20" y="539" on="1"/>
        <pt x="-20" y="636" on="1"/>
        <pt x="973" y="636" on="1"/>
      </contour>
      <contour>
        <pt x="690" y="349" on="1"/>
        <pt x="640" y="349" on="1"/>
        <pt x="626" y="349" on="0"/>
        <pt x="615" y="339" on="0"/>
        <pt x="615" y="326" on="1"/>
        <pt x="615" y="201" on="1"/>
        <pt x="615" y="186" on="0"/>
        <pt x="627" y="175" on="0"/>
        <pt x="641" y="175" on="1"/>
        <pt x="663" y="175" on="1"/>
        <pt x="677" y="175" on="0"/>
        <pt x="690" y="186" on="0"/>
        <pt x="690" y="201" on="1"/>
      </contour>
    </TTGlyph>
    <TTGlyph name="dvM_N" xMin="-20" yMin="78" xMax="934" yMax="636">
      <contour>
        <pt x="934" y="539" on="1"/>
        <pt x="820" y="539" on="1"/>
        <pt x="820" y="432" on="1"/>
        <pt x="934" y="432" on="1"/>
        <pt x="934" y="335" on="1"/>
        <pt x="820" y="335" on="1"/>
        <pt x="820" y="191" on="1"/>
        <pt x="820" y="130" on="0"/>
        <pt x="759" y="78" on="0"/>
        <pt x="684" y="78" on="1"/>
        <pt x="597" y="78" on="1"/>
        <pt x="522" y="78" on="0"/>
        <pt x="461" y="130" on="0"/>
        <pt x="461" y="191" on="1"/>
        <pt x="461" y="335" on="1"/>
        <pt x="386" y="335" on="1"/>
        <pt x="386" y="191" on="1"/>
        <pt x="386" y="130" on="0"/>
        <pt x="324" y="78" on="0"/>
        <pt x="249" y="78" on="1"/>
        <pt x="168" y="78" on="1"/>
        <pt x="93" y="78" on="0"/>
        <pt x="32" y="130" on="0"/>
        <pt x="32" y="191" on="1"/>
        <pt x="32" y="333" on="1"/>
        <pt x="32" y="385" on="0"/>
        <pt x="86" y="432" on="0"/>
        <pt x="153" y="432" on="1"/>
        <pt x="681" y="432" on="1"/>
        <pt x="681" y="539" on="1"/>
        <pt x="-20" y="539" on="1"/>
        <pt x="-20" y="636" on="1"/>
        <pt x="934" y="636" on="1"/>
      </contour>
      <contour>
        <pt x="246" y="201" on="1"/>
        <pt x="246" y="335" on="1"/>
        <pt x="197" y="335" on="1"/>
        <pt x="182" y="335" on="0"/>
        <pt x="171" y="325" on="0"/>
        <pt x="171" y="312" on="1"/>
        <pt x="171" y="201" on="1"/>
        <pt x="171" y="186" on="0"/>
        <pt x="184" y="175" on="0"/>
        <pt x="198" y="175" on="1"/>
        <pt x="219" y="175" on="1"/>
        <pt x="234" y="175" on="0"/>
        <pt x="246" y="186" on="0"/>
      </contour>
      <contour>
        <pt x="681" y="201" on="1"/>
        <pt x="681" y="335" on="1"/>
        <pt x="613" y="335" on="1"/>
        <pt x="599" y="335" on="0"/>
        <pt x="588" y="325" on="0"/>
        <pt x="588" y="312" on="1"/>
        <pt x="588" y="201" on="1"/>
        <pt x="588" y="186" on="0"/>
        <pt x="600" y="175" on="0"/>
        <pt x="615" y="175" on="1"/>
        <pt x="654" y="175" on="1"/>
        <pt x="668" y="175" on="0"/>
        <pt x="681" y="186" on="0"/>
      </contour>
    </TTGlyph>
    <TTGlyph name="dvMatraI.a33" xMin="-20" yMin="0" xMax="1529" yMax="845">
      <contour>
        <pt x="1420" y="845" on="1"/>
        <pt x="1529" y="845" on="0"/>
        <pt x="1529" y="742" on="1"/>
        <pt x="1529" y="673" on="1"/>
        <pt x="1389" y="673" on="1"/>
        <pt x="1389" y="713" on="1"/>
        <pt x="1389" y="735" on="0"/>
        <pt x="1377" y="748" on="0"/>
        <pt x="1355" y="748" on="1"/>
        <pt x="219" y="748" on="1"/>
        <pt x="197" y="748" on="0"/>
        <pt x="184" y="735" on="0"/>
        <pt x="184" y="713" on="1"/>
        <pt x="184" y="636" on="1"/>
        <pt x="249" y="636" on="1"/>
        <pt x="249" y="539" on="1"/>
        <pt x="184" y="539" on="1"/>
        <pt x="184" y="0" on="1"/>
        <pt x="45" y="0" on="1"/>
        <pt x="45" y="539" on="1"/>
        <pt x="-20" y="539" on="1"/>
        <pt x="-20" y="636" on="1"/>
        <pt x="45" y="636" on="1"/>
        <pt x="45" y="742" on="1"/>
        <pt x="45" y="845" on="0"/>
        <pt x="154" y="845" on="1"/>
      </contour>
    </TTGlyph>
    <TTGlyph name="dvMatraI.a34" xMin="-20" yMin="0" xMax="1558" yMax="845">
      <contour>
        <pt x="1449" y="845" on="1"/>
        <pt x="1558" y="845" on="0"/>
        <pt x="1558" y="742" on="1"/>
        <pt x="1558" y="673" on="1"/>
        <pt x="1418" y="673" on="1"/>
        <pt x="1418" y="713" on="1"/>
        <pt x="1418" y="735" on="0"/>
        <pt x="1406" y="748" on="0"/>
        <pt x="1384" y="748" on="1"/>
        <pt x="219" y="748" on="1"/>
        <pt x="197" y="748" on="0"/>
        <pt x="184" y="735" on="0"/>
        <pt x="184" y="713" on="1"/>
        <pt x="184" y="636" on="1"/>
        <pt x="249" y="636" on="1"/>
        <pt x="249" y="539" on="1"/>
        <pt x="184" y="539" on="1"/>
        <pt x="184" y="0" on="1"/>
        <pt x="45" y="0" on="1"/>
        <pt x="45" y="539" on="1"/>
        <pt x="-20" y="539" on="1"/>
        <pt x="-20" y="636" on="1"/>
        <pt x="45" y="636" on="1"/>
        <pt x="45" y="742" on="1"/>
        <pt x="45" y="845" on="0"/>
        <pt x="154" y="845" on="1"/>
      </contour>
    </TTGlyph>
    <TTGlyph name="dvMatraI.a35" xMin="-20" yMin="0" xMax="1587" yMax="845">
      <contour>
        <pt x="1478" y="845" on="1"/>
        <pt x="1587" y="845" on="0"/>
        <pt x="1587" y="742" on="1"/>
        <pt x="1587" y="673" on="1"/>
        <pt x="1448" y="673" on="1"/>
        <pt x="1448" y="713" on="1"/>
        <pt x="1448" y="735" on="0"/>
        <pt x="1435" y="748" on="0"/>
        <pt x="1413" y="748" on="1"/>
        <pt x="219" y="748" on="1"/>
        <pt x="197" y="748" on="0"/>
        <pt x="184" y="735" on="0"/>
        <pt x="184" y="713" on="1"/>
        <pt x="184" y="636" on="1"/>
        <pt x="249" y="636" on="1"/>
        <pt x="249" y="539" on="1"/>
        <pt x="184" y="539" on="1"/>
        <pt x="184" y="0" on="1"/>
        <pt x="45" y="0" on="1"/>
        <pt x="45" y="539" on="1"/>
        <pt x="-20" y="539" on="1"/>
        <pt x="-20" y="636" on="1"/>
        <pt x="45" y="636" on="1"/>
        <pt x="45" y="742" on="1"/>
        <pt x="45" y="845" on="0"/>
        <pt x="154" y="845" on="1"/>
      </contour>
    </TTGlyph>
    <TTGlyph name="dvMatraI.a36" xMin="-20" yMin="0" xMax="1616" yMax="845">
      <contour>
        <pt x="1507" y="845" on="1"/>
        <pt x="1616" y="845" on="0"/>
        <pt x="1616" y="742" on="1"/>
        <pt x="1616" y="673" on="1"/>
        <pt x="1477" y="673" on="1"/>
        <pt x="1477" y="713" on="1"/>
        <pt x="1477" y="735" on="0"/>
        <pt x="1464" y="748" on="0"/>
        <pt x="1442" y="748" on="1"/>
        <pt x="219" y="748" on="1"/>
        <pt x="197" y="748" on="0"/>
        <pt x="184" y="735" on="0"/>
        <pt x="184" y="713" on="1"/>
        <pt x="184" y="636" on="1"/>
        <pt x="249" y="636" on="1"/>
        <pt x="249" y="539" on="1"/>
        <pt x="184" y="539" on="1"/>
        <pt x="184" y="0" on="1"/>
        <pt x="45" y="0" on="1"/>
        <pt x="45" y="539" on="1"/>
        <pt x="-20" y="539" on="1"/>
        <pt x="-20" y="636" on="1"/>
        <pt x="45" y="636" on="1"/>
        <pt x="45" y="742" on="1"/>
        <pt x="45" y="845" on="0"/>
        <pt x="154" y="845" on="1"/>
      </contour>
    </TTGlyph>
    <TTGlyph name="dvMatraI.a37" xMin="-20" yMin="0" xMax="1645" yMax="845">
      <contour>
        <pt x="1536" y="845" on="1"/>
        <pt x="1645" y="845" on="0"/>
        <pt x="1645" y="742" on="1"/>
        <pt x="1645" y="673" on="1"/>
        <pt x="1506" y="673" on="1"/>
        <pt x="1506" y="713" on="1"/>
        <pt x="1506" y="735" on="0"/>
        <pt x="1493" y="748" on="0"/>
        <pt x="1471" y="748" on="1"/>
        <pt x="219" y="748" on="1"/>
        <pt x="197" y="748" on="0"/>
        <pt x="184" y="735" on="0"/>
        <pt x="184" y="713" on="1"/>
        <pt x="184" y="636" on="1"/>
        <pt x="249" y="636" on="1"/>
        <pt x="249" y="539" on="1"/>
        <pt x="184" y="539" on="1"/>
        <pt x="184" y="0" on="1"/>
        <pt x="45" y="0" on="1"/>
        <pt x="45" y="539" on="1"/>
        <pt x="-20" y="539" on="1"/>
        <pt x="-20" y="636" on="1"/>
        <pt x="45" y="636" on="1"/>
        <pt x="45" y="742" on="1"/>
        <pt x="45" y="845" on="0"/>
        <pt x="154" y="845" on="1"/>
      </contour>
    </TTGlyph>
    <TTGlyph name="dvMatraI.a38" xMin="-20" yMin="0" xMax="1675" yMax="845">
      <contour>
        <pt x="1566" y="845" on="1"/>
        <pt x="1675" y="845" on="0"/>
        <pt x="1675" y="742" on="1"/>
        <pt x="1675" y="673" on="1"/>
        <pt x="1535" y="673" on="1"/>
        <pt x="1535" y="713" on="1"/>
        <pt x="1535" y="735" on="0"/>
        <pt x="1522" y="748" on="0"/>
        <pt x="1501" y="748" on="1"/>
        <pt x="219" y="748" on="1"/>
        <pt x="197" y="748" on="0"/>
        <pt x="184" y="735" on="0"/>
        <pt x="184" y="713" on="1"/>
        <pt x="184" y="636" on="1"/>
        <pt x="249" y="636" on="1"/>
        <pt x="249" y="539" on="1"/>
        <pt x="184" y="539" on="1"/>
        <pt x="184" y="0" on="1"/>
        <pt x="45" y="0" on="1"/>
        <pt x="45" y="539" on="1"/>
        <pt x="-20" y="539" on="1"/>
        <pt x="-20" y="636" on="1"/>
        <pt x="45" y="636" on="1"/>
        <pt x="45" y="742" on="1"/>
        <pt x="45" y="845" on="0"/>
        <pt x="154" y="845" on="1"/>
      </contour>
    </TTGlyph>
    <TTGlyph name="dvMatraI.a39" xMin="-20" yMin="0" xMax="1704" yMax="845">
      <contour>
        <pt x="1595" y="845" on="1"/>
        <pt x="1704" y="845" on="0"/>
        <pt x="1704" y="742" on="1"/>
        <pt x="1704" y="673" on="1"/>
        <pt x="1564" y="673" on="1"/>
        <pt x="1564" y="713" on="1"/>
        <pt x="1564" y="735" on="0"/>
        <pt x="1551" y="748" on="0"/>
        <pt x="1530" y="748" on="1"/>
        <pt x="219" y="748" on="1"/>
        <pt x="197" y="748" on="0"/>
        <pt x="184" y="735" on="0"/>
        <pt x="184" y="713" on="1"/>
        <pt x="184" y="636" on="1"/>
        <pt x="249" y="636" on="1"/>
        <pt x="249" y="539" on="1"/>
        <pt x="184" y="539" on="1"/>
        <pt x="184" y="0" on="1"/>
        <pt x="45" y="0" on="1"/>
        <pt x="45" y="539" on="1"/>
        <pt x="-20" y="539" on="1"/>
        <pt x="-20" y="636" on="1"/>
        <pt x="45" y="636" on="1"/>
        <pt x="45" y="742" on="1"/>
        <pt x="45" y="845" on="0"/>
        <pt x="154" y="845" on="1"/>
      </contour>
    </TTGlyph>
    <TTGlyph name="dvMatraI.a40" xMin="-20" yMin="0" xMax="1733" yMax="845">
      <contour>
        <pt x="1623" y="845" on="1"/>
        <pt x="1733" y="845" on="0"/>
        <pt x="1733" y="742" on="1"/>
        <pt x="1733" y="673" on="1"/>
        <pt x="1593" y="673" on="1"/>
        <pt x="1593" y="713" on="1"/>
        <pt x="1593" y="735" on="0"/>
        <pt x="1580" y="748" on="0"/>
        <pt x="1558" y="748" on="1"/>
        <pt x="219" y="748" on="1"/>
        <pt x="197" y="748" on="0"/>
        <pt x="184" y="735" on="0"/>
        <pt x="184" y="713" on="1"/>
        <pt x="184" y="636" on="1"/>
        <pt x="249" y="636" on="1"/>
        <pt x="249" y="539" on="1"/>
        <pt x="184" y="539" on="1"/>
        <pt x="184" y="0" on="1"/>
        <pt x="45" y="0" on="1"/>
        <pt x="45" y="539" on="1"/>
        <pt x="-20" y="539" on="1"/>
        <pt x="-20" y="636" on="1"/>
        <pt x="45" y="636" on="1"/>
        <pt x="45" y="742" on="1"/>
        <pt x="45" y="845" on="0"/>
        <pt x="154" y="845" on="1"/>
      </contour>
    </TTGlyph>
</ttFont>
